%TF.GenerationSoftware,KiCad,Pcbnew,(5.1.7)-1*%
%TF.CreationDate,2021-04-04T08:26:08+02:00*%
%TF.ProjectId,Reflow_Ofen_V2,5265666c-6f77-45f4-9f66-656e5f56322e,rev?*%
%TF.SameCoordinates,Original*%
%TF.FileFunction,Profile,NP*%
%FSLAX46Y46*%
G04 Gerber Fmt 4.6, Leading zero omitted, Abs format (unit mm)*
G04 Created by KiCad (PCBNEW (5.1.7)-1) date 2021-04-04 08:26:08*
%MOMM*%
%LPD*%
G01*
G04 APERTURE LIST*
%TA.AperFunction,Profile*%
%ADD10C,0.050000*%
%TD*%
G04 APERTURE END LIST*
D10*
X59690000Y-64008000D02*
X59690000Y-66040000D01*
X61214000Y-64008000D02*
X61214000Y-66040000D01*
X66802000Y-64008000D02*
G75*
G02*
X65278000Y-64008000I-762000J0D01*
G01*
X59690000Y-64008000D02*
G75*
G02*
X66802000Y-64008000I3556000J0D01*
G01*
X61214000Y-64008000D02*
G75*
G02*
X65278000Y-64008000I2032000J0D01*
G01*
X98500000Y-72000000D02*
X87500000Y-72000000D01*
X98500000Y-72000000D02*
G75*
G02*
X98500000Y-75000000I0J-1500000D01*
G01*
X87500000Y-75000000D02*
G75*
G02*
X87500000Y-72000000I0J1500000D01*
G01*
X87500000Y-75000000D02*
X98500000Y-75000000D01*
X115500000Y-72000000D02*
X104500000Y-72000000D01*
X115500000Y-72000000D02*
G75*
G02*
X115500000Y-75000000I0J-1500000D01*
G01*
X104500000Y-75000000D02*
X115500000Y-75000000D01*
X104500000Y-75000000D02*
G75*
G02*
X104500000Y-72000000I0J1500000D01*
G01*
X69500000Y-75000000D02*
G75*
G02*
X69500000Y-72000000I0J1500000D01*
G01*
X80500000Y-72000000D02*
G75*
G02*
X80500000Y-75000000I0J-1500000D01*
G01*
X69500000Y-75000000D02*
X80500000Y-75000000D01*
X80500000Y-72000000D02*
X69500000Y-72000000D01*
X138000000Y-119000000D02*
X47000000Y-119000000D01*
X138000000Y-36000000D02*
X138000000Y-119000000D01*
X47000000Y-36000000D02*
X138000000Y-36000000D01*
X47000000Y-119000000D02*
X47000000Y-36000000D01*
X53086000Y-62230000D02*
G75*
G02*
X54610000Y-62230000I762000J0D01*
G01*
X54610000Y-66040000D02*
X54610000Y-62230000D01*
X53086000Y-66040000D02*
X53086000Y-62230000D01*
X61214000Y-66040000D02*
G75*
G02*
X53086000Y-66040000I-4064000J0D01*
G01*
X59690000Y-66040000D02*
G75*
G02*
X54610000Y-66040000I-2540000J0D01*
G01*
M02*
