%TF.GenerationSoftware,KiCad,Pcbnew,(5.1.7)-1*%
%TF.CreationDate,2021-04-04T08:26:08+02:00*%
%TF.ProjectId,Reflow_Ofen_V2,5265666c-6f77-45f4-9f66-656e5f56322e,rev?*%
%TF.SameCoordinates,Original*%
%TF.FileFunction,Copper,L3,Inr*%
%TF.FilePolarity,Positive*%
%FSLAX46Y46*%
G04 Gerber Fmt 4.6, Leading zero omitted, Abs format (unit mm)*
G04 Created by KiCad (PCBNEW (5.1.7)-1) date 2021-04-04 08:26:08*
%MOMM*%
%LPD*%
G01*
G04 APERTURE LIST*
%TA.AperFunction,ComponentPad*%
%ADD10O,1.000000X1.000000*%
%TD*%
%TA.AperFunction,ComponentPad*%
%ADD11R,1.000000X1.000000*%
%TD*%
%TA.AperFunction,ComponentPad*%
%ADD12C,2.500000*%
%TD*%
%TA.AperFunction,ComponentPad*%
%ADD13C,3.000000*%
%TD*%
%TA.AperFunction,ComponentPad*%
%ADD14R,1.700000X1.700000*%
%TD*%
%TA.AperFunction,ComponentPad*%
%ADD15C,1.700000*%
%TD*%
%TA.AperFunction,ComponentPad*%
%ADD16C,3.500000*%
%TD*%
%TA.AperFunction,ComponentPad*%
%ADD17R,2.540000X2.540000*%
%TD*%
%TA.AperFunction,ComponentPad*%
%ADD18C,2.540000*%
%TD*%
%TA.AperFunction,ComponentPad*%
%ADD19R,1.905000X2.000000*%
%TD*%
%TA.AperFunction,ComponentPad*%
%ADD20O,1.905000X2.000000*%
%TD*%
%TA.AperFunction,ComponentPad*%
%ADD21C,10.600000*%
%TD*%
%TA.AperFunction,ComponentPad*%
%ADD22C,0.900000*%
%TD*%
%TA.AperFunction,ComponentPad*%
%ADD23C,2.300000*%
%TD*%
%TA.AperFunction,ComponentPad*%
%ADD24R,2.000000X2.300000*%
%TD*%
%TA.AperFunction,ComponentPad*%
%ADD25R,3.000000X3.000000*%
%TD*%
%TA.AperFunction,ViaPad*%
%ADD26C,0.800000*%
%TD*%
%TA.AperFunction,Conductor*%
%ADD27C,0.254000*%
%TD*%
%TA.AperFunction,Conductor*%
%ADD28C,0.100000*%
%TD*%
G04 APERTURE END LIST*
D10*
%TO.N,/STMF415VGT6/MCU_D2*%
%TO.C,J1*%
X80010000Y-114808000D03*
%TO.N,/STMF415VGT6/MCU_D4*%
X80010000Y-113538000D03*
%TO.N,/STMF415VGT6/MCU_D3*%
X81280000Y-114808000D03*
%TO.N,/STMF415VGT6/MCU_D5*%
X81280000Y-113538000D03*
%TO.N,/STMF415VGT6/MCU_NOE*%
X82550000Y-114808000D03*
%TO.N,/STMF415VGT6/MCU_D6*%
X82550000Y-113538000D03*
%TO.N,/STMF415VGT6/MCU_NWE*%
X83820000Y-114808000D03*
%TO.N,/STMF415VGT6/MCU_D7*%
X83820000Y-113538000D03*
%TO.N,/STMF415VGT6/MCU_NE1*%
X85090000Y-114808000D03*
%TO.N,/STMF415VGT6/MCU_D8*%
X85090000Y-113538000D03*
%TO.N,GND*%
X86360000Y-114808000D03*
%TO.N,/STMF415VGT6/MCU_D9*%
X86360000Y-113538000D03*
%TO.N,+3V3*%
X87630000Y-114808000D03*
%TO.N,/STMF415VGT6/MCU_D10*%
X87630000Y-113538000D03*
%TO.N,+5V*%
X88900000Y-114808000D03*
%TO.N,/STMF415VGT6/MCU_D11*%
X88900000Y-113538000D03*
%TO.N,/SPI3_SCLK*%
X90170000Y-114808000D03*
%TO.N,/STMF415VGT6/MCU_D12*%
X90170000Y-113538000D03*
%TO.N,/SPI3_SCLK*%
X91440000Y-114808000D03*
%TO.N,/TOUCH_CS*%
X91440000Y-113538000D03*
%TO.N,/SPI3_MISO*%
X92710000Y-114808000D03*
%TO.N,/TOUCH_IRQ*%
X92710000Y-113538000D03*
%TO.N,/SPI3_MISO*%
X93980000Y-114808000D03*
%TO.N,/SD_CS*%
X93980000Y-113538000D03*
%TO.N,/SPI3_MOSI*%
X95250000Y-114808000D03*
%TO.N,/FLASH_CS*%
X95250000Y-113538000D03*
%TO.N,/SPI3_MOSI*%
X96520000Y-114808000D03*
%TO.N,/STMF415VGT6/MCU_TFT_RST*%
X96520000Y-113538000D03*
%TO.N,/STMF415VGT6/MCU_D1*%
X97790000Y-114808000D03*
%TO.N,/STMF415VGT6/MCU_D13*%
X97790000Y-113538000D03*
%TO.N,/STMF415VGT6/MCU_D0*%
X99060000Y-114808000D03*
%TO.N,/STMF415VGT6/MCU_D14*%
X99060000Y-113538000D03*
%TO.N,/STMF415VGT6/MCU_A16*%
X100330000Y-114808000D03*
D11*
%TO.N,/STMF415VGT6/MCU_D15*%
X100330000Y-113538000D03*
%TD*%
D12*
%TO.N,+5V*%
%TO.C,K1*%
X63200000Y-64090000D03*
D13*
%TO.N,AC_N*%
X63200000Y-51890000D03*
D12*
%TO.N,Net-(D5-Pad2)*%
X51200000Y-64090000D03*
D13*
%TO.N,Net-(CONN_FAN1-Pad2)*%
X57150000Y-66040000D03*
%TD*%
D14*
%TO.N,N/C*%
%TO.C,CONN1*%
X122682000Y-104942000D03*
D15*
%TO.N,/Connectors/USB_D-*%
X122682000Y-107442000D03*
%TO.N,/Connectors/USB_D+*%
X124682000Y-107442000D03*
%TO.N,GND*%
X124682000Y-104942000D03*
D16*
%TO.N,Net-(CONN1-Pad5)*%
X127392000Y-100172000D03*
X127392000Y-112212000D03*
%TD*%
D17*
%TO.N,AC_N*%
%TO.C,CONN_AC1*%
X130175000Y-40640000D03*
D18*
%TO.N,AC_L*%
X122555000Y-40640000D03*
%TD*%
D17*
%TO.N,AC_L*%
%TO.C,CONN_HEATER1*%
X96520000Y-40640000D03*
D18*
%TO.N,Net-(CONN_HEATER1-Pad2)*%
X88900000Y-40640000D03*
%TD*%
%TO.N,Net-(CONN_LIGHT1-Pad2)*%
%TO.C,CONN_LIGHT1*%
X71120000Y-40640000D03*
D17*
%TO.N,AC_L*%
X78740000Y-40640000D03*
%TD*%
%TO.N,AC_L*%
%TO.C,CONN_FAN1*%
X60960000Y-40640000D03*
D18*
%TO.N,Net-(CONN_FAN1-Pad2)*%
X53340000Y-40640000D03*
%TD*%
D19*
%TO.N,AC_N*%
%TO.C,D3*%
X90170000Y-62865000D03*
D20*
%TO.N,Net-(CONN_HEATER1-Pad2)*%
X92710000Y-62865000D03*
%TO.N,Net-(D3-Pad3)*%
X95250000Y-62865000D03*
%TD*%
D21*
%TO.N,Net-(H1-Pad1)*%
%TO.C,H1*%
X55000000Y-91000000D03*
D22*
X58975000Y-91000000D03*
X57810749Y-93810749D03*
X55000000Y-94975000D03*
X52189251Y-93810749D03*
X51025000Y-91000000D03*
X52189251Y-88189251D03*
X55000000Y-87025000D03*
X57810749Y-88189251D03*
%TD*%
%TO.N,Net-(H2-Pad1)*%
%TO.C,H2*%
X110810749Y-47189251D03*
X108000000Y-46025000D03*
X105189251Y-47189251D03*
X104025000Y-50000000D03*
X105189251Y-52810749D03*
X108000000Y-53975000D03*
X110810749Y-52810749D03*
X111975000Y-50000000D03*
D21*
X108000000Y-50000000D03*
%TD*%
%TO.N,Net-(H3-Pad1)*%
%TO.C,H3*%
X108000000Y-100000000D03*
D22*
X111975000Y-100000000D03*
X110810749Y-102810749D03*
X108000000Y-103975000D03*
X105189251Y-102810749D03*
X104025000Y-100000000D03*
X105189251Y-97189251D03*
X108000000Y-96025000D03*
X110810749Y-97189251D03*
%TD*%
D23*
%TO.N,GND*%
%TO.C,PS1*%
X133985000Y-78800000D03*
D24*
%TO.N,AC_N*%
X133985000Y-50800000D03*
D23*
%TO.N,AC_L*%
X118785000Y-50800000D03*
%TO.N,+5V*%
X126385000Y-78800000D03*
%TD*%
D25*
%TO.N,Net-(C20-Pad1)*%
%TO.C,THERMOCOUPLE1*%
X51816000Y-106680000D03*
D13*
%TO.N,Net-(C19-Pad1)*%
X51816000Y-111760000D03*
%TD*%
D26*
%TO.N,+3V3*%
X94996000Y-91440000D03*
X110363000Y-90170000D03*
X106045000Y-80645000D03*
X121793000Y-85217000D03*
X121793000Y-86487000D03*
X121793000Y-89027000D03*
X120396000Y-85217000D03*
X120396000Y-89027000D03*
X119126000Y-85217000D03*
X119126000Y-89027000D03*
X117856000Y-89027000D03*
X117856000Y-85217000D03*
X121793000Y-87757000D03*
X63754000Y-112268000D03*
X79471330Y-109524869D03*
X74763603Y-105533637D03*
X76454000Y-100711000D03*
X75438000Y-97835000D03*
X75438000Y-94996000D03*
X79248000Y-87376000D03*
X92710000Y-107188000D03*
%TO.N,GND*%
X117221000Y-100711000D03*
X92075000Y-86487000D03*
X100965000Y-86360000D03*
X90551000Y-89154000D03*
X93853000Y-90551000D03*
X127254000Y-90932000D03*
X78544847Y-108389847D03*
X80899000Y-94234000D03*
X84582000Y-93345000D03*
X83439000Y-96520000D03*
X80899000Y-98933000D03*
X91186000Y-97536000D03*
X88900000Y-100203000D03*
X86614000Y-102489000D03*
X84328000Y-104775000D03*
%TO.N,/Connectors/CONN_NRST*%
X87733847Y-88532847D03*
X83312000Y-92964000D03*
%TO.N,/SPI3_SCLK*%
X91821000Y-93853000D03*
X95262651Y-97031346D03*
%TO.N,/SPI3_MISO*%
X95250000Y-98044000D03*
X91825653Y-94991347D03*
%TO.N,/SPI3_MOSI*%
X91821000Y-96012000D03*
X95250000Y-99060000D03*
%TO.N,/STMF415VGT6/MCU_D2*%
X89154000Y-94615000D03*
%TO.N,/STMF415VGT6/MCU_D3*%
X88141346Y-94602349D03*
%TO.N,/STMF415VGT6/MCU_NOE*%
X87141444Y-94616524D03*
%TO.N,/STMF415VGT6/MCU_NWE*%
X86141444Y-94614847D03*
%TO.N,/STMF415VGT6/MCU_NE1*%
X85141443Y-94615012D03*
%TO.N,Net-(CONN_LIGHT1-Pad2)*%
X70500000Y-49000000D03*
X73500000Y-49000000D03*
X76500000Y-49000000D03*
X79500000Y-49000000D03*
X70500000Y-51500000D03*
X73500000Y-51500000D03*
X76500000Y-51500000D03*
X79500000Y-51500000D03*
X79500000Y-54000000D03*
X79500000Y-56500000D03*
X76500000Y-56500000D03*
X73500000Y-56500000D03*
X70500000Y-56500000D03*
X70500000Y-54000000D03*
X73500000Y-54000000D03*
X76500000Y-54000000D03*
%TD*%
D27*
%TO.N,GND*%
X137548001Y-118548000D02*
X47452000Y-118548000D01*
X47452000Y-111570207D01*
X49889000Y-111570207D01*
X49889000Y-111949793D01*
X49963053Y-112322085D01*
X50108315Y-112672777D01*
X50319201Y-112988391D01*
X50587609Y-113256799D01*
X50903223Y-113467685D01*
X51253915Y-113612947D01*
X51626207Y-113687000D01*
X52005793Y-113687000D01*
X52378085Y-113612947D01*
X52728777Y-113467685D01*
X52760184Y-113446699D01*
X79083000Y-113446699D01*
X79083000Y-113629301D01*
X79118624Y-113808396D01*
X79188504Y-113977099D01*
X79289952Y-114128928D01*
X79334024Y-114173000D01*
X79289952Y-114217072D01*
X79188504Y-114368901D01*
X79118624Y-114537604D01*
X79083000Y-114716699D01*
X79083000Y-114899301D01*
X79118624Y-115078396D01*
X79188504Y-115247099D01*
X79289952Y-115398928D01*
X79419072Y-115528048D01*
X79570901Y-115629496D01*
X79739604Y-115699376D01*
X79918699Y-115735000D01*
X80101301Y-115735000D01*
X80280396Y-115699376D01*
X80449099Y-115629496D01*
X80600928Y-115528048D01*
X80645000Y-115483976D01*
X80689072Y-115528048D01*
X80840901Y-115629496D01*
X81009604Y-115699376D01*
X81188699Y-115735000D01*
X81371301Y-115735000D01*
X81550396Y-115699376D01*
X81719099Y-115629496D01*
X81870928Y-115528048D01*
X81915000Y-115483976D01*
X81959072Y-115528048D01*
X82110901Y-115629496D01*
X82279604Y-115699376D01*
X82458699Y-115735000D01*
X82641301Y-115735000D01*
X82820396Y-115699376D01*
X82989099Y-115629496D01*
X83140928Y-115528048D01*
X83185000Y-115483976D01*
X83229072Y-115528048D01*
X83380901Y-115629496D01*
X83549604Y-115699376D01*
X83728699Y-115735000D01*
X83911301Y-115735000D01*
X84090396Y-115699376D01*
X84259099Y-115629496D01*
X84410928Y-115528048D01*
X84455000Y-115483976D01*
X84499072Y-115528048D01*
X84650901Y-115629496D01*
X84819604Y-115699376D01*
X84998699Y-115735000D01*
X85181301Y-115735000D01*
X85360396Y-115699376D01*
X85529099Y-115629496D01*
X85561730Y-115607693D01*
X85617980Y-115666865D01*
X85799794Y-115795123D01*
X86003136Y-115885446D01*
X86058126Y-115902119D01*
X86233000Y-115775954D01*
X86233000Y-114935000D01*
X86213000Y-114935000D01*
X86213000Y-114681000D01*
X86233000Y-114681000D01*
X86233000Y-114661000D01*
X86487000Y-114661000D01*
X86487000Y-114681000D01*
X86507000Y-114681000D01*
X86507000Y-114935000D01*
X86487000Y-114935000D01*
X86487000Y-115775954D01*
X86661874Y-115902119D01*
X86716864Y-115885446D01*
X86920206Y-115795123D01*
X87102020Y-115666865D01*
X87158270Y-115607693D01*
X87190901Y-115629496D01*
X87359604Y-115699376D01*
X87538699Y-115735000D01*
X87721301Y-115735000D01*
X87900396Y-115699376D01*
X88069099Y-115629496D01*
X88220928Y-115528048D01*
X88265000Y-115483976D01*
X88309072Y-115528048D01*
X88460901Y-115629496D01*
X88629604Y-115699376D01*
X88808699Y-115735000D01*
X88991301Y-115735000D01*
X89170396Y-115699376D01*
X89339099Y-115629496D01*
X89490928Y-115528048D01*
X89535000Y-115483976D01*
X89579072Y-115528048D01*
X89730901Y-115629496D01*
X89899604Y-115699376D01*
X90078699Y-115735000D01*
X90261301Y-115735000D01*
X90440396Y-115699376D01*
X90609099Y-115629496D01*
X90760928Y-115528048D01*
X90805000Y-115483976D01*
X90849072Y-115528048D01*
X91000901Y-115629496D01*
X91169604Y-115699376D01*
X91348699Y-115735000D01*
X91531301Y-115735000D01*
X91710396Y-115699376D01*
X91879099Y-115629496D01*
X92030928Y-115528048D01*
X92075000Y-115483976D01*
X92119072Y-115528048D01*
X92270901Y-115629496D01*
X92439604Y-115699376D01*
X92618699Y-115735000D01*
X92801301Y-115735000D01*
X92980396Y-115699376D01*
X93149099Y-115629496D01*
X93300928Y-115528048D01*
X93345000Y-115483976D01*
X93389072Y-115528048D01*
X93540901Y-115629496D01*
X93709604Y-115699376D01*
X93888699Y-115735000D01*
X94071301Y-115735000D01*
X94250396Y-115699376D01*
X94419099Y-115629496D01*
X94570928Y-115528048D01*
X94615000Y-115483976D01*
X94659072Y-115528048D01*
X94810901Y-115629496D01*
X94979604Y-115699376D01*
X95158699Y-115735000D01*
X95341301Y-115735000D01*
X95520396Y-115699376D01*
X95689099Y-115629496D01*
X95840928Y-115528048D01*
X95885000Y-115483976D01*
X95929072Y-115528048D01*
X96080901Y-115629496D01*
X96249604Y-115699376D01*
X96428699Y-115735000D01*
X96611301Y-115735000D01*
X96790396Y-115699376D01*
X96959099Y-115629496D01*
X97110928Y-115528048D01*
X97155000Y-115483976D01*
X97199072Y-115528048D01*
X97350901Y-115629496D01*
X97519604Y-115699376D01*
X97698699Y-115735000D01*
X97881301Y-115735000D01*
X98060396Y-115699376D01*
X98229099Y-115629496D01*
X98380928Y-115528048D01*
X98425000Y-115483976D01*
X98469072Y-115528048D01*
X98620901Y-115629496D01*
X98789604Y-115699376D01*
X98968699Y-115735000D01*
X99151301Y-115735000D01*
X99330396Y-115699376D01*
X99499099Y-115629496D01*
X99650928Y-115528048D01*
X99695000Y-115483976D01*
X99739072Y-115528048D01*
X99890901Y-115629496D01*
X100059604Y-115699376D01*
X100238699Y-115735000D01*
X100421301Y-115735000D01*
X100600396Y-115699376D01*
X100769099Y-115629496D01*
X100920928Y-115528048D01*
X101050048Y-115398928D01*
X101151496Y-115247099D01*
X101221376Y-115078396D01*
X101257000Y-114899301D01*
X101257000Y-114716699D01*
X101221376Y-114537604D01*
X101151496Y-114368901D01*
X101133216Y-114341542D01*
X101133395Y-114341395D01*
X101186755Y-114276376D01*
X101226405Y-114202196D01*
X101250822Y-114121707D01*
X101259066Y-114038000D01*
X101259066Y-113038000D01*
X101250822Y-112954293D01*
X101226405Y-112873804D01*
X101186755Y-112799624D01*
X101133395Y-112734605D01*
X101068376Y-112681245D01*
X100994196Y-112641595D01*
X100913707Y-112617178D01*
X100830000Y-112608934D01*
X99830000Y-112608934D01*
X99746293Y-112617178D01*
X99665804Y-112641595D01*
X99591624Y-112681245D01*
X99526605Y-112734605D01*
X99526458Y-112734784D01*
X99499099Y-112716504D01*
X99330396Y-112646624D01*
X99151301Y-112611000D01*
X98968699Y-112611000D01*
X98789604Y-112646624D01*
X98620901Y-112716504D01*
X98469072Y-112817952D01*
X98425000Y-112862024D01*
X98380928Y-112817952D01*
X98229099Y-112716504D01*
X98060396Y-112646624D01*
X97881301Y-112611000D01*
X97698699Y-112611000D01*
X97519604Y-112646624D01*
X97350901Y-112716504D01*
X97199072Y-112817952D01*
X97155000Y-112862024D01*
X97110928Y-112817952D01*
X96959099Y-112716504D01*
X96790396Y-112646624D01*
X96611301Y-112611000D01*
X96428699Y-112611000D01*
X96249604Y-112646624D01*
X96080901Y-112716504D01*
X95929072Y-112817952D01*
X95885000Y-112862024D01*
X95840928Y-112817952D01*
X95689099Y-112716504D01*
X95520396Y-112646624D01*
X95341301Y-112611000D01*
X95158699Y-112611000D01*
X94979604Y-112646624D01*
X94810901Y-112716504D01*
X94659072Y-112817952D01*
X94615000Y-112862024D01*
X94570928Y-112817952D01*
X94419099Y-112716504D01*
X94250396Y-112646624D01*
X94071301Y-112611000D01*
X93888699Y-112611000D01*
X93709604Y-112646624D01*
X93540901Y-112716504D01*
X93389072Y-112817952D01*
X93345000Y-112862024D01*
X93300928Y-112817952D01*
X93149099Y-112716504D01*
X92980396Y-112646624D01*
X92801301Y-112611000D01*
X92618699Y-112611000D01*
X92439604Y-112646624D01*
X92270901Y-112716504D01*
X92119072Y-112817952D01*
X92075000Y-112862024D01*
X92030928Y-112817952D01*
X91879099Y-112716504D01*
X91710396Y-112646624D01*
X91531301Y-112611000D01*
X91348699Y-112611000D01*
X91169604Y-112646624D01*
X91000901Y-112716504D01*
X90849072Y-112817952D01*
X90805000Y-112862024D01*
X90760928Y-112817952D01*
X90609099Y-112716504D01*
X90440396Y-112646624D01*
X90261301Y-112611000D01*
X90078699Y-112611000D01*
X89899604Y-112646624D01*
X89730901Y-112716504D01*
X89579072Y-112817952D01*
X89535000Y-112862024D01*
X89490928Y-112817952D01*
X89339099Y-112716504D01*
X89170396Y-112646624D01*
X88991301Y-112611000D01*
X88808699Y-112611000D01*
X88629604Y-112646624D01*
X88460901Y-112716504D01*
X88309072Y-112817952D01*
X88265000Y-112862024D01*
X88220928Y-112817952D01*
X88069099Y-112716504D01*
X87900396Y-112646624D01*
X87721301Y-112611000D01*
X87538699Y-112611000D01*
X87359604Y-112646624D01*
X87190901Y-112716504D01*
X87039072Y-112817952D01*
X86995000Y-112862024D01*
X86950928Y-112817952D01*
X86799099Y-112716504D01*
X86630396Y-112646624D01*
X86451301Y-112611000D01*
X86268699Y-112611000D01*
X86089604Y-112646624D01*
X85920901Y-112716504D01*
X85769072Y-112817952D01*
X85725000Y-112862024D01*
X85680928Y-112817952D01*
X85529099Y-112716504D01*
X85360396Y-112646624D01*
X85181301Y-112611000D01*
X84998699Y-112611000D01*
X84819604Y-112646624D01*
X84650901Y-112716504D01*
X84499072Y-112817952D01*
X84455000Y-112862024D01*
X84410928Y-112817952D01*
X84259099Y-112716504D01*
X84090396Y-112646624D01*
X83911301Y-112611000D01*
X83728699Y-112611000D01*
X83549604Y-112646624D01*
X83380901Y-112716504D01*
X83229072Y-112817952D01*
X83185000Y-112862024D01*
X83140928Y-112817952D01*
X82989099Y-112716504D01*
X82820396Y-112646624D01*
X82641301Y-112611000D01*
X82458699Y-112611000D01*
X82279604Y-112646624D01*
X82110901Y-112716504D01*
X81959072Y-112817952D01*
X81915000Y-112862024D01*
X81870928Y-112817952D01*
X81719099Y-112716504D01*
X81550396Y-112646624D01*
X81371301Y-112611000D01*
X81188699Y-112611000D01*
X81009604Y-112646624D01*
X80840901Y-112716504D01*
X80689072Y-112817952D01*
X80645000Y-112862024D01*
X80600928Y-112817952D01*
X80449099Y-112716504D01*
X80280396Y-112646624D01*
X80101301Y-112611000D01*
X79918699Y-112611000D01*
X79739604Y-112646624D01*
X79570901Y-112716504D01*
X79419072Y-112817952D01*
X79289952Y-112947072D01*
X79188504Y-113098901D01*
X79118624Y-113267604D01*
X79083000Y-113446699D01*
X52760184Y-113446699D01*
X53044391Y-113256799D01*
X53312799Y-112988391D01*
X53523685Y-112672777D01*
X53668947Y-112322085D01*
X53695906Y-112186548D01*
X62927000Y-112186548D01*
X62927000Y-112349452D01*
X62958782Y-112509227D01*
X63021123Y-112659731D01*
X63111628Y-112795181D01*
X63226819Y-112910372D01*
X63362269Y-113000877D01*
X63512773Y-113063218D01*
X63672548Y-113095000D01*
X63835452Y-113095000D01*
X63995227Y-113063218D01*
X64145731Y-113000877D01*
X64281181Y-112910372D01*
X64396372Y-112795181D01*
X64486877Y-112659731D01*
X64549218Y-112509227D01*
X64581000Y-112349452D01*
X64581000Y-112186548D01*
X64549218Y-112026773D01*
X64537128Y-111997584D01*
X125215000Y-111997584D01*
X125215000Y-112426416D01*
X125298660Y-112847008D01*
X125462767Y-113243196D01*
X125701013Y-113599757D01*
X126004243Y-113902987D01*
X126360804Y-114141233D01*
X126756992Y-114305340D01*
X127177584Y-114389000D01*
X127606416Y-114389000D01*
X128027008Y-114305340D01*
X128423196Y-114141233D01*
X128779757Y-113902987D01*
X129082987Y-113599757D01*
X129321233Y-113243196D01*
X129485340Y-112847008D01*
X129569000Y-112426416D01*
X129569000Y-111997584D01*
X129485340Y-111576992D01*
X129321233Y-111180804D01*
X129082987Y-110824243D01*
X128779757Y-110521013D01*
X128423196Y-110282767D01*
X128027008Y-110118660D01*
X127606416Y-110035000D01*
X127177584Y-110035000D01*
X126756992Y-110118660D01*
X126360804Y-110282767D01*
X126004243Y-110521013D01*
X125701013Y-110824243D01*
X125462767Y-111180804D01*
X125298660Y-111576992D01*
X125215000Y-111997584D01*
X64537128Y-111997584D01*
X64486877Y-111876269D01*
X64396372Y-111740819D01*
X64281181Y-111625628D01*
X64145731Y-111535123D01*
X63995227Y-111472782D01*
X63835452Y-111441000D01*
X63672548Y-111441000D01*
X63512773Y-111472782D01*
X63362269Y-111535123D01*
X63226819Y-111625628D01*
X63111628Y-111740819D01*
X63021123Y-111876269D01*
X62958782Y-112026773D01*
X62927000Y-112186548D01*
X53695906Y-112186548D01*
X53743000Y-111949793D01*
X53743000Y-111570207D01*
X53668947Y-111197915D01*
X53523685Y-110847223D01*
X53312799Y-110531609D01*
X53044391Y-110263201D01*
X52728777Y-110052315D01*
X52378085Y-109907053D01*
X52005793Y-109833000D01*
X51626207Y-109833000D01*
X51253915Y-109907053D01*
X50903223Y-110052315D01*
X50587609Y-110263201D01*
X50319201Y-110531609D01*
X50108315Y-110847223D01*
X49963053Y-111197915D01*
X49889000Y-111570207D01*
X47452000Y-111570207D01*
X47452000Y-109443417D01*
X78644330Y-109443417D01*
X78644330Y-109606321D01*
X78676112Y-109766096D01*
X78738453Y-109916600D01*
X78828958Y-110052050D01*
X78944149Y-110167241D01*
X79079599Y-110257746D01*
X79230103Y-110320087D01*
X79389878Y-110351869D01*
X79552782Y-110351869D01*
X79712557Y-110320087D01*
X79863061Y-110257746D01*
X79998511Y-110167241D01*
X80113702Y-110052050D01*
X80204207Y-109916600D01*
X80266548Y-109766096D01*
X80298330Y-109606321D01*
X80298330Y-109443417D01*
X80266548Y-109283642D01*
X80204207Y-109133138D01*
X80113702Y-108997688D01*
X79998511Y-108882497D01*
X79863061Y-108791992D01*
X79712557Y-108729651D01*
X79552782Y-108697869D01*
X79389878Y-108697869D01*
X79230103Y-108729651D01*
X79079599Y-108791992D01*
X78944149Y-108882497D01*
X78828958Y-108997688D01*
X78738453Y-109133138D01*
X78676112Y-109283642D01*
X78644330Y-109443417D01*
X47452000Y-109443417D01*
X47452000Y-105180000D01*
X49886934Y-105180000D01*
X49886934Y-108180000D01*
X49895178Y-108263707D01*
X49919595Y-108344196D01*
X49959245Y-108418376D01*
X50012605Y-108483395D01*
X50077624Y-108536755D01*
X50151804Y-108576405D01*
X50232293Y-108600822D01*
X50316000Y-108609066D01*
X53316000Y-108609066D01*
X53399707Y-108600822D01*
X53480196Y-108576405D01*
X53554376Y-108536755D01*
X53619395Y-108483395D01*
X53672755Y-108418376D01*
X53712405Y-108344196D01*
X53736822Y-108263707D01*
X53745066Y-108180000D01*
X53745066Y-107106548D01*
X91883000Y-107106548D01*
X91883000Y-107269452D01*
X91914782Y-107429227D01*
X91977123Y-107579731D01*
X92067628Y-107715181D01*
X92182819Y-107830372D01*
X92318269Y-107920877D01*
X92468773Y-107983218D01*
X92628548Y-108015000D01*
X92791452Y-108015000D01*
X92951227Y-107983218D01*
X93101731Y-107920877D01*
X93237181Y-107830372D01*
X93352372Y-107715181D01*
X93442877Y-107579731D01*
X93505218Y-107429227D01*
X93537000Y-107269452D01*
X93537000Y-107106548D01*
X93505218Y-106946773D01*
X93442877Y-106796269D01*
X93352372Y-106660819D01*
X93237181Y-106545628D01*
X93101731Y-106455123D01*
X92951227Y-106392782D01*
X92791452Y-106361000D01*
X92628548Y-106361000D01*
X92468773Y-106392782D01*
X92318269Y-106455123D01*
X92182819Y-106545628D01*
X92067628Y-106660819D01*
X91977123Y-106796269D01*
X91914782Y-106946773D01*
X91883000Y-107106548D01*
X53745066Y-107106548D01*
X53745066Y-105452185D01*
X73936603Y-105452185D01*
X73936603Y-105615089D01*
X73968385Y-105774864D01*
X74030726Y-105925368D01*
X74121231Y-106060818D01*
X74236422Y-106176009D01*
X74371872Y-106266514D01*
X74522376Y-106328855D01*
X74682151Y-106360637D01*
X74845055Y-106360637D01*
X75004830Y-106328855D01*
X75155334Y-106266514D01*
X75290784Y-106176009D01*
X75405975Y-106060818D01*
X75496480Y-105925368D01*
X75558821Y-105774864D01*
X75590603Y-105615089D01*
X75590603Y-105452185D01*
X75558821Y-105292410D01*
X75496480Y-105141906D01*
X75405975Y-105006456D01*
X75290784Y-104891265D01*
X75155334Y-104800760D01*
X75004830Y-104738419D01*
X74845055Y-104706637D01*
X74682151Y-104706637D01*
X74522376Y-104738419D01*
X74371872Y-104800760D01*
X74236422Y-104891265D01*
X74121231Y-105006456D01*
X74030726Y-105141906D01*
X73968385Y-105292410D01*
X73936603Y-105452185D01*
X53745066Y-105452185D01*
X53745066Y-105180000D01*
X53736822Y-105096293D01*
X53712405Y-105015804D01*
X53672755Y-104941624D01*
X53619395Y-104876605D01*
X53554376Y-104823245D01*
X53480196Y-104783595D01*
X53399707Y-104759178D01*
X53316000Y-104750934D01*
X50316000Y-104750934D01*
X50232293Y-104759178D01*
X50151804Y-104783595D01*
X50077624Y-104823245D01*
X50012605Y-104876605D01*
X49959245Y-104941624D01*
X49919595Y-105015804D01*
X49895178Y-105096293D01*
X49886934Y-105180000D01*
X47452000Y-105180000D01*
X47452000Y-100629548D01*
X75627000Y-100629548D01*
X75627000Y-100792452D01*
X75658782Y-100952227D01*
X75721123Y-101102731D01*
X75811628Y-101238181D01*
X75926819Y-101353372D01*
X76062269Y-101443877D01*
X76212773Y-101506218D01*
X76372548Y-101538000D01*
X76535452Y-101538000D01*
X76695227Y-101506218D01*
X76845731Y-101443877D01*
X76981181Y-101353372D01*
X77096372Y-101238181D01*
X77186877Y-101102731D01*
X77249218Y-100952227D01*
X77281000Y-100792452D01*
X77281000Y-100629548D01*
X77249218Y-100469773D01*
X77186877Y-100319269D01*
X77096372Y-100183819D01*
X76981181Y-100068628D01*
X76845731Y-99978123D01*
X76695227Y-99915782D01*
X76535452Y-99884000D01*
X76372548Y-99884000D01*
X76212773Y-99915782D01*
X76062269Y-99978123D01*
X75926819Y-100068628D01*
X75811628Y-100183819D01*
X75721123Y-100319269D01*
X75658782Y-100469773D01*
X75627000Y-100629548D01*
X47452000Y-100629548D01*
X47452000Y-97753548D01*
X74611000Y-97753548D01*
X74611000Y-97916452D01*
X74642782Y-98076227D01*
X74705123Y-98226731D01*
X74795628Y-98362181D01*
X74910819Y-98477372D01*
X75046269Y-98567877D01*
X75196773Y-98630218D01*
X75356548Y-98662000D01*
X75519452Y-98662000D01*
X75679227Y-98630218D01*
X75829731Y-98567877D01*
X75965181Y-98477372D01*
X76080372Y-98362181D01*
X76170877Y-98226731D01*
X76233218Y-98076227D01*
X76255830Y-97962548D01*
X94423000Y-97962548D01*
X94423000Y-98125452D01*
X94454782Y-98285227D01*
X94517123Y-98435731D01*
X94594812Y-98552000D01*
X94517123Y-98668269D01*
X94454782Y-98818773D01*
X94423000Y-98978548D01*
X94423000Y-99141452D01*
X94454782Y-99301227D01*
X94517123Y-99451731D01*
X94607628Y-99587181D01*
X94722819Y-99702372D01*
X94858269Y-99792877D01*
X95008773Y-99855218D01*
X95168548Y-99887000D01*
X95331452Y-99887000D01*
X95491227Y-99855218D01*
X95641731Y-99792877D01*
X95777181Y-99702372D01*
X95892372Y-99587181D01*
X95982877Y-99451731D01*
X95989417Y-99435940D01*
X102273000Y-99435940D01*
X102273000Y-100564060D01*
X102493085Y-101670504D01*
X102924798Y-102712752D01*
X103551548Y-103650750D01*
X104349250Y-104448452D01*
X105287248Y-105075202D01*
X106329496Y-105506915D01*
X107435940Y-105727000D01*
X108564060Y-105727000D01*
X109670504Y-105506915D01*
X110712752Y-105075202D01*
X111650750Y-104448452D01*
X112007202Y-104092000D01*
X121402934Y-104092000D01*
X121402934Y-105792000D01*
X121411178Y-105875707D01*
X121435595Y-105956196D01*
X121475245Y-106030376D01*
X121528605Y-106095395D01*
X121593624Y-106148755D01*
X121667804Y-106188405D01*
X121748293Y-106212822D01*
X121832000Y-106221066D01*
X122292633Y-106221066D01*
X122077114Y-106310337D01*
X121867960Y-106450089D01*
X121690089Y-106627960D01*
X121550337Y-106837114D01*
X121454074Y-107069513D01*
X121405000Y-107316226D01*
X121405000Y-107567774D01*
X121454074Y-107814487D01*
X121550337Y-108046886D01*
X121690089Y-108256040D01*
X121867960Y-108433911D01*
X122077114Y-108573663D01*
X122309513Y-108669926D01*
X122556226Y-108719000D01*
X122807774Y-108719000D01*
X123054487Y-108669926D01*
X123286886Y-108573663D01*
X123496040Y-108433911D01*
X123673911Y-108256040D01*
X123682000Y-108243934D01*
X123690089Y-108256040D01*
X123867960Y-108433911D01*
X124077114Y-108573663D01*
X124309513Y-108669926D01*
X124556226Y-108719000D01*
X124807774Y-108719000D01*
X125054487Y-108669926D01*
X125286886Y-108573663D01*
X125496040Y-108433911D01*
X125673911Y-108256040D01*
X125813663Y-108046886D01*
X125909926Y-107814487D01*
X125959000Y-107567774D01*
X125959000Y-107316226D01*
X125909926Y-107069513D01*
X125813663Y-106837114D01*
X125673911Y-106627960D01*
X125496040Y-106450089D01*
X125286886Y-106310337D01*
X125277525Y-106306460D01*
X125315747Y-106292919D01*
X125453157Y-106219472D01*
X125530792Y-105970397D01*
X124682000Y-105121605D01*
X124667858Y-105135748D01*
X124488253Y-104956143D01*
X124502395Y-104942000D01*
X124861605Y-104942000D01*
X125710397Y-105790792D01*
X125959472Y-105713157D01*
X126085371Y-105449117D01*
X126157339Y-105165589D01*
X126172611Y-104873469D01*
X126130599Y-104583981D01*
X126032919Y-104308253D01*
X125959472Y-104170843D01*
X125710397Y-104093208D01*
X124861605Y-104942000D01*
X124502395Y-104942000D01*
X124488253Y-104927858D01*
X124667858Y-104748253D01*
X124682000Y-104762395D01*
X125530792Y-103913603D01*
X125453157Y-103664528D01*
X125189117Y-103538629D01*
X124905589Y-103466661D01*
X124613469Y-103451389D01*
X124323981Y-103493401D01*
X124048253Y-103591081D01*
X123910843Y-103664528D01*
X123862047Y-103821080D01*
X123835395Y-103788605D01*
X123770376Y-103735245D01*
X123696196Y-103695595D01*
X123615707Y-103671178D01*
X123532000Y-103662934D01*
X121832000Y-103662934D01*
X121748293Y-103671178D01*
X121667804Y-103695595D01*
X121593624Y-103735245D01*
X121528605Y-103788605D01*
X121475245Y-103853624D01*
X121435595Y-103927804D01*
X121411178Y-104008293D01*
X121402934Y-104092000D01*
X112007202Y-104092000D01*
X112448452Y-103650750D01*
X113075202Y-102712752D01*
X113506915Y-101670504D01*
X113727000Y-100564060D01*
X113727000Y-99957584D01*
X125215000Y-99957584D01*
X125215000Y-100386416D01*
X125298660Y-100807008D01*
X125462767Y-101203196D01*
X125701013Y-101559757D01*
X126004243Y-101862987D01*
X126360804Y-102101233D01*
X126756992Y-102265340D01*
X127177584Y-102349000D01*
X127606416Y-102349000D01*
X128027008Y-102265340D01*
X128423196Y-102101233D01*
X128779757Y-101862987D01*
X129082987Y-101559757D01*
X129321233Y-101203196D01*
X129485340Y-100807008D01*
X129569000Y-100386416D01*
X129569000Y-99957584D01*
X129485340Y-99536992D01*
X129321233Y-99140804D01*
X129082987Y-98784243D01*
X128779757Y-98481013D01*
X128423196Y-98242767D01*
X128027008Y-98078660D01*
X127606416Y-97995000D01*
X127177584Y-97995000D01*
X126756992Y-98078660D01*
X126360804Y-98242767D01*
X126004243Y-98481013D01*
X125701013Y-98784243D01*
X125462767Y-99140804D01*
X125298660Y-99536992D01*
X125215000Y-99957584D01*
X113727000Y-99957584D01*
X113727000Y-99435940D01*
X113506915Y-98329496D01*
X113075202Y-97287248D01*
X112448452Y-96349250D01*
X111650750Y-95551548D01*
X110712752Y-94924798D01*
X109670504Y-94493085D01*
X108564060Y-94273000D01*
X107435940Y-94273000D01*
X106329496Y-94493085D01*
X105287248Y-94924798D01*
X104349250Y-95551548D01*
X103551548Y-96349250D01*
X102924798Y-97287248D01*
X102493085Y-98329496D01*
X102273000Y-99435940D01*
X95989417Y-99435940D01*
X96045218Y-99301227D01*
X96077000Y-99141452D01*
X96077000Y-98978548D01*
X96045218Y-98818773D01*
X95982877Y-98668269D01*
X95905188Y-98552000D01*
X95982877Y-98435731D01*
X96045218Y-98285227D01*
X96077000Y-98125452D01*
X96077000Y-97962548D01*
X96045218Y-97802773D01*
X95982877Y-97652269D01*
X95912632Y-97547140D01*
X95995528Y-97423077D01*
X96057869Y-97272573D01*
X96089651Y-97112798D01*
X96089651Y-96949894D01*
X96057869Y-96790119D01*
X95995528Y-96639615D01*
X95905023Y-96504165D01*
X95789832Y-96388974D01*
X95654382Y-96298469D01*
X95503878Y-96236128D01*
X95344103Y-96204346D01*
X95181199Y-96204346D01*
X95021424Y-96236128D01*
X94870920Y-96298469D01*
X94735470Y-96388974D01*
X94620279Y-96504165D01*
X94529774Y-96639615D01*
X94467433Y-96790119D01*
X94435651Y-96949894D01*
X94435651Y-97112798D01*
X94467433Y-97272573D01*
X94529774Y-97423077D01*
X94600019Y-97528206D01*
X94517123Y-97652269D01*
X94454782Y-97802773D01*
X94423000Y-97962548D01*
X76255830Y-97962548D01*
X76265000Y-97916452D01*
X76265000Y-97753548D01*
X76233218Y-97593773D01*
X76170877Y-97443269D01*
X76080372Y-97307819D01*
X75965181Y-97192628D01*
X75829731Y-97102123D01*
X75679227Y-97039782D01*
X75519452Y-97008000D01*
X75356548Y-97008000D01*
X75196773Y-97039782D01*
X75046269Y-97102123D01*
X74910819Y-97192628D01*
X74795628Y-97307819D01*
X74705123Y-97443269D01*
X74642782Y-97593773D01*
X74611000Y-97753548D01*
X47452000Y-97753548D01*
X47452000Y-90435940D01*
X49273000Y-90435940D01*
X49273000Y-91564060D01*
X49493085Y-92670504D01*
X49924798Y-93712752D01*
X50551548Y-94650750D01*
X51349250Y-95448452D01*
X52287248Y-96075202D01*
X53329496Y-96506915D01*
X54435940Y-96727000D01*
X55564060Y-96727000D01*
X56670504Y-96506915D01*
X57712752Y-96075202D01*
X58650750Y-95448452D01*
X59184654Y-94914548D01*
X74611000Y-94914548D01*
X74611000Y-95077452D01*
X74642782Y-95237227D01*
X74705123Y-95387731D01*
X74795628Y-95523181D01*
X74910819Y-95638372D01*
X75046269Y-95728877D01*
X75196773Y-95791218D01*
X75356548Y-95823000D01*
X75519452Y-95823000D01*
X75679227Y-95791218D01*
X75829731Y-95728877D01*
X75965181Y-95638372D01*
X76080372Y-95523181D01*
X76170877Y-95387731D01*
X76233218Y-95237227D01*
X76265000Y-95077452D01*
X76265000Y-94914548D01*
X76233218Y-94754773D01*
X76170877Y-94604269D01*
X76123631Y-94533560D01*
X84314443Y-94533560D01*
X84314443Y-94696464D01*
X84346225Y-94856239D01*
X84408566Y-95006743D01*
X84499071Y-95142193D01*
X84614262Y-95257384D01*
X84749712Y-95347889D01*
X84900216Y-95410230D01*
X85059991Y-95442012D01*
X85222895Y-95442012D01*
X85382670Y-95410230D01*
X85533174Y-95347889D01*
X85641567Y-95275463D01*
X85749713Y-95347724D01*
X85900217Y-95410065D01*
X86059992Y-95441847D01*
X86222896Y-95441847D01*
X86382671Y-95410065D01*
X86533175Y-95347724D01*
X86640189Y-95276219D01*
X86749713Y-95349401D01*
X86900217Y-95411742D01*
X87059992Y-95443524D01*
X87222896Y-95443524D01*
X87382671Y-95411742D01*
X87533175Y-95349401D01*
X87652002Y-95270003D01*
X87749615Y-95335226D01*
X87900119Y-95397567D01*
X88059894Y-95429349D01*
X88222798Y-95429349D01*
X88382573Y-95397567D01*
X88533077Y-95335226D01*
X88638206Y-95264981D01*
X88762269Y-95347877D01*
X88912773Y-95410218D01*
X89072548Y-95442000D01*
X89235452Y-95442000D01*
X89395227Y-95410218D01*
X89545731Y-95347877D01*
X89681181Y-95257372D01*
X89796372Y-95142181D01*
X89886877Y-95006731D01*
X89949218Y-94856227D01*
X89981000Y-94696452D01*
X89981000Y-94533548D01*
X89949218Y-94373773D01*
X89886877Y-94223269D01*
X89796372Y-94087819D01*
X89681181Y-93972628D01*
X89545731Y-93882123D01*
X89395227Y-93819782D01*
X89235452Y-93788000D01*
X89072548Y-93788000D01*
X88912773Y-93819782D01*
X88762269Y-93882123D01*
X88657140Y-93952368D01*
X88533077Y-93869472D01*
X88382573Y-93807131D01*
X88222798Y-93775349D01*
X88059894Y-93775349D01*
X87900119Y-93807131D01*
X87749615Y-93869472D01*
X87630788Y-93948870D01*
X87533175Y-93883647D01*
X87382671Y-93821306D01*
X87222896Y-93789524D01*
X87059992Y-93789524D01*
X86900217Y-93821306D01*
X86749713Y-93883647D01*
X86642699Y-93955152D01*
X86533175Y-93881970D01*
X86382671Y-93819629D01*
X86222896Y-93787847D01*
X86059992Y-93787847D01*
X85900217Y-93819629D01*
X85749713Y-93881970D01*
X85641320Y-93954396D01*
X85533174Y-93882135D01*
X85382670Y-93819794D01*
X85222895Y-93788012D01*
X85059991Y-93788012D01*
X84900216Y-93819794D01*
X84749712Y-93882135D01*
X84614262Y-93972640D01*
X84499071Y-94087831D01*
X84408566Y-94223281D01*
X84346225Y-94373785D01*
X84314443Y-94533560D01*
X76123631Y-94533560D01*
X76080372Y-94468819D01*
X75965181Y-94353628D01*
X75829731Y-94263123D01*
X75679227Y-94200782D01*
X75519452Y-94169000D01*
X75356548Y-94169000D01*
X75196773Y-94200782D01*
X75046269Y-94263123D01*
X74910819Y-94353628D01*
X74795628Y-94468819D01*
X74705123Y-94604269D01*
X74642782Y-94754773D01*
X74611000Y-94914548D01*
X59184654Y-94914548D01*
X59448452Y-94650750D01*
X60075202Y-93712752D01*
X60419083Y-92882548D01*
X82485000Y-92882548D01*
X82485000Y-93045452D01*
X82516782Y-93205227D01*
X82579123Y-93355731D01*
X82669628Y-93491181D01*
X82784819Y-93606372D01*
X82920269Y-93696877D01*
X83070773Y-93759218D01*
X83230548Y-93791000D01*
X83393452Y-93791000D01*
X83491241Y-93771548D01*
X90994000Y-93771548D01*
X90994000Y-93934452D01*
X91025782Y-94094227D01*
X91088123Y-94244731D01*
X91178628Y-94380181D01*
X91222947Y-94424500D01*
X91183281Y-94464166D01*
X91092776Y-94599616D01*
X91030435Y-94750120D01*
X90998653Y-94909895D01*
X90998653Y-95072799D01*
X91030435Y-95232574D01*
X91092776Y-95383078D01*
X91169693Y-95498192D01*
X91088123Y-95620269D01*
X91025782Y-95770773D01*
X90994000Y-95930548D01*
X90994000Y-96093452D01*
X91025782Y-96253227D01*
X91088123Y-96403731D01*
X91178628Y-96539181D01*
X91293819Y-96654372D01*
X91429269Y-96744877D01*
X91579773Y-96807218D01*
X91739548Y-96839000D01*
X91902452Y-96839000D01*
X92062227Y-96807218D01*
X92212731Y-96744877D01*
X92348181Y-96654372D01*
X92463372Y-96539181D01*
X92553877Y-96403731D01*
X92616218Y-96253227D01*
X92648000Y-96093452D01*
X92648000Y-95930548D01*
X92616218Y-95770773D01*
X92553877Y-95620269D01*
X92476960Y-95505155D01*
X92558530Y-95383078D01*
X92620871Y-95232574D01*
X92652653Y-95072799D01*
X92652653Y-94909895D01*
X92620871Y-94750120D01*
X92558530Y-94599616D01*
X92468025Y-94464166D01*
X92423706Y-94419847D01*
X92463372Y-94380181D01*
X92553877Y-94244731D01*
X92616218Y-94094227D01*
X92648000Y-93934452D01*
X92648000Y-93771548D01*
X92616218Y-93611773D01*
X92553877Y-93461269D01*
X92463372Y-93325819D01*
X92348181Y-93210628D01*
X92212731Y-93120123D01*
X92062227Y-93057782D01*
X91902452Y-93026000D01*
X91739548Y-93026000D01*
X91579773Y-93057782D01*
X91429269Y-93120123D01*
X91293819Y-93210628D01*
X91178628Y-93325819D01*
X91088123Y-93461269D01*
X91025782Y-93611773D01*
X90994000Y-93771548D01*
X83491241Y-93771548D01*
X83553227Y-93759218D01*
X83703731Y-93696877D01*
X83839181Y-93606372D01*
X83954372Y-93491181D01*
X84044877Y-93355731D01*
X84107218Y-93205227D01*
X84139000Y-93045452D01*
X84139000Y-92882548D01*
X84107218Y-92722773D01*
X84044877Y-92572269D01*
X83954372Y-92436819D01*
X83839181Y-92321628D01*
X83703731Y-92231123D01*
X83553227Y-92168782D01*
X83393452Y-92137000D01*
X83230548Y-92137000D01*
X83070773Y-92168782D01*
X82920269Y-92231123D01*
X82784819Y-92321628D01*
X82669628Y-92436819D01*
X82579123Y-92572269D01*
X82516782Y-92722773D01*
X82485000Y-92882548D01*
X60419083Y-92882548D01*
X60506915Y-92670504D01*
X60727000Y-91564060D01*
X60727000Y-91358548D01*
X94169000Y-91358548D01*
X94169000Y-91521452D01*
X94200782Y-91681227D01*
X94263123Y-91831731D01*
X94353628Y-91967181D01*
X94468819Y-92082372D01*
X94604269Y-92172877D01*
X94754773Y-92235218D01*
X94914548Y-92267000D01*
X95077452Y-92267000D01*
X95237227Y-92235218D01*
X95387731Y-92172877D01*
X95523181Y-92082372D01*
X95638372Y-91967181D01*
X95728877Y-91831731D01*
X95791218Y-91681227D01*
X95823000Y-91521452D01*
X95823000Y-91358548D01*
X95791218Y-91198773D01*
X95728877Y-91048269D01*
X95638372Y-90912819D01*
X95523181Y-90797628D01*
X95387731Y-90707123D01*
X95237227Y-90644782D01*
X95077452Y-90613000D01*
X94914548Y-90613000D01*
X94754773Y-90644782D01*
X94604269Y-90707123D01*
X94468819Y-90797628D01*
X94353628Y-90912819D01*
X94263123Y-91048269D01*
X94200782Y-91198773D01*
X94169000Y-91358548D01*
X60727000Y-91358548D01*
X60727000Y-90435940D01*
X60657900Y-90088548D01*
X109536000Y-90088548D01*
X109536000Y-90251452D01*
X109567782Y-90411227D01*
X109630123Y-90561731D01*
X109720628Y-90697181D01*
X109835819Y-90812372D01*
X109971269Y-90902877D01*
X110121773Y-90965218D01*
X110281548Y-90997000D01*
X110444452Y-90997000D01*
X110604227Y-90965218D01*
X110754731Y-90902877D01*
X110890181Y-90812372D01*
X111005372Y-90697181D01*
X111095877Y-90561731D01*
X111158218Y-90411227D01*
X111190000Y-90251452D01*
X111190000Y-90088548D01*
X111158218Y-89928773D01*
X111095877Y-89778269D01*
X111005372Y-89642819D01*
X110890181Y-89527628D01*
X110754731Y-89437123D01*
X110604227Y-89374782D01*
X110444452Y-89343000D01*
X110281548Y-89343000D01*
X110121773Y-89374782D01*
X109971269Y-89437123D01*
X109835819Y-89527628D01*
X109720628Y-89642819D01*
X109630123Y-89778269D01*
X109567782Y-89928773D01*
X109536000Y-90088548D01*
X60657900Y-90088548D01*
X60506915Y-89329496D01*
X60143194Y-88451395D01*
X86906847Y-88451395D01*
X86906847Y-88614299D01*
X86938629Y-88774074D01*
X87000970Y-88924578D01*
X87091475Y-89060028D01*
X87206666Y-89175219D01*
X87342116Y-89265724D01*
X87492620Y-89328065D01*
X87652395Y-89359847D01*
X87815299Y-89359847D01*
X87975074Y-89328065D01*
X88125578Y-89265724D01*
X88261028Y-89175219D01*
X88376219Y-89060028D01*
X88466724Y-88924578D01*
X88529065Y-88774074D01*
X88560847Y-88614299D01*
X88560847Y-88451395D01*
X88529065Y-88291620D01*
X88466724Y-88141116D01*
X88376219Y-88005666D01*
X88261028Y-87890475D01*
X88125578Y-87799970D01*
X87975074Y-87737629D01*
X87815299Y-87705847D01*
X87652395Y-87705847D01*
X87492620Y-87737629D01*
X87342116Y-87799970D01*
X87206666Y-87890475D01*
X87091475Y-88005666D01*
X87000970Y-88141116D01*
X86938629Y-88291620D01*
X86906847Y-88451395D01*
X60143194Y-88451395D01*
X60075202Y-88287248D01*
X59448452Y-87349250D01*
X59393750Y-87294548D01*
X78421000Y-87294548D01*
X78421000Y-87457452D01*
X78452782Y-87617227D01*
X78515123Y-87767731D01*
X78605628Y-87903181D01*
X78720819Y-88018372D01*
X78856269Y-88108877D01*
X79006773Y-88171218D01*
X79166548Y-88203000D01*
X79329452Y-88203000D01*
X79489227Y-88171218D01*
X79639731Y-88108877D01*
X79775181Y-88018372D01*
X79890372Y-87903181D01*
X79980877Y-87767731D01*
X80043218Y-87617227D01*
X80075000Y-87457452D01*
X80075000Y-87294548D01*
X80043218Y-87134773D01*
X79980877Y-86984269D01*
X79890372Y-86848819D01*
X79775181Y-86733628D01*
X79639731Y-86643123D01*
X79489227Y-86580782D01*
X79329452Y-86549000D01*
X79166548Y-86549000D01*
X79006773Y-86580782D01*
X78856269Y-86643123D01*
X78720819Y-86733628D01*
X78605628Y-86848819D01*
X78515123Y-86984269D01*
X78452782Y-87134773D01*
X78421000Y-87294548D01*
X59393750Y-87294548D01*
X58650750Y-86551548D01*
X57712752Y-85924798D01*
X56670504Y-85493085D01*
X55564060Y-85273000D01*
X54435940Y-85273000D01*
X53329496Y-85493085D01*
X52287248Y-85924798D01*
X51349250Y-86551548D01*
X50551548Y-87349250D01*
X49924798Y-88287248D01*
X49493085Y-89329496D01*
X49273000Y-90435940D01*
X47452000Y-90435940D01*
X47452000Y-85135548D01*
X117029000Y-85135548D01*
X117029000Y-85298452D01*
X117060782Y-85458227D01*
X117123123Y-85608731D01*
X117213628Y-85744181D01*
X117328819Y-85859372D01*
X117464269Y-85949877D01*
X117614773Y-86012218D01*
X117774548Y-86044000D01*
X117937452Y-86044000D01*
X118097227Y-86012218D01*
X118247731Y-85949877D01*
X118383181Y-85859372D01*
X118491000Y-85751553D01*
X118598819Y-85859372D01*
X118734269Y-85949877D01*
X118884773Y-86012218D01*
X119044548Y-86044000D01*
X119207452Y-86044000D01*
X119367227Y-86012218D01*
X119517731Y-85949877D01*
X119653181Y-85859372D01*
X119761000Y-85751553D01*
X119868819Y-85859372D01*
X120004269Y-85949877D01*
X120154773Y-86012218D01*
X120314548Y-86044000D01*
X120477452Y-86044000D01*
X120637227Y-86012218D01*
X120787731Y-85949877D01*
X120923181Y-85859372D01*
X121038372Y-85744181D01*
X121094500Y-85660180D01*
X121150628Y-85744181D01*
X121258447Y-85852000D01*
X121150628Y-85959819D01*
X121060123Y-86095269D01*
X120997782Y-86245773D01*
X120966000Y-86405548D01*
X120966000Y-86568452D01*
X120997782Y-86728227D01*
X121060123Y-86878731D01*
X121150628Y-87014181D01*
X121258447Y-87122000D01*
X121150628Y-87229819D01*
X121060123Y-87365269D01*
X120997782Y-87515773D01*
X120966000Y-87675548D01*
X120966000Y-87838452D01*
X120997782Y-87998227D01*
X121060123Y-88148731D01*
X121150628Y-88284181D01*
X121258447Y-88392000D01*
X121150628Y-88499819D01*
X121094500Y-88583820D01*
X121038372Y-88499819D01*
X120923181Y-88384628D01*
X120787731Y-88294123D01*
X120637227Y-88231782D01*
X120477452Y-88200000D01*
X120314548Y-88200000D01*
X120154773Y-88231782D01*
X120004269Y-88294123D01*
X119868819Y-88384628D01*
X119761000Y-88492447D01*
X119653181Y-88384628D01*
X119517731Y-88294123D01*
X119367227Y-88231782D01*
X119207452Y-88200000D01*
X119044548Y-88200000D01*
X118884773Y-88231782D01*
X118734269Y-88294123D01*
X118598819Y-88384628D01*
X118491000Y-88492447D01*
X118383181Y-88384628D01*
X118247731Y-88294123D01*
X118097227Y-88231782D01*
X117937452Y-88200000D01*
X117774548Y-88200000D01*
X117614773Y-88231782D01*
X117464269Y-88294123D01*
X117328819Y-88384628D01*
X117213628Y-88499819D01*
X117123123Y-88635269D01*
X117060782Y-88785773D01*
X117029000Y-88945548D01*
X117029000Y-89108452D01*
X117060782Y-89268227D01*
X117123123Y-89418731D01*
X117213628Y-89554181D01*
X117328819Y-89669372D01*
X117464269Y-89759877D01*
X117614773Y-89822218D01*
X117774548Y-89854000D01*
X117937452Y-89854000D01*
X118097227Y-89822218D01*
X118247731Y-89759877D01*
X118383181Y-89669372D01*
X118491000Y-89561553D01*
X118598819Y-89669372D01*
X118734269Y-89759877D01*
X118884773Y-89822218D01*
X119044548Y-89854000D01*
X119207452Y-89854000D01*
X119367227Y-89822218D01*
X119517731Y-89759877D01*
X119653181Y-89669372D01*
X119761000Y-89561553D01*
X119868819Y-89669372D01*
X120004269Y-89759877D01*
X120154773Y-89822218D01*
X120314548Y-89854000D01*
X120477452Y-89854000D01*
X120637227Y-89822218D01*
X120787731Y-89759877D01*
X120923181Y-89669372D01*
X121038372Y-89554181D01*
X121094500Y-89470180D01*
X121150628Y-89554181D01*
X121265819Y-89669372D01*
X121401269Y-89759877D01*
X121551773Y-89822218D01*
X121711548Y-89854000D01*
X121874452Y-89854000D01*
X122034227Y-89822218D01*
X122184731Y-89759877D01*
X122320181Y-89669372D01*
X122435372Y-89554181D01*
X122525877Y-89418731D01*
X122588218Y-89268227D01*
X122620000Y-89108452D01*
X122620000Y-88945548D01*
X122588218Y-88785773D01*
X122525877Y-88635269D01*
X122435372Y-88499819D01*
X122327553Y-88392000D01*
X122435372Y-88284181D01*
X122525877Y-88148731D01*
X122588218Y-87998227D01*
X122620000Y-87838452D01*
X122620000Y-87675548D01*
X122588218Y-87515773D01*
X122525877Y-87365269D01*
X122435372Y-87229819D01*
X122327553Y-87122000D01*
X122435372Y-87014181D01*
X122525877Y-86878731D01*
X122588218Y-86728227D01*
X122620000Y-86568452D01*
X122620000Y-86405548D01*
X122588218Y-86245773D01*
X122525877Y-86095269D01*
X122435372Y-85959819D01*
X122327553Y-85852000D01*
X122435372Y-85744181D01*
X122525877Y-85608731D01*
X122588218Y-85458227D01*
X122620000Y-85298452D01*
X122620000Y-85135548D01*
X122588218Y-84975773D01*
X122525877Y-84825269D01*
X122435372Y-84689819D01*
X122320181Y-84574628D01*
X122184731Y-84484123D01*
X122034227Y-84421782D01*
X121874452Y-84390000D01*
X121711548Y-84390000D01*
X121551773Y-84421782D01*
X121401269Y-84484123D01*
X121265819Y-84574628D01*
X121150628Y-84689819D01*
X121094500Y-84773820D01*
X121038372Y-84689819D01*
X120923181Y-84574628D01*
X120787731Y-84484123D01*
X120637227Y-84421782D01*
X120477452Y-84390000D01*
X120314548Y-84390000D01*
X120154773Y-84421782D01*
X120004269Y-84484123D01*
X119868819Y-84574628D01*
X119761000Y-84682447D01*
X119653181Y-84574628D01*
X119517731Y-84484123D01*
X119367227Y-84421782D01*
X119207452Y-84390000D01*
X119044548Y-84390000D01*
X118884773Y-84421782D01*
X118734269Y-84484123D01*
X118598819Y-84574628D01*
X118491000Y-84682447D01*
X118383181Y-84574628D01*
X118247731Y-84484123D01*
X118097227Y-84421782D01*
X117937452Y-84390000D01*
X117774548Y-84390000D01*
X117614773Y-84421782D01*
X117464269Y-84484123D01*
X117328819Y-84574628D01*
X117213628Y-84689819D01*
X117123123Y-84825269D01*
X117060782Y-84975773D01*
X117029000Y-85135548D01*
X47452000Y-85135548D01*
X47452000Y-80563548D01*
X105218000Y-80563548D01*
X105218000Y-80726452D01*
X105249782Y-80886227D01*
X105312123Y-81036731D01*
X105402628Y-81172181D01*
X105517819Y-81287372D01*
X105653269Y-81377877D01*
X105803773Y-81440218D01*
X105963548Y-81472000D01*
X106126452Y-81472000D01*
X106286227Y-81440218D01*
X106436731Y-81377877D01*
X106572181Y-81287372D01*
X106687372Y-81172181D01*
X106777877Y-81036731D01*
X106840218Y-80886227D01*
X106872000Y-80726452D01*
X106872000Y-80563548D01*
X106840218Y-80403773D01*
X106777877Y-80253269D01*
X106687372Y-80117819D01*
X106572181Y-80002628D01*
X106436731Y-79912123D01*
X106286227Y-79849782D01*
X106126452Y-79818000D01*
X105963548Y-79818000D01*
X105803773Y-79849782D01*
X105653269Y-79912123D01*
X105517819Y-80002628D01*
X105402628Y-80117819D01*
X105312123Y-80253269D01*
X105249782Y-80403773D01*
X105218000Y-80563548D01*
X47452000Y-80563548D01*
X47452000Y-78644679D01*
X124808000Y-78644679D01*
X124808000Y-78955321D01*
X124868604Y-79259994D01*
X124987481Y-79546989D01*
X125160064Y-79805279D01*
X125379721Y-80024936D01*
X125638011Y-80197519D01*
X125925006Y-80316396D01*
X126229679Y-80377000D01*
X126540321Y-80377000D01*
X126844994Y-80316396D01*
X127131989Y-80197519D01*
X127364218Y-80042349D01*
X132922256Y-80042349D01*
X133036118Y-80322090D01*
X133351296Y-80477961D01*
X133690826Y-80569349D01*
X134041661Y-80592741D01*
X134390319Y-80547240D01*
X134723400Y-80434594D01*
X134933882Y-80322090D01*
X135047744Y-80042349D01*
X133985000Y-78979605D01*
X132922256Y-80042349D01*
X127364218Y-80042349D01*
X127390279Y-80024936D01*
X127609936Y-79805279D01*
X127782519Y-79546989D01*
X127901396Y-79259994D01*
X127962000Y-78955321D01*
X127962000Y-78856661D01*
X132192259Y-78856661D01*
X132237760Y-79205319D01*
X132350406Y-79538400D01*
X132462910Y-79748882D01*
X132742651Y-79862744D01*
X133805395Y-78800000D01*
X134164605Y-78800000D01*
X135227349Y-79862744D01*
X135507090Y-79748882D01*
X135662961Y-79433704D01*
X135754349Y-79094174D01*
X135777741Y-78743339D01*
X135732240Y-78394681D01*
X135619594Y-78061600D01*
X135507090Y-77851118D01*
X135227349Y-77737256D01*
X134164605Y-78800000D01*
X133805395Y-78800000D01*
X132742651Y-77737256D01*
X132462910Y-77851118D01*
X132307039Y-78166296D01*
X132215651Y-78505826D01*
X132192259Y-78856661D01*
X127962000Y-78856661D01*
X127962000Y-78644679D01*
X127901396Y-78340006D01*
X127782519Y-78053011D01*
X127609936Y-77794721D01*
X127390279Y-77575064D01*
X127364219Y-77557651D01*
X132922256Y-77557651D01*
X133985000Y-78620395D01*
X135047744Y-77557651D01*
X134933882Y-77277910D01*
X134618704Y-77122039D01*
X134279174Y-77030651D01*
X133928339Y-77007259D01*
X133579681Y-77052760D01*
X133246600Y-77165406D01*
X133036118Y-77277910D01*
X132922256Y-77557651D01*
X127364219Y-77557651D01*
X127131989Y-77402481D01*
X126844994Y-77283604D01*
X126540321Y-77223000D01*
X126229679Y-77223000D01*
X125925006Y-77283604D01*
X125638011Y-77402481D01*
X125379721Y-77575064D01*
X125160064Y-77794721D01*
X124987481Y-78053011D01*
X124868604Y-78340006D01*
X124808000Y-78644679D01*
X47452000Y-78644679D01*
X47452000Y-76127000D01*
X137548000Y-76127000D01*
X137548001Y-118548000D01*
%TA.AperFunction,Conductor*%
D28*
G36*
X137548001Y-118548000D02*
G01*
X47452000Y-118548000D01*
X47452000Y-111570207D01*
X49889000Y-111570207D01*
X49889000Y-111949793D01*
X49963053Y-112322085D01*
X50108315Y-112672777D01*
X50319201Y-112988391D01*
X50587609Y-113256799D01*
X50903223Y-113467685D01*
X51253915Y-113612947D01*
X51626207Y-113687000D01*
X52005793Y-113687000D01*
X52378085Y-113612947D01*
X52728777Y-113467685D01*
X52760184Y-113446699D01*
X79083000Y-113446699D01*
X79083000Y-113629301D01*
X79118624Y-113808396D01*
X79188504Y-113977099D01*
X79289952Y-114128928D01*
X79334024Y-114173000D01*
X79289952Y-114217072D01*
X79188504Y-114368901D01*
X79118624Y-114537604D01*
X79083000Y-114716699D01*
X79083000Y-114899301D01*
X79118624Y-115078396D01*
X79188504Y-115247099D01*
X79289952Y-115398928D01*
X79419072Y-115528048D01*
X79570901Y-115629496D01*
X79739604Y-115699376D01*
X79918699Y-115735000D01*
X80101301Y-115735000D01*
X80280396Y-115699376D01*
X80449099Y-115629496D01*
X80600928Y-115528048D01*
X80645000Y-115483976D01*
X80689072Y-115528048D01*
X80840901Y-115629496D01*
X81009604Y-115699376D01*
X81188699Y-115735000D01*
X81371301Y-115735000D01*
X81550396Y-115699376D01*
X81719099Y-115629496D01*
X81870928Y-115528048D01*
X81915000Y-115483976D01*
X81959072Y-115528048D01*
X82110901Y-115629496D01*
X82279604Y-115699376D01*
X82458699Y-115735000D01*
X82641301Y-115735000D01*
X82820396Y-115699376D01*
X82989099Y-115629496D01*
X83140928Y-115528048D01*
X83185000Y-115483976D01*
X83229072Y-115528048D01*
X83380901Y-115629496D01*
X83549604Y-115699376D01*
X83728699Y-115735000D01*
X83911301Y-115735000D01*
X84090396Y-115699376D01*
X84259099Y-115629496D01*
X84410928Y-115528048D01*
X84455000Y-115483976D01*
X84499072Y-115528048D01*
X84650901Y-115629496D01*
X84819604Y-115699376D01*
X84998699Y-115735000D01*
X85181301Y-115735000D01*
X85360396Y-115699376D01*
X85529099Y-115629496D01*
X85561730Y-115607693D01*
X85617980Y-115666865D01*
X85799794Y-115795123D01*
X86003136Y-115885446D01*
X86058126Y-115902119D01*
X86233000Y-115775954D01*
X86233000Y-114935000D01*
X86213000Y-114935000D01*
X86213000Y-114681000D01*
X86233000Y-114681000D01*
X86233000Y-114661000D01*
X86487000Y-114661000D01*
X86487000Y-114681000D01*
X86507000Y-114681000D01*
X86507000Y-114935000D01*
X86487000Y-114935000D01*
X86487000Y-115775954D01*
X86661874Y-115902119D01*
X86716864Y-115885446D01*
X86920206Y-115795123D01*
X87102020Y-115666865D01*
X87158270Y-115607693D01*
X87190901Y-115629496D01*
X87359604Y-115699376D01*
X87538699Y-115735000D01*
X87721301Y-115735000D01*
X87900396Y-115699376D01*
X88069099Y-115629496D01*
X88220928Y-115528048D01*
X88265000Y-115483976D01*
X88309072Y-115528048D01*
X88460901Y-115629496D01*
X88629604Y-115699376D01*
X88808699Y-115735000D01*
X88991301Y-115735000D01*
X89170396Y-115699376D01*
X89339099Y-115629496D01*
X89490928Y-115528048D01*
X89535000Y-115483976D01*
X89579072Y-115528048D01*
X89730901Y-115629496D01*
X89899604Y-115699376D01*
X90078699Y-115735000D01*
X90261301Y-115735000D01*
X90440396Y-115699376D01*
X90609099Y-115629496D01*
X90760928Y-115528048D01*
X90805000Y-115483976D01*
X90849072Y-115528048D01*
X91000901Y-115629496D01*
X91169604Y-115699376D01*
X91348699Y-115735000D01*
X91531301Y-115735000D01*
X91710396Y-115699376D01*
X91879099Y-115629496D01*
X92030928Y-115528048D01*
X92075000Y-115483976D01*
X92119072Y-115528048D01*
X92270901Y-115629496D01*
X92439604Y-115699376D01*
X92618699Y-115735000D01*
X92801301Y-115735000D01*
X92980396Y-115699376D01*
X93149099Y-115629496D01*
X93300928Y-115528048D01*
X93345000Y-115483976D01*
X93389072Y-115528048D01*
X93540901Y-115629496D01*
X93709604Y-115699376D01*
X93888699Y-115735000D01*
X94071301Y-115735000D01*
X94250396Y-115699376D01*
X94419099Y-115629496D01*
X94570928Y-115528048D01*
X94615000Y-115483976D01*
X94659072Y-115528048D01*
X94810901Y-115629496D01*
X94979604Y-115699376D01*
X95158699Y-115735000D01*
X95341301Y-115735000D01*
X95520396Y-115699376D01*
X95689099Y-115629496D01*
X95840928Y-115528048D01*
X95885000Y-115483976D01*
X95929072Y-115528048D01*
X96080901Y-115629496D01*
X96249604Y-115699376D01*
X96428699Y-115735000D01*
X96611301Y-115735000D01*
X96790396Y-115699376D01*
X96959099Y-115629496D01*
X97110928Y-115528048D01*
X97155000Y-115483976D01*
X97199072Y-115528048D01*
X97350901Y-115629496D01*
X97519604Y-115699376D01*
X97698699Y-115735000D01*
X97881301Y-115735000D01*
X98060396Y-115699376D01*
X98229099Y-115629496D01*
X98380928Y-115528048D01*
X98425000Y-115483976D01*
X98469072Y-115528048D01*
X98620901Y-115629496D01*
X98789604Y-115699376D01*
X98968699Y-115735000D01*
X99151301Y-115735000D01*
X99330396Y-115699376D01*
X99499099Y-115629496D01*
X99650928Y-115528048D01*
X99695000Y-115483976D01*
X99739072Y-115528048D01*
X99890901Y-115629496D01*
X100059604Y-115699376D01*
X100238699Y-115735000D01*
X100421301Y-115735000D01*
X100600396Y-115699376D01*
X100769099Y-115629496D01*
X100920928Y-115528048D01*
X101050048Y-115398928D01*
X101151496Y-115247099D01*
X101221376Y-115078396D01*
X101257000Y-114899301D01*
X101257000Y-114716699D01*
X101221376Y-114537604D01*
X101151496Y-114368901D01*
X101133216Y-114341542D01*
X101133395Y-114341395D01*
X101186755Y-114276376D01*
X101226405Y-114202196D01*
X101250822Y-114121707D01*
X101259066Y-114038000D01*
X101259066Y-113038000D01*
X101250822Y-112954293D01*
X101226405Y-112873804D01*
X101186755Y-112799624D01*
X101133395Y-112734605D01*
X101068376Y-112681245D01*
X100994196Y-112641595D01*
X100913707Y-112617178D01*
X100830000Y-112608934D01*
X99830000Y-112608934D01*
X99746293Y-112617178D01*
X99665804Y-112641595D01*
X99591624Y-112681245D01*
X99526605Y-112734605D01*
X99526458Y-112734784D01*
X99499099Y-112716504D01*
X99330396Y-112646624D01*
X99151301Y-112611000D01*
X98968699Y-112611000D01*
X98789604Y-112646624D01*
X98620901Y-112716504D01*
X98469072Y-112817952D01*
X98425000Y-112862024D01*
X98380928Y-112817952D01*
X98229099Y-112716504D01*
X98060396Y-112646624D01*
X97881301Y-112611000D01*
X97698699Y-112611000D01*
X97519604Y-112646624D01*
X97350901Y-112716504D01*
X97199072Y-112817952D01*
X97155000Y-112862024D01*
X97110928Y-112817952D01*
X96959099Y-112716504D01*
X96790396Y-112646624D01*
X96611301Y-112611000D01*
X96428699Y-112611000D01*
X96249604Y-112646624D01*
X96080901Y-112716504D01*
X95929072Y-112817952D01*
X95885000Y-112862024D01*
X95840928Y-112817952D01*
X95689099Y-112716504D01*
X95520396Y-112646624D01*
X95341301Y-112611000D01*
X95158699Y-112611000D01*
X94979604Y-112646624D01*
X94810901Y-112716504D01*
X94659072Y-112817952D01*
X94615000Y-112862024D01*
X94570928Y-112817952D01*
X94419099Y-112716504D01*
X94250396Y-112646624D01*
X94071301Y-112611000D01*
X93888699Y-112611000D01*
X93709604Y-112646624D01*
X93540901Y-112716504D01*
X93389072Y-112817952D01*
X93345000Y-112862024D01*
X93300928Y-112817952D01*
X93149099Y-112716504D01*
X92980396Y-112646624D01*
X92801301Y-112611000D01*
X92618699Y-112611000D01*
X92439604Y-112646624D01*
X92270901Y-112716504D01*
X92119072Y-112817952D01*
X92075000Y-112862024D01*
X92030928Y-112817952D01*
X91879099Y-112716504D01*
X91710396Y-112646624D01*
X91531301Y-112611000D01*
X91348699Y-112611000D01*
X91169604Y-112646624D01*
X91000901Y-112716504D01*
X90849072Y-112817952D01*
X90805000Y-112862024D01*
X90760928Y-112817952D01*
X90609099Y-112716504D01*
X90440396Y-112646624D01*
X90261301Y-112611000D01*
X90078699Y-112611000D01*
X89899604Y-112646624D01*
X89730901Y-112716504D01*
X89579072Y-112817952D01*
X89535000Y-112862024D01*
X89490928Y-112817952D01*
X89339099Y-112716504D01*
X89170396Y-112646624D01*
X88991301Y-112611000D01*
X88808699Y-112611000D01*
X88629604Y-112646624D01*
X88460901Y-112716504D01*
X88309072Y-112817952D01*
X88265000Y-112862024D01*
X88220928Y-112817952D01*
X88069099Y-112716504D01*
X87900396Y-112646624D01*
X87721301Y-112611000D01*
X87538699Y-112611000D01*
X87359604Y-112646624D01*
X87190901Y-112716504D01*
X87039072Y-112817952D01*
X86995000Y-112862024D01*
X86950928Y-112817952D01*
X86799099Y-112716504D01*
X86630396Y-112646624D01*
X86451301Y-112611000D01*
X86268699Y-112611000D01*
X86089604Y-112646624D01*
X85920901Y-112716504D01*
X85769072Y-112817952D01*
X85725000Y-112862024D01*
X85680928Y-112817952D01*
X85529099Y-112716504D01*
X85360396Y-112646624D01*
X85181301Y-112611000D01*
X84998699Y-112611000D01*
X84819604Y-112646624D01*
X84650901Y-112716504D01*
X84499072Y-112817952D01*
X84455000Y-112862024D01*
X84410928Y-112817952D01*
X84259099Y-112716504D01*
X84090396Y-112646624D01*
X83911301Y-112611000D01*
X83728699Y-112611000D01*
X83549604Y-112646624D01*
X83380901Y-112716504D01*
X83229072Y-112817952D01*
X83185000Y-112862024D01*
X83140928Y-112817952D01*
X82989099Y-112716504D01*
X82820396Y-112646624D01*
X82641301Y-112611000D01*
X82458699Y-112611000D01*
X82279604Y-112646624D01*
X82110901Y-112716504D01*
X81959072Y-112817952D01*
X81915000Y-112862024D01*
X81870928Y-112817952D01*
X81719099Y-112716504D01*
X81550396Y-112646624D01*
X81371301Y-112611000D01*
X81188699Y-112611000D01*
X81009604Y-112646624D01*
X80840901Y-112716504D01*
X80689072Y-112817952D01*
X80645000Y-112862024D01*
X80600928Y-112817952D01*
X80449099Y-112716504D01*
X80280396Y-112646624D01*
X80101301Y-112611000D01*
X79918699Y-112611000D01*
X79739604Y-112646624D01*
X79570901Y-112716504D01*
X79419072Y-112817952D01*
X79289952Y-112947072D01*
X79188504Y-113098901D01*
X79118624Y-113267604D01*
X79083000Y-113446699D01*
X52760184Y-113446699D01*
X53044391Y-113256799D01*
X53312799Y-112988391D01*
X53523685Y-112672777D01*
X53668947Y-112322085D01*
X53695906Y-112186548D01*
X62927000Y-112186548D01*
X62927000Y-112349452D01*
X62958782Y-112509227D01*
X63021123Y-112659731D01*
X63111628Y-112795181D01*
X63226819Y-112910372D01*
X63362269Y-113000877D01*
X63512773Y-113063218D01*
X63672548Y-113095000D01*
X63835452Y-113095000D01*
X63995227Y-113063218D01*
X64145731Y-113000877D01*
X64281181Y-112910372D01*
X64396372Y-112795181D01*
X64486877Y-112659731D01*
X64549218Y-112509227D01*
X64581000Y-112349452D01*
X64581000Y-112186548D01*
X64549218Y-112026773D01*
X64537128Y-111997584D01*
X125215000Y-111997584D01*
X125215000Y-112426416D01*
X125298660Y-112847008D01*
X125462767Y-113243196D01*
X125701013Y-113599757D01*
X126004243Y-113902987D01*
X126360804Y-114141233D01*
X126756992Y-114305340D01*
X127177584Y-114389000D01*
X127606416Y-114389000D01*
X128027008Y-114305340D01*
X128423196Y-114141233D01*
X128779757Y-113902987D01*
X129082987Y-113599757D01*
X129321233Y-113243196D01*
X129485340Y-112847008D01*
X129569000Y-112426416D01*
X129569000Y-111997584D01*
X129485340Y-111576992D01*
X129321233Y-111180804D01*
X129082987Y-110824243D01*
X128779757Y-110521013D01*
X128423196Y-110282767D01*
X128027008Y-110118660D01*
X127606416Y-110035000D01*
X127177584Y-110035000D01*
X126756992Y-110118660D01*
X126360804Y-110282767D01*
X126004243Y-110521013D01*
X125701013Y-110824243D01*
X125462767Y-111180804D01*
X125298660Y-111576992D01*
X125215000Y-111997584D01*
X64537128Y-111997584D01*
X64486877Y-111876269D01*
X64396372Y-111740819D01*
X64281181Y-111625628D01*
X64145731Y-111535123D01*
X63995227Y-111472782D01*
X63835452Y-111441000D01*
X63672548Y-111441000D01*
X63512773Y-111472782D01*
X63362269Y-111535123D01*
X63226819Y-111625628D01*
X63111628Y-111740819D01*
X63021123Y-111876269D01*
X62958782Y-112026773D01*
X62927000Y-112186548D01*
X53695906Y-112186548D01*
X53743000Y-111949793D01*
X53743000Y-111570207D01*
X53668947Y-111197915D01*
X53523685Y-110847223D01*
X53312799Y-110531609D01*
X53044391Y-110263201D01*
X52728777Y-110052315D01*
X52378085Y-109907053D01*
X52005793Y-109833000D01*
X51626207Y-109833000D01*
X51253915Y-109907053D01*
X50903223Y-110052315D01*
X50587609Y-110263201D01*
X50319201Y-110531609D01*
X50108315Y-110847223D01*
X49963053Y-111197915D01*
X49889000Y-111570207D01*
X47452000Y-111570207D01*
X47452000Y-109443417D01*
X78644330Y-109443417D01*
X78644330Y-109606321D01*
X78676112Y-109766096D01*
X78738453Y-109916600D01*
X78828958Y-110052050D01*
X78944149Y-110167241D01*
X79079599Y-110257746D01*
X79230103Y-110320087D01*
X79389878Y-110351869D01*
X79552782Y-110351869D01*
X79712557Y-110320087D01*
X79863061Y-110257746D01*
X79998511Y-110167241D01*
X80113702Y-110052050D01*
X80204207Y-109916600D01*
X80266548Y-109766096D01*
X80298330Y-109606321D01*
X80298330Y-109443417D01*
X80266548Y-109283642D01*
X80204207Y-109133138D01*
X80113702Y-108997688D01*
X79998511Y-108882497D01*
X79863061Y-108791992D01*
X79712557Y-108729651D01*
X79552782Y-108697869D01*
X79389878Y-108697869D01*
X79230103Y-108729651D01*
X79079599Y-108791992D01*
X78944149Y-108882497D01*
X78828958Y-108997688D01*
X78738453Y-109133138D01*
X78676112Y-109283642D01*
X78644330Y-109443417D01*
X47452000Y-109443417D01*
X47452000Y-105180000D01*
X49886934Y-105180000D01*
X49886934Y-108180000D01*
X49895178Y-108263707D01*
X49919595Y-108344196D01*
X49959245Y-108418376D01*
X50012605Y-108483395D01*
X50077624Y-108536755D01*
X50151804Y-108576405D01*
X50232293Y-108600822D01*
X50316000Y-108609066D01*
X53316000Y-108609066D01*
X53399707Y-108600822D01*
X53480196Y-108576405D01*
X53554376Y-108536755D01*
X53619395Y-108483395D01*
X53672755Y-108418376D01*
X53712405Y-108344196D01*
X53736822Y-108263707D01*
X53745066Y-108180000D01*
X53745066Y-107106548D01*
X91883000Y-107106548D01*
X91883000Y-107269452D01*
X91914782Y-107429227D01*
X91977123Y-107579731D01*
X92067628Y-107715181D01*
X92182819Y-107830372D01*
X92318269Y-107920877D01*
X92468773Y-107983218D01*
X92628548Y-108015000D01*
X92791452Y-108015000D01*
X92951227Y-107983218D01*
X93101731Y-107920877D01*
X93237181Y-107830372D01*
X93352372Y-107715181D01*
X93442877Y-107579731D01*
X93505218Y-107429227D01*
X93537000Y-107269452D01*
X93537000Y-107106548D01*
X93505218Y-106946773D01*
X93442877Y-106796269D01*
X93352372Y-106660819D01*
X93237181Y-106545628D01*
X93101731Y-106455123D01*
X92951227Y-106392782D01*
X92791452Y-106361000D01*
X92628548Y-106361000D01*
X92468773Y-106392782D01*
X92318269Y-106455123D01*
X92182819Y-106545628D01*
X92067628Y-106660819D01*
X91977123Y-106796269D01*
X91914782Y-106946773D01*
X91883000Y-107106548D01*
X53745066Y-107106548D01*
X53745066Y-105452185D01*
X73936603Y-105452185D01*
X73936603Y-105615089D01*
X73968385Y-105774864D01*
X74030726Y-105925368D01*
X74121231Y-106060818D01*
X74236422Y-106176009D01*
X74371872Y-106266514D01*
X74522376Y-106328855D01*
X74682151Y-106360637D01*
X74845055Y-106360637D01*
X75004830Y-106328855D01*
X75155334Y-106266514D01*
X75290784Y-106176009D01*
X75405975Y-106060818D01*
X75496480Y-105925368D01*
X75558821Y-105774864D01*
X75590603Y-105615089D01*
X75590603Y-105452185D01*
X75558821Y-105292410D01*
X75496480Y-105141906D01*
X75405975Y-105006456D01*
X75290784Y-104891265D01*
X75155334Y-104800760D01*
X75004830Y-104738419D01*
X74845055Y-104706637D01*
X74682151Y-104706637D01*
X74522376Y-104738419D01*
X74371872Y-104800760D01*
X74236422Y-104891265D01*
X74121231Y-105006456D01*
X74030726Y-105141906D01*
X73968385Y-105292410D01*
X73936603Y-105452185D01*
X53745066Y-105452185D01*
X53745066Y-105180000D01*
X53736822Y-105096293D01*
X53712405Y-105015804D01*
X53672755Y-104941624D01*
X53619395Y-104876605D01*
X53554376Y-104823245D01*
X53480196Y-104783595D01*
X53399707Y-104759178D01*
X53316000Y-104750934D01*
X50316000Y-104750934D01*
X50232293Y-104759178D01*
X50151804Y-104783595D01*
X50077624Y-104823245D01*
X50012605Y-104876605D01*
X49959245Y-104941624D01*
X49919595Y-105015804D01*
X49895178Y-105096293D01*
X49886934Y-105180000D01*
X47452000Y-105180000D01*
X47452000Y-100629548D01*
X75627000Y-100629548D01*
X75627000Y-100792452D01*
X75658782Y-100952227D01*
X75721123Y-101102731D01*
X75811628Y-101238181D01*
X75926819Y-101353372D01*
X76062269Y-101443877D01*
X76212773Y-101506218D01*
X76372548Y-101538000D01*
X76535452Y-101538000D01*
X76695227Y-101506218D01*
X76845731Y-101443877D01*
X76981181Y-101353372D01*
X77096372Y-101238181D01*
X77186877Y-101102731D01*
X77249218Y-100952227D01*
X77281000Y-100792452D01*
X77281000Y-100629548D01*
X77249218Y-100469773D01*
X77186877Y-100319269D01*
X77096372Y-100183819D01*
X76981181Y-100068628D01*
X76845731Y-99978123D01*
X76695227Y-99915782D01*
X76535452Y-99884000D01*
X76372548Y-99884000D01*
X76212773Y-99915782D01*
X76062269Y-99978123D01*
X75926819Y-100068628D01*
X75811628Y-100183819D01*
X75721123Y-100319269D01*
X75658782Y-100469773D01*
X75627000Y-100629548D01*
X47452000Y-100629548D01*
X47452000Y-97753548D01*
X74611000Y-97753548D01*
X74611000Y-97916452D01*
X74642782Y-98076227D01*
X74705123Y-98226731D01*
X74795628Y-98362181D01*
X74910819Y-98477372D01*
X75046269Y-98567877D01*
X75196773Y-98630218D01*
X75356548Y-98662000D01*
X75519452Y-98662000D01*
X75679227Y-98630218D01*
X75829731Y-98567877D01*
X75965181Y-98477372D01*
X76080372Y-98362181D01*
X76170877Y-98226731D01*
X76233218Y-98076227D01*
X76255830Y-97962548D01*
X94423000Y-97962548D01*
X94423000Y-98125452D01*
X94454782Y-98285227D01*
X94517123Y-98435731D01*
X94594812Y-98552000D01*
X94517123Y-98668269D01*
X94454782Y-98818773D01*
X94423000Y-98978548D01*
X94423000Y-99141452D01*
X94454782Y-99301227D01*
X94517123Y-99451731D01*
X94607628Y-99587181D01*
X94722819Y-99702372D01*
X94858269Y-99792877D01*
X95008773Y-99855218D01*
X95168548Y-99887000D01*
X95331452Y-99887000D01*
X95491227Y-99855218D01*
X95641731Y-99792877D01*
X95777181Y-99702372D01*
X95892372Y-99587181D01*
X95982877Y-99451731D01*
X95989417Y-99435940D01*
X102273000Y-99435940D01*
X102273000Y-100564060D01*
X102493085Y-101670504D01*
X102924798Y-102712752D01*
X103551548Y-103650750D01*
X104349250Y-104448452D01*
X105287248Y-105075202D01*
X106329496Y-105506915D01*
X107435940Y-105727000D01*
X108564060Y-105727000D01*
X109670504Y-105506915D01*
X110712752Y-105075202D01*
X111650750Y-104448452D01*
X112007202Y-104092000D01*
X121402934Y-104092000D01*
X121402934Y-105792000D01*
X121411178Y-105875707D01*
X121435595Y-105956196D01*
X121475245Y-106030376D01*
X121528605Y-106095395D01*
X121593624Y-106148755D01*
X121667804Y-106188405D01*
X121748293Y-106212822D01*
X121832000Y-106221066D01*
X122292633Y-106221066D01*
X122077114Y-106310337D01*
X121867960Y-106450089D01*
X121690089Y-106627960D01*
X121550337Y-106837114D01*
X121454074Y-107069513D01*
X121405000Y-107316226D01*
X121405000Y-107567774D01*
X121454074Y-107814487D01*
X121550337Y-108046886D01*
X121690089Y-108256040D01*
X121867960Y-108433911D01*
X122077114Y-108573663D01*
X122309513Y-108669926D01*
X122556226Y-108719000D01*
X122807774Y-108719000D01*
X123054487Y-108669926D01*
X123286886Y-108573663D01*
X123496040Y-108433911D01*
X123673911Y-108256040D01*
X123682000Y-108243934D01*
X123690089Y-108256040D01*
X123867960Y-108433911D01*
X124077114Y-108573663D01*
X124309513Y-108669926D01*
X124556226Y-108719000D01*
X124807774Y-108719000D01*
X125054487Y-108669926D01*
X125286886Y-108573663D01*
X125496040Y-108433911D01*
X125673911Y-108256040D01*
X125813663Y-108046886D01*
X125909926Y-107814487D01*
X125959000Y-107567774D01*
X125959000Y-107316226D01*
X125909926Y-107069513D01*
X125813663Y-106837114D01*
X125673911Y-106627960D01*
X125496040Y-106450089D01*
X125286886Y-106310337D01*
X125277525Y-106306460D01*
X125315747Y-106292919D01*
X125453157Y-106219472D01*
X125530792Y-105970397D01*
X124682000Y-105121605D01*
X124667858Y-105135748D01*
X124488253Y-104956143D01*
X124502395Y-104942000D01*
X124861605Y-104942000D01*
X125710397Y-105790792D01*
X125959472Y-105713157D01*
X126085371Y-105449117D01*
X126157339Y-105165589D01*
X126172611Y-104873469D01*
X126130599Y-104583981D01*
X126032919Y-104308253D01*
X125959472Y-104170843D01*
X125710397Y-104093208D01*
X124861605Y-104942000D01*
X124502395Y-104942000D01*
X124488253Y-104927858D01*
X124667858Y-104748253D01*
X124682000Y-104762395D01*
X125530792Y-103913603D01*
X125453157Y-103664528D01*
X125189117Y-103538629D01*
X124905589Y-103466661D01*
X124613469Y-103451389D01*
X124323981Y-103493401D01*
X124048253Y-103591081D01*
X123910843Y-103664528D01*
X123862047Y-103821080D01*
X123835395Y-103788605D01*
X123770376Y-103735245D01*
X123696196Y-103695595D01*
X123615707Y-103671178D01*
X123532000Y-103662934D01*
X121832000Y-103662934D01*
X121748293Y-103671178D01*
X121667804Y-103695595D01*
X121593624Y-103735245D01*
X121528605Y-103788605D01*
X121475245Y-103853624D01*
X121435595Y-103927804D01*
X121411178Y-104008293D01*
X121402934Y-104092000D01*
X112007202Y-104092000D01*
X112448452Y-103650750D01*
X113075202Y-102712752D01*
X113506915Y-101670504D01*
X113727000Y-100564060D01*
X113727000Y-99957584D01*
X125215000Y-99957584D01*
X125215000Y-100386416D01*
X125298660Y-100807008D01*
X125462767Y-101203196D01*
X125701013Y-101559757D01*
X126004243Y-101862987D01*
X126360804Y-102101233D01*
X126756992Y-102265340D01*
X127177584Y-102349000D01*
X127606416Y-102349000D01*
X128027008Y-102265340D01*
X128423196Y-102101233D01*
X128779757Y-101862987D01*
X129082987Y-101559757D01*
X129321233Y-101203196D01*
X129485340Y-100807008D01*
X129569000Y-100386416D01*
X129569000Y-99957584D01*
X129485340Y-99536992D01*
X129321233Y-99140804D01*
X129082987Y-98784243D01*
X128779757Y-98481013D01*
X128423196Y-98242767D01*
X128027008Y-98078660D01*
X127606416Y-97995000D01*
X127177584Y-97995000D01*
X126756992Y-98078660D01*
X126360804Y-98242767D01*
X126004243Y-98481013D01*
X125701013Y-98784243D01*
X125462767Y-99140804D01*
X125298660Y-99536992D01*
X125215000Y-99957584D01*
X113727000Y-99957584D01*
X113727000Y-99435940D01*
X113506915Y-98329496D01*
X113075202Y-97287248D01*
X112448452Y-96349250D01*
X111650750Y-95551548D01*
X110712752Y-94924798D01*
X109670504Y-94493085D01*
X108564060Y-94273000D01*
X107435940Y-94273000D01*
X106329496Y-94493085D01*
X105287248Y-94924798D01*
X104349250Y-95551548D01*
X103551548Y-96349250D01*
X102924798Y-97287248D01*
X102493085Y-98329496D01*
X102273000Y-99435940D01*
X95989417Y-99435940D01*
X96045218Y-99301227D01*
X96077000Y-99141452D01*
X96077000Y-98978548D01*
X96045218Y-98818773D01*
X95982877Y-98668269D01*
X95905188Y-98552000D01*
X95982877Y-98435731D01*
X96045218Y-98285227D01*
X96077000Y-98125452D01*
X96077000Y-97962548D01*
X96045218Y-97802773D01*
X95982877Y-97652269D01*
X95912632Y-97547140D01*
X95995528Y-97423077D01*
X96057869Y-97272573D01*
X96089651Y-97112798D01*
X96089651Y-96949894D01*
X96057869Y-96790119D01*
X95995528Y-96639615D01*
X95905023Y-96504165D01*
X95789832Y-96388974D01*
X95654382Y-96298469D01*
X95503878Y-96236128D01*
X95344103Y-96204346D01*
X95181199Y-96204346D01*
X95021424Y-96236128D01*
X94870920Y-96298469D01*
X94735470Y-96388974D01*
X94620279Y-96504165D01*
X94529774Y-96639615D01*
X94467433Y-96790119D01*
X94435651Y-96949894D01*
X94435651Y-97112798D01*
X94467433Y-97272573D01*
X94529774Y-97423077D01*
X94600019Y-97528206D01*
X94517123Y-97652269D01*
X94454782Y-97802773D01*
X94423000Y-97962548D01*
X76255830Y-97962548D01*
X76265000Y-97916452D01*
X76265000Y-97753548D01*
X76233218Y-97593773D01*
X76170877Y-97443269D01*
X76080372Y-97307819D01*
X75965181Y-97192628D01*
X75829731Y-97102123D01*
X75679227Y-97039782D01*
X75519452Y-97008000D01*
X75356548Y-97008000D01*
X75196773Y-97039782D01*
X75046269Y-97102123D01*
X74910819Y-97192628D01*
X74795628Y-97307819D01*
X74705123Y-97443269D01*
X74642782Y-97593773D01*
X74611000Y-97753548D01*
X47452000Y-97753548D01*
X47452000Y-90435940D01*
X49273000Y-90435940D01*
X49273000Y-91564060D01*
X49493085Y-92670504D01*
X49924798Y-93712752D01*
X50551548Y-94650750D01*
X51349250Y-95448452D01*
X52287248Y-96075202D01*
X53329496Y-96506915D01*
X54435940Y-96727000D01*
X55564060Y-96727000D01*
X56670504Y-96506915D01*
X57712752Y-96075202D01*
X58650750Y-95448452D01*
X59184654Y-94914548D01*
X74611000Y-94914548D01*
X74611000Y-95077452D01*
X74642782Y-95237227D01*
X74705123Y-95387731D01*
X74795628Y-95523181D01*
X74910819Y-95638372D01*
X75046269Y-95728877D01*
X75196773Y-95791218D01*
X75356548Y-95823000D01*
X75519452Y-95823000D01*
X75679227Y-95791218D01*
X75829731Y-95728877D01*
X75965181Y-95638372D01*
X76080372Y-95523181D01*
X76170877Y-95387731D01*
X76233218Y-95237227D01*
X76265000Y-95077452D01*
X76265000Y-94914548D01*
X76233218Y-94754773D01*
X76170877Y-94604269D01*
X76123631Y-94533560D01*
X84314443Y-94533560D01*
X84314443Y-94696464D01*
X84346225Y-94856239D01*
X84408566Y-95006743D01*
X84499071Y-95142193D01*
X84614262Y-95257384D01*
X84749712Y-95347889D01*
X84900216Y-95410230D01*
X85059991Y-95442012D01*
X85222895Y-95442012D01*
X85382670Y-95410230D01*
X85533174Y-95347889D01*
X85641567Y-95275463D01*
X85749713Y-95347724D01*
X85900217Y-95410065D01*
X86059992Y-95441847D01*
X86222896Y-95441847D01*
X86382671Y-95410065D01*
X86533175Y-95347724D01*
X86640189Y-95276219D01*
X86749713Y-95349401D01*
X86900217Y-95411742D01*
X87059992Y-95443524D01*
X87222896Y-95443524D01*
X87382671Y-95411742D01*
X87533175Y-95349401D01*
X87652002Y-95270003D01*
X87749615Y-95335226D01*
X87900119Y-95397567D01*
X88059894Y-95429349D01*
X88222798Y-95429349D01*
X88382573Y-95397567D01*
X88533077Y-95335226D01*
X88638206Y-95264981D01*
X88762269Y-95347877D01*
X88912773Y-95410218D01*
X89072548Y-95442000D01*
X89235452Y-95442000D01*
X89395227Y-95410218D01*
X89545731Y-95347877D01*
X89681181Y-95257372D01*
X89796372Y-95142181D01*
X89886877Y-95006731D01*
X89949218Y-94856227D01*
X89981000Y-94696452D01*
X89981000Y-94533548D01*
X89949218Y-94373773D01*
X89886877Y-94223269D01*
X89796372Y-94087819D01*
X89681181Y-93972628D01*
X89545731Y-93882123D01*
X89395227Y-93819782D01*
X89235452Y-93788000D01*
X89072548Y-93788000D01*
X88912773Y-93819782D01*
X88762269Y-93882123D01*
X88657140Y-93952368D01*
X88533077Y-93869472D01*
X88382573Y-93807131D01*
X88222798Y-93775349D01*
X88059894Y-93775349D01*
X87900119Y-93807131D01*
X87749615Y-93869472D01*
X87630788Y-93948870D01*
X87533175Y-93883647D01*
X87382671Y-93821306D01*
X87222896Y-93789524D01*
X87059992Y-93789524D01*
X86900217Y-93821306D01*
X86749713Y-93883647D01*
X86642699Y-93955152D01*
X86533175Y-93881970D01*
X86382671Y-93819629D01*
X86222896Y-93787847D01*
X86059992Y-93787847D01*
X85900217Y-93819629D01*
X85749713Y-93881970D01*
X85641320Y-93954396D01*
X85533174Y-93882135D01*
X85382670Y-93819794D01*
X85222895Y-93788012D01*
X85059991Y-93788012D01*
X84900216Y-93819794D01*
X84749712Y-93882135D01*
X84614262Y-93972640D01*
X84499071Y-94087831D01*
X84408566Y-94223281D01*
X84346225Y-94373785D01*
X84314443Y-94533560D01*
X76123631Y-94533560D01*
X76080372Y-94468819D01*
X75965181Y-94353628D01*
X75829731Y-94263123D01*
X75679227Y-94200782D01*
X75519452Y-94169000D01*
X75356548Y-94169000D01*
X75196773Y-94200782D01*
X75046269Y-94263123D01*
X74910819Y-94353628D01*
X74795628Y-94468819D01*
X74705123Y-94604269D01*
X74642782Y-94754773D01*
X74611000Y-94914548D01*
X59184654Y-94914548D01*
X59448452Y-94650750D01*
X60075202Y-93712752D01*
X60419083Y-92882548D01*
X82485000Y-92882548D01*
X82485000Y-93045452D01*
X82516782Y-93205227D01*
X82579123Y-93355731D01*
X82669628Y-93491181D01*
X82784819Y-93606372D01*
X82920269Y-93696877D01*
X83070773Y-93759218D01*
X83230548Y-93791000D01*
X83393452Y-93791000D01*
X83491241Y-93771548D01*
X90994000Y-93771548D01*
X90994000Y-93934452D01*
X91025782Y-94094227D01*
X91088123Y-94244731D01*
X91178628Y-94380181D01*
X91222947Y-94424500D01*
X91183281Y-94464166D01*
X91092776Y-94599616D01*
X91030435Y-94750120D01*
X90998653Y-94909895D01*
X90998653Y-95072799D01*
X91030435Y-95232574D01*
X91092776Y-95383078D01*
X91169693Y-95498192D01*
X91088123Y-95620269D01*
X91025782Y-95770773D01*
X90994000Y-95930548D01*
X90994000Y-96093452D01*
X91025782Y-96253227D01*
X91088123Y-96403731D01*
X91178628Y-96539181D01*
X91293819Y-96654372D01*
X91429269Y-96744877D01*
X91579773Y-96807218D01*
X91739548Y-96839000D01*
X91902452Y-96839000D01*
X92062227Y-96807218D01*
X92212731Y-96744877D01*
X92348181Y-96654372D01*
X92463372Y-96539181D01*
X92553877Y-96403731D01*
X92616218Y-96253227D01*
X92648000Y-96093452D01*
X92648000Y-95930548D01*
X92616218Y-95770773D01*
X92553877Y-95620269D01*
X92476960Y-95505155D01*
X92558530Y-95383078D01*
X92620871Y-95232574D01*
X92652653Y-95072799D01*
X92652653Y-94909895D01*
X92620871Y-94750120D01*
X92558530Y-94599616D01*
X92468025Y-94464166D01*
X92423706Y-94419847D01*
X92463372Y-94380181D01*
X92553877Y-94244731D01*
X92616218Y-94094227D01*
X92648000Y-93934452D01*
X92648000Y-93771548D01*
X92616218Y-93611773D01*
X92553877Y-93461269D01*
X92463372Y-93325819D01*
X92348181Y-93210628D01*
X92212731Y-93120123D01*
X92062227Y-93057782D01*
X91902452Y-93026000D01*
X91739548Y-93026000D01*
X91579773Y-93057782D01*
X91429269Y-93120123D01*
X91293819Y-93210628D01*
X91178628Y-93325819D01*
X91088123Y-93461269D01*
X91025782Y-93611773D01*
X90994000Y-93771548D01*
X83491241Y-93771548D01*
X83553227Y-93759218D01*
X83703731Y-93696877D01*
X83839181Y-93606372D01*
X83954372Y-93491181D01*
X84044877Y-93355731D01*
X84107218Y-93205227D01*
X84139000Y-93045452D01*
X84139000Y-92882548D01*
X84107218Y-92722773D01*
X84044877Y-92572269D01*
X83954372Y-92436819D01*
X83839181Y-92321628D01*
X83703731Y-92231123D01*
X83553227Y-92168782D01*
X83393452Y-92137000D01*
X83230548Y-92137000D01*
X83070773Y-92168782D01*
X82920269Y-92231123D01*
X82784819Y-92321628D01*
X82669628Y-92436819D01*
X82579123Y-92572269D01*
X82516782Y-92722773D01*
X82485000Y-92882548D01*
X60419083Y-92882548D01*
X60506915Y-92670504D01*
X60727000Y-91564060D01*
X60727000Y-91358548D01*
X94169000Y-91358548D01*
X94169000Y-91521452D01*
X94200782Y-91681227D01*
X94263123Y-91831731D01*
X94353628Y-91967181D01*
X94468819Y-92082372D01*
X94604269Y-92172877D01*
X94754773Y-92235218D01*
X94914548Y-92267000D01*
X95077452Y-92267000D01*
X95237227Y-92235218D01*
X95387731Y-92172877D01*
X95523181Y-92082372D01*
X95638372Y-91967181D01*
X95728877Y-91831731D01*
X95791218Y-91681227D01*
X95823000Y-91521452D01*
X95823000Y-91358548D01*
X95791218Y-91198773D01*
X95728877Y-91048269D01*
X95638372Y-90912819D01*
X95523181Y-90797628D01*
X95387731Y-90707123D01*
X95237227Y-90644782D01*
X95077452Y-90613000D01*
X94914548Y-90613000D01*
X94754773Y-90644782D01*
X94604269Y-90707123D01*
X94468819Y-90797628D01*
X94353628Y-90912819D01*
X94263123Y-91048269D01*
X94200782Y-91198773D01*
X94169000Y-91358548D01*
X60727000Y-91358548D01*
X60727000Y-90435940D01*
X60657900Y-90088548D01*
X109536000Y-90088548D01*
X109536000Y-90251452D01*
X109567782Y-90411227D01*
X109630123Y-90561731D01*
X109720628Y-90697181D01*
X109835819Y-90812372D01*
X109971269Y-90902877D01*
X110121773Y-90965218D01*
X110281548Y-90997000D01*
X110444452Y-90997000D01*
X110604227Y-90965218D01*
X110754731Y-90902877D01*
X110890181Y-90812372D01*
X111005372Y-90697181D01*
X111095877Y-90561731D01*
X111158218Y-90411227D01*
X111190000Y-90251452D01*
X111190000Y-90088548D01*
X111158218Y-89928773D01*
X111095877Y-89778269D01*
X111005372Y-89642819D01*
X110890181Y-89527628D01*
X110754731Y-89437123D01*
X110604227Y-89374782D01*
X110444452Y-89343000D01*
X110281548Y-89343000D01*
X110121773Y-89374782D01*
X109971269Y-89437123D01*
X109835819Y-89527628D01*
X109720628Y-89642819D01*
X109630123Y-89778269D01*
X109567782Y-89928773D01*
X109536000Y-90088548D01*
X60657900Y-90088548D01*
X60506915Y-89329496D01*
X60143194Y-88451395D01*
X86906847Y-88451395D01*
X86906847Y-88614299D01*
X86938629Y-88774074D01*
X87000970Y-88924578D01*
X87091475Y-89060028D01*
X87206666Y-89175219D01*
X87342116Y-89265724D01*
X87492620Y-89328065D01*
X87652395Y-89359847D01*
X87815299Y-89359847D01*
X87975074Y-89328065D01*
X88125578Y-89265724D01*
X88261028Y-89175219D01*
X88376219Y-89060028D01*
X88466724Y-88924578D01*
X88529065Y-88774074D01*
X88560847Y-88614299D01*
X88560847Y-88451395D01*
X88529065Y-88291620D01*
X88466724Y-88141116D01*
X88376219Y-88005666D01*
X88261028Y-87890475D01*
X88125578Y-87799970D01*
X87975074Y-87737629D01*
X87815299Y-87705847D01*
X87652395Y-87705847D01*
X87492620Y-87737629D01*
X87342116Y-87799970D01*
X87206666Y-87890475D01*
X87091475Y-88005666D01*
X87000970Y-88141116D01*
X86938629Y-88291620D01*
X86906847Y-88451395D01*
X60143194Y-88451395D01*
X60075202Y-88287248D01*
X59448452Y-87349250D01*
X59393750Y-87294548D01*
X78421000Y-87294548D01*
X78421000Y-87457452D01*
X78452782Y-87617227D01*
X78515123Y-87767731D01*
X78605628Y-87903181D01*
X78720819Y-88018372D01*
X78856269Y-88108877D01*
X79006773Y-88171218D01*
X79166548Y-88203000D01*
X79329452Y-88203000D01*
X79489227Y-88171218D01*
X79639731Y-88108877D01*
X79775181Y-88018372D01*
X79890372Y-87903181D01*
X79980877Y-87767731D01*
X80043218Y-87617227D01*
X80075000Y-87457452D01*
X80075000Y-87294548D01*
X80043218Y-87134773D01*
X79980877Y-86984269D01*
X79890372Y-86848819D01*
X79775181Y-86733628D01*
X79639731Y-86643123D01*
X79489227Y-86580782D01*
X79329452Y-86549000D01*
X79166548Y-86549000D01*
X79006773Y-86580782D01*
X78856269Y-86643123D01*
X78720819Y-86733628D01*
X78605628Y-86848819D01*
X78515123Y-86984269D01*
X78452782Y-87134773D01*
X78421000Y-87294548D01*
X59393750Y-87294548D01*
X58650750Y-86551548D01*
X57712752Y-85924798D01*
X56670504Y-85493085D01*
X55564060Y-85273000D01*
X54435940Y-85273000D01*
X53329496Y-85493085D01*
X52287248Y-85924798D01*
X51349250Y-86551548D01*
X50551548Y-87349250D01*
X49924798Y-88287248D01*
X49493085Y-89329496D01*
X49273000Y-90435940D01*
X47452000Y-90435940D01*
X47452000Y-85135548D01*
X117029000Y-85135548D01*
X117029000Y-85298452D01*
X117060782Y-85458227D01*
X117123123Y-85608731D01*
X117213628Y-85744181D01*
X117328819Y-85859372D01*
X117464269Y-85949877D01*
X117614773Y-86012218D01*
X117774548Y-86044000D01*
X117937452Y-86044000D01*
X118097227Y-86012218D01*
X118247731Y-85949877D01*
X118383181Y-85859372D01*
X118491000Y-85751553D01*
X118598819Y-85859372D01*
X118734269Y-85949877D01*
X118884773Y-86012218D01*
X119044548Y-86044000D01*
X119207452Y-86044000D01*
X119367227Y-86012218D01*
X119517731Y-85949877D01*
X119653181Y-85859372D01*
X119761000Y-85751553D01*
X119868819Y-85859372D01*
X120004269Y-85949877D01*
X120154773Y-86012218D01*
X120314548Y-86044000D01*
X120477452Y-86044000D01*
X120637227Y-86012218D01*
X120787731Y-85949877D01*
X120923181Y-85859372D01*
X121038372Y-85744181D01*
X121094500Y-85660180D01*
X121150628Y-85744181D01*
X121258447Y-85852000D01*
X121150628Y-85959819D01*
X121060123Y-86095269D01*
X120997782Y-86245773D01*
X120966000Y-86405548D01*
X120966000Y-86568452D01*
X120997782Y-86728227D01*
X121060123Y-86878731D01*
X121150628Y-87014181D01*
X121258447Y-87122000D01*
X121150628Y-87229819D01*
X121060123Y-87365269D01*
X120997782Y-87515773D01*
X120966000Y-87675548D01*
X120966000Y-87838452D01*
X120997782Y-87998227D01*
X121060123Y-88148731D01*
X121150628Y-88284181D01*
X121258447Y-88392000D01*
X121150628Y-88499819D01*
X121094500Y-88583820D01*
X121038372Y-88499819D01*
X120923181Y-88384628D01*
X120787731Y-88294123D01*
X120637227Y-88231782D01*
X120477452Y-88200000D01*
X120314548Y-88200000D01*
X120154773Y-88231782D01*
X120004269Y-88294123D01*
X119868819Y-88384628D01*
X119761000Y-88492447D01*
X119653181Y-88384628D01*
X119517731Y-88294123D01*
X119367227Y-88231782D01*
X119207452Y-88200000D01*
X119044548Y-88200000D01*
X118884773Y-88231782D01*
X118734269Y-88294123D01*
X118598819Y-88384628D01*
X118491000Y-88492447D01*
X118383181Y-88384628D01*
X118247731Y-88294123D01*
X118097227Y-88231782D01*
X117937452Y-88200000D01*
X117774548Y-88200000D01*
X117614773Y-88231782D01*
X117464269Y-88294123D01*
X117328819Y-88384628D01*
X117213628Y-88499819D01*
X117123123Y-88635269D01*
X117060782Y-88785773D01*
X117029000Y-88945548D01*
X117029000Y-89108452D01*
X117060782Y-89268227D01*
X117123123Y-89418731D01*
X117213628Y-89554181D01*
X117328819Y-89669372D01*
X117464269Y-89759877D01*
X117614773Y-89822218D01*
X117774548Y-89854000D01*
X117937452Y-89854000D01*
X118097227Y-89822218D01*
X118247731Y-89759877D01*
X118383181Y-89669372D01*
X118491000Y-89561553D01*
X118598819Y-89669372D01*
X118734269Y-89759877D01*
X118884773Y-89822218D01*
X119044548Y-89854000D01*
X119207452Y-89854000D01*
X119367227Y-89822218D01*
X119517731Y-89759877D01*
X119653181Y-89669372D01*
X119761000Y-89561553D01*
X119868819Y-89669372D01*
X120004269Y-89759877D01*
X120154773Y-89822218D01*
X120314548Y-89854000D01*
X120477452Y-89854000D01*
X120637227Y-89822218D01*
X120787731Y-89759877D01*
X120923181Y-89669372D01*
X121038372Y-89554181D01*
X121094500Y-89470180D01*
X121150628Y-89554181D01*
X121265819Y-89669372D01*
X121401269Y-89759877D01*
X121551773Y-89822218D01*
X121711548Y-89854000D01*
X121874452Y-89854000D01*
X122034227Y-89822218D01*
X122184731Y-89759877D01*
X122320181Y-89669372D01*
X122435372Y-89554181D01*
X122525877Y-89418731D01*
X122588218Y-89268227D01*
X122620000Y-89108452D01*
X122620000Y-88945548D01*
X122588218Y-88785773D01*
X122525877Y-88635269D01*
X122435372Y-88499819D01*
X122327553Y-88392000D01*
X122435372Y-88284181D01*
X122525877Y-88148731D01*
X122588218Y-87998227D01*
X122620000Y-87838452D01*
X122620000Y-87675548D01*
X122588218Y-87515773D01*
X122525877Y-87365269D01*
X122435372Y-87229819D01*
X122327553Y-87122000D01*
X122435372Y-87014181D01*
X122525877Y-86878731D01*
X122588218Y-86728227D01*
X122620000Y-86568452D01*
X122620000Y-86405548D01*
X122588218Y-86245773D01*
X122525877Y-86095269D01*
X122435372Y-85959819D01*
X122327553Y-85852000D01*
X122435372Y-85744181D01*
X122525877Y-85608731D01*
X122588218Y-85458227D01*
X122620000Y-85298452D01*
X122620000Y-85135548D01*
X122588218Y-84975773D01*
X122525877Y-84825269D01*
X122435372Y-84689819D01*
X122320181Y-84574628D01*
X122184731Y-84484123D01*
X122034227Y-84421782D01*
X121874452Y-84390000D01*
X121711548Y-84390000D01*
X121551773Y-84421782D01*
X121401269Y-84484123D01*
X121265819Y-84574628D01*
X121150628Y-84689819D01*
X121094500Y-84773820D01*
X121038372Y-84689819D01*
X120923181Y-84574628D01*
X120787731Y-84484123D01*
X120637227Y-84421782D01*
X120477452Y-84390000D01*
X120314548Y-84390000D01*
X120154773Y-84421782D01*
X120004269Y-84484123D01*
X119868819Y-84574628D01*
X119761000Y-84682447D01*
X119653181Y-84574628D01*
X119517731Y-84484123D01*
X119367227Y-84421782D01*
X119207452Y-84390000D01*
X119044548Y-84390000D01*
X118884773Y-84421782D01*
X118734269Y-84484123D01*
X118598819Y-84574628D01*
X118491000Y-84682447D01*
X118383181Y-84574628D01*
X118247731Y-84484123D01*
X118097227Y-84421782D01*
X117937452Y-84390000D01*
X117774548Y-84390000D01*
X117614773Y-84421782D01*
X117464269Y-84484123D01*
X117328819Y-84574628D01*
X117213628Y-84689819D01*
X117123123Y-84825269D01*
X117060782Y-84975773D01*
X117029000Y-85135548D01*
X47452000Y-85135548D01*
X47452000Y-80563548D01*
X105218000Y-80563548D01*
X105218000Y-80726452D01*
X105249782Y-80886227D01*
X105312123Y-81036731D01*
X105402628Y-81172181D01*
X105517819Y-81287372D01*
X105653269Y-81377877D01*
X105803773Y-81440218D01*
X105963548Y-81472000D01*
X106126452Y-81472000D01*
X106286227Y-81440218D01*
X106436731Y-81377877D01*
X106572181Y-81287372D01*
X106687372Y-81172181D01*
X106777877Y-81036731D01*
X106840218Y-80886227D01*
X106872000Y-80726452D01*
X106872000Y-80563548D01*
X106840218Y-80403773D01*
X106777877Y-80253269D01*
X106687372Y-80117819D01*
X106572181Y-80002628D01*
X106436731Y-79912123D01*
X106286227Y-79849782D01*
X106126452Y-79818000D01*
X105963548Y-79818000D01*
X105803773Y-79849782D01*
X105653269Y-79912123D01*
X105517819Y-80002628D01*
X105402628Y-80117819D01*
X105312123Y-80253269D01*
X105249782Y-80403773D01*
X105218000Y-80563548D01*
X47452000Y-80563548D01*
X47452000Y-78644679D01*
X124808000Y-78644679D01*
X124808000Y-78955321D01*
X124868604Y-79259994D01*
X124987481Y-79546989D01*
X125160064Y-79805279D01*
X125379721Y-80024936D01*
X125638011Y-80197519D01*
X125925006Y-80316396D01*
X126229679Y-80377000D01*
X126540321Y-80377000D01*
X126844994Y-80316396D01*
X127131989Y-80197519D01*
X127364218Y-80042349D01*
X132922256Y-80042349D01*
X133036118Y-80322090D01*
X133351296Y-80477961D01*
X133690826Y-80569349D01*
X134041661Y-80592741D01*
X134390319Y-80547240D01*
X134723400Y-80434594D01*
X134933882Y-80322090D01*
X135047744Y-80042349D01*
X133985000Y-78979605D01*
X132922256Y-80042349D01*
X127364218Y-80042349D01*
X127390279Y-80024936D01*
X127609936Y-79805279D01*
X127782519Y-79546989D01*
X127901396Y-79259994D01*
X127962000Y-78955321D01*
X127962000Y-78856661D01*
X132192259Y-78856661D01*
X132237760Y-79205319D01*
X132350406Y-79538400D01*
X132462910Y-79748882D01*
X132742651Y-79862744D01*
X133805395Y-78800000D01*
X134164605Y-78800000D01*
X135227349Y-79862744D01*
X135507090Y-79748882D01*
X135662961Y-79433704D01*
X135754349Y-79094174D01*
X135777741Y-78743339D01*
X135732240Y-78394681D01*
X135619594Y-78061600D01*
X135507090Y-77851118D01*
X135227349Y-77737256D01*
X134164605Y-78800000D01*
X133805395Y-78800000D01*
X132742651Y-77737256D01*
X132462910Y-77851118D01*
X132307039Y-78166296D01*
X132215651Y-78505826D01*
X132192259Y-78856661D01*
X127962000Y-78856661D01*
X127962000Y-78644679D01*
X127901396Y-78340006D01*
X127782519Y-78053011D01*
X127609936Y-77794721D01*
X127390279Y-77575064D01*
X127364219Y-77557651D01*
X132922256Y-77557651D01*
X133985000Y-78620395D01*
X135047744Y-77557651D01*
X134933882Y-77277910D01*
X134618704Y-77122039D01*
X134279174Y-77030651D01*
X133928339Y-77007259D01*
X133579681Y-77052760D01*
X133246600Y-77165406D01*
X133036118Y-77277910D01*
X132922256Y-77557651D01*
X127364219Y-77557651D01*
X127131989Y-77402481D01*
X126844994Y-77283604D01*
X126540321Y-77223000D01*
X126229679Y-77223000D01*
X125925006Y-77283604D01*
X125638011Y-77402481D01*
X125379721Y-77575064D01*
X125160064Y-77794721D01*
X124987481Y-78053011D01*
X124868604Y-78340006D01*
X124808000Y-78644679D01*
X47452000Y-78644679D01*
X47452000Y-76127000D01*
X137548000Y-76127000D01*
X137548001Y-118548000D01*
G37*
%TD.AperFunction*%
%TD*%
M02*
