%TF.GenerationSoftware,KiCad,Pcbnew,(5.1.7)-1*%
%TF.CreationDate,2021-04-04T08:26:08+02:00*%
%TF.ProjectId,Reflow_Ofen_V2,5265666c-6f77-45f4-9f66-656e5f56322e,rev?*%
%TF.SameCoordinates,Original*%
%TF.FileFunction,Soldermask,Top*%
%TF.FilePolarity,Negative*%
%FSLAX46Y46*%
G04 Gerber Fmt 4.6, Leading zero omitted, Abs format (unit mm)*
G04 Created by KiCad (PCBNEW (5.1.7)-1) date 2021-04-04 08:26:08*
%MOMM*%
%LPD*%
G01*
G04 APERTURE LIST*
%ADD10O,1.000000X1.000000*%
%ADD11R,1.000000X1.000000*%
%ADD12C,2.500000*%
%ADD13C,3.000000*%
%ADD14R,1.700000X1.700000*%
%ADD15C,1.700000*%
%ADD16C,3.500000*%
%ADD17R,2.400000X0.740000*%
%ADD18R,2.540000X2.540000*%
%ADD19C,2.540000*%
%ADD20R,1.100000X1.100000*%
%ADD21R,1.200000X0.900000*%
%ADD22R,1.905000X2.000000*%
%ADD23O,1.905000X2.000000*%
%ADD24R,1.100000X4.600000*%
%ADD25R,10.800000X9.400000*%
%ADD26R,0.650000X1.060000*%
%ADD27C,10.600000*%
%ADD28C,0.900000*%
%ADD29R,1.900000X2.500000*%
%ADD30C,2.300000*%
%ADD31R,2.000000X2.300000*%
%ADD32R,0.800000X0.900000*%
%ADD33R,3.000000X3.000000*%
%ADD34R,0.650000X1.220000*%
%ADD35R,1.780000X2.000000*%
%ADD36R,1.400000X1.200000*%
G04 APERTURE END LIST*
D10*
%TO.C,J1*%
X80010000Y-114808000D03*
X80010000Y-113538000D03*
X81280000Y-114808000D03*
X81280000Y-113538000D03*
X82550000Y-114808000D03*
X82550000Y-113538000D03*
X83820000Y-114808000D03*
X83820000Y-113538000D03*
X85090000Y-114808000D03*
X85090000Y-113538000D03*
X86360000Y-114808000D03*
X86360000Y-113538000D03*
X87630000Y-114808000D03*
X87630000Y-113538000D03*
X88900000Y-114808000D03*
X88900000Y-113538000D03*
X90170000Y-114808000D03*
X90170000Y-113538000D03*
X91440000Y-114808000D03*
X91440000Y-113538000D03*
X92710000Y-114808000D03*
X92710000Y-113538000D03*
X93980000Y-114808000D03*
X93980000Y-113538000D03*
X95250000Y-114808000D03*
X95250000Y-113538000D03*
X96520000Y-114808000D03*
X96520000Y-113538000D03*
X97790000Y-114808000D03*
X97790000Y-113538000D03*
X99060000Y-114808000D03*
X99060000Y-113538000D03*
X100330000Y-114808000D03*
D11*
X100330000Y-113538000D03*
%TD*%
%TO.C,MCU1*%
G36*
G01*
X77250000Y-93135000D02*
X77250000Y-92985000D01*
G75*
G02*
X77325000Y-92910000I75000J0D01*
G01*
X78775000Y-92910000D01*
G75*
G02*
X78850000Y-92985000I0J-75000D01*
G01*
X78850000Y-93135000D01*
G75*
G02*
X78775000Y-93210000I-75000J0D01*
G01*
X77325000Y-93210000D01*
G75*
G02*
X77250000Y-93135000I0J75000D01*
G01*
G37*
G36*
G01*
X77250000Y-93635000D02*
X77250000Y-93485000D01*
G75*
G02*
X77325000Y-93410000I75000J0D01*
G01*
X78775000Y-93410000D01*
G75*
G02*
X78850000Y-93485000I0J-75000D01*
G01*
X78850000Y-93635000D01*
G75*
G02*
X78775000Y-93710000I-75000J0D01*
G01*
X77325000Y-93710000D01*
G75*
G02*
X77250000Y-93635000I0J75000D01*
G01*
G37*
G36*
G01*
X77250000Y-94135000D02*
X77250000Y-93985000D01*
G75*
G02*
X77325000Y-93910000I75000J0D01*
G01*
X78775000Y-93910000D01*
G75*
G02*
X78850000Y-93985000I0J-75000D01*
G01*
X78850000Y-94135000D01*
G75*
G02*
X78775000Y-94210000I-75000J0D01*
G01*
X77325000Y-94210000D01*
G75*
G02*
X77250000Y-94135000I0J75000D01*
G01*
G37*
G36*
G01*
X77250000Y-94635000D02*
X77250000Y-94485000D01*
G75*
G02*
X77325000Y-94410000I75000J0D01*
G01*
X78775000Y-94410000D01*
G75*
G02*
X78850000Y-94485000I0J-75000D01*
G01*
X78850000Y-94635000D01*
G75*
G02*
X78775000Y-94710000I-75000J0D01*
G01*
X77325000Y-94710000D01*
G75*
G02*
X77250000Y-94635000I0J75000D01*
G01*
G37*
G36*
G01*
X77250000Y-95135000D02*
X77250000Y-94985000D01*
G75*
G02*
X77325000Y-94910000I75000J0D01*
G01*
X78775000Y-94910000D01*
G75*
G02*
X78850000Y-94985000I0J-75000D01*
G01*
X78850000Y-95135000D01*
G75*
G02*
X78775000Y-95210000I-75000J0D01*
G01*
X77325000Y-95210000D01*
G75*
G02*
X77250000Y-95135000I0J75000D01*
G01*
G37*
G36*
G01*
X77250000Y-95635000D02*
X77250000Y-95485000D01*
G75*
G02*
X77325000Y-95410000I75000J0D01*
G01*
X78775000Y-95410000D01*
G75*
G02*
X78850000Y-95485000I0J-75000D01*
G01*
X78850000Y-95635000D01*
G75*
G02*
X78775000Y-95710000I-75000J0D01*
G01*
X77325000Y-95710000D01*
G75*
G02*
X77250000Y-95635000I0J75000D01*
G01*
G37*
G36*
G01*
X77250000Y-96135000D02*
X77250000Y-95985000D01*
G75*
G02*
X77325000Y-95910000I75000J0D01*
G01*
X78775000Y-95910000D01*
G75*
G02*
X78850000Y-95985000I0J-75000D01*
G01*
X78850000Y-96135000D01*
G75*
G02*
X78775000Y-96210000I-75000J0D01*
G01*
X77325000Y-96210000D01*
G75*
G02*
X77250000Y-96135000I0J75000D01*
G01*
G37*
G36*
G01*
X77250000Y-96635000D02*
X77250000Y-96485000D01*
G75*
G02*
X77325000Y-96410000I75000J0D01*
G01*
X78775000Y-96410000D01*
G75*
G02*
X78850000Y-96485000I0J-75000D01*
G01*
X78850000Y-96635000D01*
G75*
G02*
X78775000Y-96710000I-75000J0D01*
G01*
X77325000Y-96710000D01*
G75*
G02*
X77250000Y-96635000I0J75000D01*
G01*
G37*
G36*
G01*
X77250000Y-97135000D02*
X77250000Y-96985000D01*
G75*
G02*
X77325000Y-96910000I75000J0D01*
G01*
X78775000Y-96910000D01*
G75*
G02*
X78850000Y-96985000I0J-75000D01*
G01*
X78850000Y-97135000D01*
G75*
G02*
X78775000Y-97210000I-75000J0D01*
G01*
X77325000Y-97210000D01*
G75*
G02*
X77250000Y-97135000I0J75000D01*
G01*
G37*
G36*
G01*
X77250000Y-97635000D02*
X77250000Y-97485000D01*
G75*
G02*
X77325000Y-97410000I75000J0D01*
G01*
X78775000Y-97410000D01*
G75*
G02*
X78850000Y-97485000I0J-75000D01*
G01*
X78850000Y-97635000D01*
G75*
G02*
X78775000Y-97710000I-75000J0D01*
G01*
X77325000Y-97710000D01*
G75*
G02*
X77250000Y-97635000I0J75000D01*
G01*
G37*
G36*
G01*
X77250000Y-98135000D02*
X77250000Y-97985000D01*
G75*
G02*
X77325000Y-97910000I75000J0D01*
G01*
X78775000Y-97910000D01*
G75*
G02*
X78850000Y-97985000I0J-75000D01*
G01*
X78850000Y-98135000D01*
G75*
G02*
X78775000Y-98210000I-75000J0D01*
G01*
X77325000Y-98210000D01*
G75*
G02*
X77250000Y-98135000I0J75000D01*
G01*
G37*
G36*
G01*
X77250000Y-98635000D02*
X77250000Y-98485000D01*
G75*
G02*
X77325000Y-98410000I75000J0D01*
G01*
X78775000Y-98410000D01*
G75*
G02*
X78850000Y-98485000I0J-75000D01*
G01*
X78850000Y-98635000D01*
G75*
G02*
X78775000Y-98710000I-75000J0D01*
G01*
X77325000Y-98710000D01*
G75*
G02*
X77250000Y-98635000I0J75000D01*
G01*
G37*
G36*
G01*
X77250000Y-99135000D02*
X77250000Y-98985000D01*
G75*
G02*
X77325000Y-98910000I75000J0D01*
G01*
X78775000Y-98910000D01*
G75*
G02*
X78850000Y-98985000I0J-75000D01*
G01*
X78850000Y-99135000D01*
G75*
G02*
X78775000Y-99210000I-75000J0D01*
G01*
X77325000Y-99210000D01*
G75*
G02*
X77250000Y-99135000I0J75000D01*
G01*
G37*
G36*
G01*
X77250000Y-99635000D02*
X77250000Y-99485000D01*
G75*
G02*
X77325000Y-99410000I75000J0D01*
G01*
X78775000Y-99410000D01*
G75*
G02*
X78850000Y-99485000I0J-75000D01*
G01*
X78850000Y-99635000D01*
G75*
G02*
X78775000Y-99710000I-75000J0D01*
G01*
X77325000Y-99710000D01*
G75*
G02*
X77250000Y-99635000I0J75000D01*
G01*
G37*
G36*
G01*
X77250000Y-100135000D02*
X77250000Y-99985000D01*
G75*
G02*
X77325000Y-99910000I75000J0D01*
G01*
X78775000Y-99910000D01*
G75*
G02*
X78850000Y-99985000I0J-75000D01*
G01*
X78850000Y-100135000D01*
G75*
G02*
X78775000Y-100210000I-75000J0D01*
G01*
X77325000Y-100210000D01*
G75*
G02*
X77250000Y-100135000I0J75000D01*
G01*
G37*
G36*
G01*
X77250000Y-100635000D02*
X77250000Y-100485000D01*
G75*
G02*
X77325000Y-100410000I75000J0D01*
G01*
X78775000Y-100410000D01*
G75*
G02*
X78850000Y-100485000I0J-75000D01*
G01*
X78850000Y-100635000D01*
G75*
G02*
X78775000Y-100710000I-75000J0D01*
G01*
X77325000Y-100710000D01*
G75*
G02*
X77250000Y-100635000I0J75000D01*
G01*
G37*
G36*
G01*
X77250000Y-101135000D02*
X77250000Y-100985000D01*
G75*
G02*
X77325000Y-100910000I75000J0D01*
G01*
X78775000Y-100910000D01*
G75*
G02*
X78850000Y-100985000I0J-75000D01*
G01*
X78850000Y-101135000D01*
G75*
G02*
X78775000Y-101210000I-75000J0D01*
G01*
X77325000Y-101210000D01*
G75*
G02*
X77250000Y-101135000I0J75000D01*
G01*
G37*
G36*
G01*
X77250000Y-101635000D02*
X77250000Y-101485000D01*
G75*
G02*
X77325000Y-101410000I75000J0D01*
G01*
X78775000Y-101410000D01*
G75*
G02*
X78850000Y-101485000I0J-75000D01*
G01*
X78850000Y-101635000D01*
G75*
G02*
X78775000Y-101710000I-75000J0D01*
G01*
X77325000Y-101710000D01*
G75*
G02*
X77250000Y-101635000I0J75000D01*
G01*
G37*
G36*
G01*
X77250000Y-102135000D02*
X77250000Y-101985000D01*
G75*
G02*
X77325000Y-101910000I75000J0D01*
G01*
X78775000Y-101910000D01*
G75*
G02*
X78850000Y-101985000I0J-75000D01*
G01*
X78850000Y-102135000D01*
G75*
G02*
X78775000Y-102210000I-75000J0D01*
G01*
X77325000Y-102210000D01*
G75*
G02*
X77250000Y-102135000I0J75000D01*
G01*
G37*
G36*
G01*
X77250000Y-102635000D02*
X77250000Y-102485000D01*
G75*
G02*
X77325000Y-102410000I75000J0D01*
G01*
X78775000Y-102410000D01*
G75*
G02*
X78850000Y-102485000I0J-75000D01*
G01*
X78850000Y-102635000D01*
G75*
G02*
X78775000Y-102710000I-75000J0D01*
G01*
X77325000Y-102710000D01*
G75*
G02*
X77250000Y-102635000I0J75000D01*
G01*
G37*
G36*
G01*
X77250000Y-103135000D02*
X77250000Y-102985000D01*
G75*
G02*
X77325000Y-102910000I75000J0D01*
G01*
X78775000Y-102910000D01*
G75*
G02*
X78850000Y-102985000I0J-75000D01*
G01*
X78850000Y-103135000D01*
G75*
G02*
X78775000Y-103210000I-75000J0D01*
G01*
X77325000Y-103210000D01*
G75*
G02*
X77250000Y-103135000I0J75000D01*
G01*
G37*
G36*
G01*
X77250000Y-103635000D02*
X77250000Y-103485000D01*
G75*
G02*
X77325000Y-103410000I75000J0D01*
G01*
X78775000Y-103410000D01*
G75*
G02*
X78850000Y-103485000I0J-75000D01*
G01*
X78850000Y-103635000D01*
G75*
G02*
X78775000Y-103710000I-75000J0D01*
G01*
X77325000Y-103710000D01*
G75*
G02*
X77250000Y-103635000I0J75000D01*
G01*
G37*
G36*
G01*
X77250000Y-104135000D02*
X77250000Y-103985000D01*
G75*
G02*
X77325000Y-103910000I75000J0D01*
G01*
X78775000Y-103910000D01*
G75*
G02*
X78850000Y-103985000I0J-75000D01*
G01*
X78850000Y-104135000D01*
G75*
G02*
X78775000Y-104210000I-75000J0D01*
G01*
X77325000Y-104210000D01*
G75*
G02*
X77250000Y-104135000I0J75000D01*
G01*
G37*
G36*
G01*
X77250000Y-104635000D02*
X77250000Y-104485000D01*
G75*
G02*
X77325000Y-104410000I75000J0D01*
G01*
X78775000Y-104410000D01*
G75*
G02*
X78850000Y-104485000I0J-75000D01*
G01*
X78850000Y-104635000D01*
G75*
G02*
X78775000Y-104710000I-75000J0D01*
G01*
X77325000Y-104710000D01*
G75*
G02*
X77250000Y-104635000I0J75000D01*
G01*
G37*
G36*
G01*
X77250000Y-105135000D02*
X77250000Y-104985000D01*
G75*
G02*
X77325000Y-104910000I75000J0D01*
G01*
X78775000Y-104910000D01*
G75*
G02*
X78850000Y-104985000I0J-75000D01*
G01*
X78850000Y-105135000D01*
G75*
G02*
X78775000Y-105210000I-75000J0D01*
G01*
X77325000Y-105210000D01*
G75*
G02*
X77250000Y-105135000I0J75000D01*
G01*
G37*
G36*
G01*
X79575000Y-107460000D02*
X79575000Y-106010000D01*
G75*
G02*
X79650000Y-105935000I75000J0D01*
G01*
X79800000Y-105935000D01*
G75*
G02*
X79875000Y-106010000I0J-75000D01*
G01*
X79875000Y-107460000D01*
G75*
G02*
X79800000Y-107535000I-75000J0D01*
G01*
X79650000Y-107535000D01*
G75*
G02*
X79575000Y-107460000I0J75000D01*
G01*
G37*
G36*
G01*
X80075000Y-107460000D02*
X80075000Y-106010000D01*
G75*
G02*
X80150000Y-105935000I75000J0D01*
G01*
X80300000Y-105935000D01*
G75*
G02*
X80375000Y-106010000I0J-75000D01*
G01*
X80375000Y-107460000D01*
G75*
G02*
X80300000Y-107535000I-75000J0D01*
G01*
X80150000Y-107535000D01*
G75*
G02*
X80075000Y-107460000I0J75000D01*
G01*
G37*
G36*
G01*
X80575000Y-107460000D02*
X80575000Y-106010000D01*
G75*
G02*
X80650000Y-105935000I75000J0D01*
G01*
X80800000Y-105935000D01*
G75*
G02*
X80875000Y-106010000I0J-75000D01*
G01*
X80875000Y-107460000D01*
G75*
G02*
X80800000Y-107535000I-75000J0D01*
G01*
X80650000Y-107535000D01*
G75*
G02*
X80575000Y-107460000I0J75000D01*
G01*
G37*
G36*
G01*
X81075000Y-107460000D02*
X81075000Y-106010000D01*
G75*
G02*
X81150000Y-105935000I75000J0D01*
G01*
X81300000Y-105935000D01*
G75*
G02*
X81375000Y-106010000I0J-75000D01*
G01*
X81375000Y-107460000D01*
G75*
G02*
X81300000Y-107535000I-75000J0D01*
G01*
X81150000Y-107535000D01*
G75*
G02*
X81075000Y-107460000I0J75000D01*
G01*
G37*
G36*
G01*
X81575000Y-107460000D02*
X81575000Y-106010000D01*
G75*
G02*
X81650000Y-105935000I75000J0D01*
G01*
X81800000Y-105935000D01*
G75*
G02*
X81875000Y-106010000I0J-75000D01*
G01*
X81875000Y-107460000D01*
G75*
G02*
X81800000Y-107535000I-75000J0D01*
G01*
X81650000Y-107535000D01*
G75*
G02*
X81575000Y-107460000I0J75000D01*
G01*
G37*
G36*
G01*
X82075000Y-107460000D02*
X82075000Y-106010000D01*
G75*
G02*
X82150000Y-105935000I75000J0D01*
G01*
X82300000Y-105935000D01*
G75*
G02*
X82375000Y-106010000I0J-75000D01*
G01*
X82375000Y-107460000D01*
G75*
G02*
X82300000Y-107535000I-75000J0D01*
G01*
X82150000Y-107535000D01*
G75*
G02*
X82075000Y-107460000I0J75000D01*
G01*
G37*
G36*
G01*
X82575000Y-107460000D02*
X82575000Y-106010000D01*
G75*
G02*
X82650000Y-105935000I75000J0D01*
G01*
X82800000Y-105935000D01*
G75*
G02*
X82875000Y-106010000I0J-75000D01*
G01*
X82875000Y-107460000D01*
G75*
G02*
X82800000Y-107535000I-75000J0D01*
G01*
X82650000Y-107535000D01*
G75*
G02*
X82575000Y-107460000I0J75000D01*
G01*
G37*
G36*
G01*
X83075000Y-107460000D02*
X83075000Y-106010000D01*
G75*
G02*
X83150000Y-105935000I75000J0D01*
G01*
X83300000Y-105935000D01*
G75*
G02*
X83375000Y-106010000I0J-75000D01*
G01*
X83375000Y-107460000D01*
G75*
G02*
X83300000Y-107535000I-75000J0D01*
G01*
X83150000Y-107535000D01*
G75*
G02*
X83075000Y-107460000I0J75000D01*
G01*
G37*
G36*
G01*
X83575000Y-107460000D02*
X83575000Y-106010000D01*
G75*
G02*
X83650000Y-105935000I75000J0D01*
G01*
X83800000Y-105935000D01*
G75*
G02*
X83875000Y-106010000I0J-75000D01*
G01*
X83875000Y-107460000D01*
G75*
G02*
X83800000Y-107535000I-75000J0D01*
G01*
X83650000Y-107535000D01*
G75*
G02*
X83575000Y-107460000I0J75000D01*
G01*
G37*
G36*
G01*
X84075000Y-107460000D02*
X84075000Y-106010000D01*
G75*
G02*
X84150000Y-105935000I75000J0D01*
G01*
X84300000Y-105935000D01*
G75*
G02*
X84375000Y-106010000I0J-75000D01*
G01*
X84375000Y-107460000D01*
G75*
G02*
X84300000Y-107535000I-75000J0D01*
G01*
X84150000Y-107535000D01*
G75*
G02*
X84075000Y-107460000I0J75000D01*
G01*
G37*
G36*
G01*
X84575000Y-107460000D02*
X84575000Y-106010000D01*
G75*
G02*
X84650000Y-105935000I75000J0D01*
G01*
X84800000Y-105935000D01*
G75*
G02*
X84875000Y-106010000I0J-75000D01*
G01*
X84875000Y-107460000D01*
G75*
G02*
X84800000Y-107535000I-75000J0D01*
G01*
X84650000Y-107535000D01*
G75*
G02*
X84575000Y-107460000I0J75000D01*
G01*
G37*
G36*
G01*
X85075000Y-107460000D02*
X85075000Y-106010000D01*
G75*
G02*
X85150000Y-105935000I75000J0D01*
G01*
X85300000Y-105935000D01*
G75*
G02*
X85375000Y-106010000I0J-75000D01*
G01*
X85375000Y-107460000D01*
G75*
G02*
X85300000Y-107535000I-75000J0D01*
G01*
X85150000Y-107535000D01*
G75*
G02*
X85075000Y-107460000I0J75000D01*
G01*
G37*
G36*
G01*
X85575000Y-107460000D02*
X85575000Y-106010000D01*
G75*
G02*
X85650000Y-105935000I75000J0D01*
G01*
X85800000Y-105935000D01*
G75*
G02*
X85875000Y-106010000I0J-75000D01*
G01*
X85875000Y-107460000D01*
G75*
G02*
X85800000Y-107535000I-75000J0D01*
G01*
X85650000Y-107535000D01*
G75*
G02*
X85575000Y-107460000I0J75000D01*
G01*
G37*
G36*
G01*
X86075000Y-107460000D02*
X86075000Y-106010000D01*
G75*
G02*
X86150000Y-105935000I75000J0D01*
G01*
X86300000Y-105935000D01*
G75*
G02*
X86375000Y-106010000I0J-75000D01*
G01*
X86375000Y-107460000D01*
G75*
G02*
X86300000Y-107535000I-75000J0D01*
G01*
X86150000Y-107535000D01*
G75*
G02*
X86075000Y-107460000I0J75000D01*
G01*
G37*
G36*
G01*
X86575000Y-107460000D02*
X86575000Y-106010000D01*
G75*
G02*
X86650000Y-105935000I75000J0D01*
G01*
X86800000Y-105935000D01*
G75*
G02*
X86875000Y-106010000I0J-75000D01*
G01*
X86875000Y-107460000D01*
G75*
G02*
X86800000Y-107535000I-75000J0D01*
G01*
X86650000Y-107535000D01*
G75*
G02*
X86575000Y-107460000I0J75000D01*
G01*
G37*
G36*
G01*
X87075000Y-107460000D02*
X87075000Y-106010000D01*
G75*
G02*
X87150000Y-105935000I75000J0D01*
G01*
X87300000Y-105935000D01*
G75*
G02*
X87375000Y-106010000I0J-75000D01*
G01*
X87375000Y-107460000D01*
G75*
G02*
X87300000Y-107535000I-75000J0D01*
G01*
X87150000Y-107535000D01*
G75*
G02*
X87075000Y-107460000I0J75000D01*
G01*
G37*
G36*
G01*
X87575000Y-107460000D02*
X87575000Y-106010000D01*
G75*
G02*
X87650000Y-105935000I75000J0D01*
G01*
X87800000Y-105935000D01*
G75*
G02*
X87875000Y-106010000I0J-75000D01*
G01*
X87875000Y-107460000D01*
G75*
G02*
X87800000Y-107535000I-75000J0D01*
G01*
X87650000Y-107535000D01*
G75*
G02*
X87575000Y-107460000I0J75000D01*
G01*
G37*
G36*
G01*
X88075000Y-107460000D02*
X88075000Y-106010000D01*
G75*
G02*
X88150000Y-105935000I75000J0D01*
G01*
X88300000Y-105935000D01*
G75*
G02*
X88375000Y-106010000I0J-75000D01*
G01*
X88375000Y-107460000D01*
G75*
G02*
X88300000Y-107535000I-75000J0D01*
G01*
X88150000Y-107535000D01*
G75*
G02*
X88075000Y-107460000I0J75000D01*
G01*
G37*
G36*
G01*
X88575000Y-107460000D02*
X88575000Y-106010000D01*
G75*
G02*
X88650000Y-105935000I75000J0D01*
G01*
X88800000Y-105935000D01*
G75*
G02*
X88875000Y-106010000I0J-75000D01*
G01*
X88875000Y-107460000D01*
G75*
G02*
X88800000Y-107535000I-75000J0D01*
G01*
X88650000Y-107535000D01*
G75*
G02*
X88575000Y-107460000I0J75000D01*
G01*
G37*
G36*
G01*
X89075000Y-107460000D02*
X89075000Y-106010000D01*
G75*
G02*
X89150000Y-105935000I75000J0D01*
G01*
X89300000Y-105935000D01*
G75*
G02*
X89375000Y-106010000I0J-75000D01*
G01*
X89375000Y-107460000D01*
G75*
G02*
X89300000Y-107535000I-75000J0D01*
G01*
X89150000Y-107535000D01*
G75*
G02*
X89075000Y-107460000I0J75000D01*
G01*
G37*
G36*
G01*
X89575000Y-107460000D02*
X89575000Y-106010000D01*
G75*
G02*
X89650000Y-105935000I75000J0D01*
G01*
X89800000Y-105935000D01*
G75*
G02*
X89875000Y-106010000I0J-75000D01*
G01*
X89875000Y-107460000D01*
G75*
G02*
X89800000Y-107535000I-75000J0D01*
G01*
X89650000Y-107535000D01*
G75*
G02*
X89575000Y-107460000I0J75000D01*
G01*
G37*
G36*
G01*
X90075000Y-107460000D02*
X90075000Y-106010000D01*
G75*
G02*
X90150000Y-105935000I75000J0D01*
G01*
X90300000Y-105935000D01*
G75*
G02*
X90375000Y-106010000I0J-75000D01*
G01*
X90375000Y-107460000D01*
G75*
G02*
X90300000Y-107535000I-75000J0D01*
G01*
X90150000Y-107535000D01*
G75*
G02*
X90075000Y-107460000I0J75000D01*
G01*
G37*
G36*
G01*
X90575000Y-107460000D02*
X90575000Y-106010000D01*
G75*
G02*
X90650000Y-105935000I75000J0D01*
G01*
X90800000Y-105935000D01*
G75*
G02*
X90875000Y-106010000I0J-75000D01*
G01*
X90875000Y-107460000D01*
G75*
G02*
X90800000Y-107535000I-75000J0D01*
G01*
X90650000Y-107535000D01*
G75*
G02*
X90575000Y-107460000I0J75000D01*
G01*
G37*
G36*
G01*
X91075000Y-107460000D02*
X91075000Y-106010000D01*
G75*
G02*
X91150000Y-105935000I75000J0D01*
G01*
X91300000Y-105935000D01*
G75*
G02*
X91375000Y-106010000I0J-75000D01*
G01*
X91375000Y-107460000D01*
G75*
G02*
X91300000Y-107535000I-75000J0D01*
G01*
X91150000Y-107535000D01*
G75*
G02*
X91075000Y-107460000I0J75000D01*
G01*
G37*
G36*
G01*
X91575000Y-107460000D02*
X91575000Y-106010000D01*
G75*
G02*
X91650000Y-105935000I75000J0D01*
G01*
X91800000Y-105935000D01*
G75*
G02*
X91875000Y-106010000I0J-75000D01*
G01*
X91875000Y-107460000D01*
G75*
G02*
X91800000Y-107535000I-75000J0D01*
G01*
X91650000Y-107535000D01*
G75*
G02*
X91575000Y-107460000I0J75000D01*
G01*
G37*
G36*
G01*
X92600000Y-105135000D02*
X92600000Y-104985000D01*
G75*
G02*
X92675000Y-104910000I75000J0D01*
G01*
X94125000Y-104910000D01*
G75*
G02*
X94200000Y-104985000I0J-75000D01*
G01*
X94200000Y-105135000D01*
G75*
G02*
X94125000Y-105210000I-75000J0D01*
G01*
X92675000Y-105210000D01*
G75*
G02*
X92600000Y-105135000I0J75000D01*
G01*
G37*
G36*
G01*
X92600000Y-104635000D02*
X92600000Y-104485000D01*
G75*
G02*
X92675000Y-104410000I75000J0D01*
G01*
X94125000Y-104410000D01*
G75*
G02*
X94200000Y-104485000I0J-75000D01*
G01*
X94200000Y-104635000D01*
G75*
G02*
X94125000Y-104710000I-75000J0D01*
G01*
X92675000Y-104710000D01*
G75*
G02*
X92600000Y-104635000I0J75000D01*
G01*
G37*
G36*
G01*
X92600000Y-104135000D02*
X92600000Y-103985000D01*
G75*
G02*
X92675000Y-103910000I75000J0D01*
G01*
X94125000Y-103910000D01*
G75*
G02*
X94200000Y-103985000I0J-75000D01*
G01*
X94200000Y-104135000D01*
G75*
G02*
X94125000Y-104210000I-75000J0D01*
G01*
X92675000Y-104210000D01*
G75*
G02*
X92600000Y-104135000I0J75000D01*
G01*
G37*
G36*
G01*
X92600000Y-103635000D02*
X92600000Y-103485000D01*
G75*
G02*
X92675000Y-103410000I75000J0D01*
G01*
X94125000Y-103410000D01*
G75*
G02*
X94200000Y-103485000I0J-75000D01*
G01*
X94200000Y-103635000D01*
G75*
G02*
X94125000Y-103710000I-75000J0D01*
G01*
X92675000Y-103710000D01*
G75*
G02*
X92600000Y-103635000I0J75000D01*
G01*
G37*
G36*
G01*
X92600000Y-103135000D02*
X92600000Y-102985000D01*
G75*
G02*
X92675000Y-102910000I75000J0D01*
G01*
X94125000Y-102910000D01*
G75*
G02*
X94200000Y-102985000I0J-75000D01*
G01*
X94200000Y-103135000D01*
G75*
G02*
X94125000Y-103210000I-75000J0D01*
G01*
X92675000Y-103210000D01*
G75*
G02*
X92600000Y-103135000I0J75000D01*
G01*
G37*
G36*
G01*
X92600000Y-102635000D02*
X92600000Y-102485000D01*
G75*
G02*
X92675000Y-102410000I75000J0D01*
G01*
X94125000Y-102410000D01*
G75*
G02*
X94200000Y-102485000I0J-75000D01*
G01*
X94200000Y-102635000D01*
G75*
G02*
X94125000Y-102710000I-75000J0D01*
G01*
X92675000Y-102710000D01*
G75*
G02*
X92600000Y-102635000I0J75000D01*
G01*
G37*
G36*
G01*
X92600000Y-102135000D02*
X92600000Y-101985000D01*
G75*
G02*
X92675000Y-101910000I75000J0D01*
G01*
X94125000Y-101910000D01*
G75*
G02*
X94200000Y-101985000I0J-75000D01*
G01*
X94200000Y-102135000D01*
G75*
G02*
X94125000Y-102210000I-75000J0D01*
G01*
X92675000Y-102210000D01*
G75*
G02*
X92600000Y-102135000I0J75000D01*
G01*
G37*
G36*
G01*
X92600000Y-101635000D02*
X92600000Y-101485000D01*
G75*
G02*
X92675000Y-101410000I75000J0D01*
G01*
X94125000Y-101410000D01*
G75*
G02*
X94200000Y-101485000I0J-75000D01*
G01*
X94200000Y-101635000D01*
G75*
G02*
X94125000Y-101710000I-75000J0D01*
G01*
X92675000Y-101710000D01*
G75*
G02*
X92600000Y-101635000I0J75000D01*
G01*
G37*
G36*
G01*
X92600000Y-101135000D02*
X92600000Y-100985000D01*
G75*
G02*
X92675000Y-100910000I75000J0D01*
G01*
X94125000Y-100910000D01*
G75*
G02*
X94200000Y-100985000I0J-75000D01*
G01*
X94200000Y-101135000D01*
G75*
G02*
X94125000Y-101210000I-75000J0D01*
G01*
X92675000Y-101210000D01*
G75*
G02*
X92600000Y-101135000I0J75000D01*
G01*
G37*
G36*
G01*
X92600000Y-100635000D02*
X92600000Y-100485000D01*
G75*
G02*
X92675000Y-100410000I75000J0D01*
G01*
X94125000Y-100410000D01*
G75*
G02*
X94200000Y-100485000I0J-75000D01*
G01*
X94200000Y-100635000D01*
G75*
G02*
X94125000Y-100710000I-75000J0D01*
G01*
X92675000Y-100710000D01*
G75*
G02*
X92600000Y-100635000I0J75000D01*
G01*
G37*
G36*
G01*
X92600000Y-100135000D02*
X92600000Y-99985000D01*
G75*
G02*
X92675000Y-99910000I75000J0D01*
G01*
X94125000Y-99910000D01*
G75*
G02*
X94200000Y-99985000I0J-75000D01*
G01*
X94200000Y-100135000D01*
G75*
G02*
X94125000Y-100210000I-75000J0D01*
G01*
X92675000Y-100210000D01*
G75*
G02*
X92600000Y-100135000I0J75000D01*
G01*
G37*
G36*
G01*
X92600000Y-99635000D02*
X92600000Y-99485000D01*
G75*
G02*
X92675000Y-99410000I75000J0D01*
G01*
X94125000Y-99410000D01*
G75*
G02*
X94200000Y-99485000I0J-75000D01*
G01*
X94200000Y-99635000D01*
G75*
G02*
X94125000Y-99710000I-75000J0D01*
G01*
X92675000Y-99710000D01*
G75*
G02*
X92600000Y-99635000I0J75000D01*
G01*
G37*
G36*
G01*
X92600000Y-99135000D02*
X92600000Y-98985000D01*
G75*
G02*
X92675000Y-98910000I75000J0D01*
G01*
X94125000Y-98910000D01*
G75*
G02*
X94200000Y-98985000I0J-75000D01*
G01*
X94200000Y-99135000D01*
G75*
G02*
X94125000Y-99210000I-75000J0D01*
G01*
X92675000Y-99210000D01*
G75*
G02*
X92600000Y-99135000I0J75000D01*
G01*
G37*
G36*
G01*
X92600000Y-98635000D02*
X92600000Y-98485000D01*
G75*
G02*
X92675000Y-98410000I75000J0D01*
G01*
X94125000Y-98410000D01*
G75*
G02*
X94200000Y-98485000I0J-75000D01*
G01*
X94200000Y-98635000D01*
G75*
G02*
X94125000Y-98710000I-75000J0D01*
G01*
X92675000Y-98710000D01*
G75*
G02*
X92600000Y-98635000I0J75000D01*
G01*
G37*
G36*
G01*
X92600000Y-98135000D02*
X92600000Y-97985000D01*
G75*
G02*
X92675000Y-97910000I75000J0D01*
G01*
X94125000Y-97910000D01*
G75*
G02*
X94200000Y-97985000I0J-75000D01*
G01*
X94200000Y-98135000D01*
G75*
G02*
X94125000Y-98210000I-75000J0D01*
G01*
X92675000Y-98210000D01*
G75*
G02*
X92600000Y-98135000I0J75000D01*
G01*
G37*
G36*
G01*
X92600000Y-97635000D02*
X92600000Y-97485000D01*
G75*
G02*
X92675000Y-97410000I75000J0D01*
G01*
X94125000Y-97410000D01*
G75*
G02*
X94200000Y-97485000I0J-75000D01*
G01*
X94200000Y-97635000D01*
G75*
G02*
X94125000Y-97710000I-75000J0D01*
G01*
X92675000Y-97710000D01*
G75*
G02*
X92600000Y-97635000I0J75000D01*
G01*
G37*
G36*
G01*
X92600000Y-97135000D02*
X92600000Y-96985000D01*
G75*
G02*
X92675000Y-96910000I75000J0D01*
G01*
X94125000Y-96910000D01*
G75*
G02*
X94200000Y-96985000I0J-75000D01*
G01*
X94200000Y-97135000D01*
G75*
G02*
X94125000Y-97210000I-75000J0D01*
G01*
X92675000Y-97210000D01*
G75*
G02*
X92600000Y-97135000I0J75000D01*
G01*
G37*
G36*
G01*
X92600000Y-96635000D02*
X92600000Y-96485000D01*
G75*
G02*
X92675000Y-96410000I75000J0D01*
G01*
X94125000Y-96410000D01*
G75*
G02*
X94200000Y-96485000I0J-75000D01*
G01*
X94200000Y-96635000D01*
G75*
G02*
X94125000Y-96710000I-75000J0D01*
G01*
X92675000Y-96710000D01*
G75*
G02*
X92600000Y-96635000I0J75000D01*
G01*
G37*
G36*
G01*
X92600000Y-96135000D02*
X92600000Y-95985000D01*
G75*
G02*
X92675000Y-95910000I75000J0D01*
G01*
X94125000Y-95910000D01*
G75*
G02*
X94200000Y-95985000I0J-75000D01*
G01*
X94200000Y-96135000D01*
G75*
G02*
X94125000Y-96210000I-75000J0D01*
G01*
X92675000Y-96210000D01*
G75*
G02*
X92600000Y-96135000I0J75000D01*
G01*
G37*
G36*
G01*
X92600000Y-95635000D02*
X92600000Y-95485000D01*
G75*
G02*
X92675000Y-95410000I75000J0D01*
G01*
X94125000Y-95410000D01*
G75*
G02*
X94200000Y-95485000I0J-75000D01*
G01*
X94200000Y-95635000D01*
G75*
G02*
X94125000Y-95710000I-75000J0D01*
G01*
X92675000Y-95710000D01*
G75*
G02*
X92600000Y-95635000I0J75000D01*
G01*
G37*
G36*
G01*
X92600000Y-95135000D02*
X92600000Y-94985000D01*
G75*
G02*
X92675000Y-94910000I75000J0D01*
G01*
X94125000Y-94910000D01*
G75*
G02*
X94200000Y-94985000I0J-75000D01*
G01*
X94200000Y-95135000D01*
G75*
G02*
X94125000Y-95210000I-75000J0D01*
G01*
X92675000Y-95210000D01*
G75*
G02*
X92600000Y-95135000I0J75000D01*
G01*
G37*
G36*
G01*
X92600000Y-94635000D02*
X92600000Y-94485000D01*
G75*
G02*
X92675000Y-94410000I75000J0D01*
G01*
X94125000Y-94410000D01*
G75*
G02*
X94200000Y-94485000I0J-75000D01*
G01*
X94200000Y-94635000D01*
G75*
G02*
X94125000Y-94710000I-75000J0D01*
G01*
X92675000Y-94710000D01*
G75*
G02*
X92600000Y-94635000I0J75000D01*
G01*
G37*
G36*
G01*
X92600000Y-94135000D02*
X92600000Y-93985000D01*
G75*
G02*
X92675000Y-93910000I75000J0D01*
G01*
X94125000Y-93910000D01*
G75*
G02*
X94200000Y-93985000I0J-75000D01*
G01*
X94200000Y-94135000D01*
G75*
G02*
X94125000Y-94210000I-75000J0D01*
G01*
X92675000Y-94210000D01*
G75*
G02*
X92600000Y-94135000I0J75000D01*
G01*
G37*
G36*
G01*
X92600000Y-93635000D02*
X92600000Y-93485000D01*
G75*
G02*
X92675000Y-93410000I75000J0D01*
G01*
X94125000Y-93410000D01*
G75*
G02*
X94200000Y-93485000I0J-75000D01*
G01*
X94200000Y-93635000D01*
G75*
G02*
X94125000Y-93710000I-75000J0D01*
G01*
X92675000Y-93710000D01*
G75*
G02*
X92600000Y-93635000I0J75000D01*
G01*
G37*
G36*
G01*
X92600000Y-93135000D02*
X92600000Y-92985000D01*
G75*
G02*
X92675000Y-92910000I75000J0D01*
G01*
X94125000Y-92910000D01*
G75*
G02*
X94200000Y-92985000I0J-75000D01*
G01*
X94200000Y-93135000D01*
G75*
G02*
X94125000Y-93210000I-75000J0D01*
G01*
X92675000Y-93210000D01*
G75*
G02*
X92600000Y-93135000I0J75000D01*
G01*
G37*
G36*
G01*
X91575000Y-92110000D02*
X91575000Y-90660000D01*
G75*
G02*
X91650000Y-90585000I75000J0D01*
G01*
X91800000Y-90585000D01*
G75*
G02*
X91875000Y-90660000I0J-75000D01*
G01*
X91875000Y-92110000D01*
G75*
G02*
X91800000Y-92185000I-75000J0D01*
G01*
X91650000Y-92185000D01*
G75*
G02*
X91575000Y-92110000I0J75000D01*
G01*
G37*
G36*
G01*
X91075000Y-92110000D02*
X91075000Y-90660000D01*
G75*
G02*
X91150000Y-90585000I75000J0D01*
G01*
X91300000Y-90585000D01*
G75*
G02*
X91375000Y-90660000I0J-75000D01*
G01*
X91375000Y-92110000D01*
G75*
G02*
X91300000Y-92185000I-75000J0D01*
G01*
X91150000Y-92185000D01*
G75*
G02*
X91075000Y-92110000I0J75000D01*
G01*
G37*
G36*
G01*
X90575000Y-92110000D02*
X90575000Y-90660000D01*
G75*
G02*
X90650000Y-90585000I75000J0D01*
G01*
X90800000Y-90585000D01*
G75*
G02*
X90875000Y-90660000I0J-75000D01*
G01*
X90875000Y-92110000D01*
G75*
G02*
X90800000Y-92185000I-75000J0D01*
G01*
X90650000Y-92185000D01*
G75*
G02*
X90575000Y-92110000I0J75000D01*
G01*
G37*
G36*
G01*
X90075000Y-92110000D02*
X90075000Y-90660000D01*
G75*
G02*
X90150000Y-90585000I75000J0D01*
G01*
X90300000Y-90585000D01*
G75*
G02*
X90375000Y-90660000I0J-75000D01*
G01*
X90375000Y-92110000D01*
G75*
G02*
X90300000Y-92185000I-75000J0D01*
G01*
X90150000Y-92185000D01*
G75*
G02*
X90075000Y-92110000I0J75000D01*
G01*
G37*
G36*
G01*
X89575000Y-92110000D02*
X89575000Y-90660000D01*
G75*
G02*
X89650000Y-90585000I75000J0D01*
G01*
X89800000Y-90585000D01*
G75*
G02*
X89875000Y-90660000I0J-75000D01*
G01*
X89875000Y-92110000D01*
G75*
G02*
X89800000Y-92185000I-75000J0D01*
G01*
X89650000Y-92185000D01*
G75*
G02*
X89575000Y-92110000I0J75000D01*
G01*
G37*
G36*
G01*
X89075000Y-92110000D02*
X89075000Y-90660000D01*
G75*
G02*
X89150000Y-90585000I75000J0D01*
G01*
X89300000Y-90585000D01*
G75*
G02*
X89375000Y-90660000I0J-75000D01*
G01*
X89375000Y-92110000D01*
G75*
G02*
X89300000Y-92185000I-75000J0D01*
G01*
X89150000Y-92185000D01*
G75*
G02*
X89075000Y-92110000I0J75000D01*
G01*
G37*
G36*
G01*
X88575000Y-92110000D02*
X88575000Y-90660000D01*
G75*
G02*
X88650000Y-90585000I75000J0D01*
G01*
X88800000Y-90585000D01*
G75*
G02*
X88875000Y-90660000I0J-75000D01*
G01*
X88875000Y-92110000D01*
G75*
G02*
X88800000Y-92185000I-75000J0D01*
G01*
X88650000Y-92185000D01*
G75*
G02*
X88575000Y-92110000I0J75000D01*
G01*
G37*
G36*
G01*
X88075000Y-92110000D02*
X88075000Y-90660000D01*
G75*
G02*
X88150000Y-90585000I75000J0D01*
G01*
X88300000Y-90585000D01*
G75*
G02*
X88375000Y-90660000I0J-75000D01*
G01*
X88375000Y-92110000D01*
G75*
G02*
X88300000Y-92185000I-75000J0D01*
G01*
X88150000Y-92185000D01*
G75*
G02*
X88075000Y-92110000I0J75000D01*
G01*
G37*
G36*
G01*
X87575000Y-92110000D02*
X87575000Y-90660000D01*
G75*
G02*
X87650000Y-90585000I75000J0D01*
G01*
X87800000Y-90585000D01*
G75*
G02*
X87875000Y-90660000I0J-75000D01*
G01*
X87875000Y-92110000D01*
G75*
G02*
X87800000Y-92185000I-75000J0D01*
G01*
X87650000Y-92185000D01*
G75*
G02*
X87575000Y-92110000I0J75000D01*
G01*
G37*
G36*
G01*
X87075000Y-92110000D02*
X87075000Y-90660000D01*
G75*
G02*
X87150000Y-90585000I75000J0D01*
G01*
X87300000Y-90585000D01*
G75*
G02*
X87375000Y-90660000I0J-75000D01*
G01*
X87375000Y-92110000D01*
G75*
G02*
X87300000Y-92185000I-75000J0D01*
G01*
X87150000Y-92185000D01*
G75*
G02*
X87075000Y-92110000I0J75000D01*
G01*
G37*
G36*
G01*
X86575000Y-92110000D02*
X86575000Y-90660000D01*
G75*
G02*
X86650000Y-90585000I75000J0D01*
G01*
X86800000Y-90585000D01*
G75*
G02*
X86875000Y-90660000I0J-75000D01*
G01*
X86875000Y-92110000D01*
G75*
G02*
X86800000Y-92185000I-75000J0D01*
G01*
X86650000Y-92185000D01*
G75*
G02*
X86575000Y-92110000I0J75000D01*
G01*
G37*
G36*
G01*
X86075000Y-92110000D02*
X86075000Y-90660000D01*
G75*
G02*
X86150000Y-90585000I75000J0D01*
G01*
X86300000Y-90585000D01*
G75*
G02*
X86375000Y-90660000I0J-75000D01*
G01*
X86375000Y-92110000D01*
G75*
G02*
X86300000Y-92185000I-75000J0D01*
G01*
X86150000Y-92185000D01*
G75*
G02*
X86075000Y-92110000I0J75000D01*
G01*
G37*
G36*
G01*
X85575000Y-92110000D02*
X85575000Y-90660000D01*
G75*
G02*
X85650000Y-90585000I75000J0D01*
G01*
X85800000Y-90585000D01*
G75*
G02*
X85875000Y-90660000I0J-75000D01*
G01*
X85875000Y-92110000D01*
G75*
G02*
X85800000Y-92185000I-75000J0D01*
G01*
X85650000Y-92185000D01*
G75*
G02*
X85575000Y-92110000I0J75000D01*
G01*
G37*
G36*
G01*
X85075000Y-92110000D02*
X85075000Y-90660000D01*
G75*
G02*
X85150000Y-90585000I75000J0D01*
G01*
X85300000Y-90585000D01*
G75*
G02*
X85375000Y-90660000I0J-75000D01*
G01*
X85375000Y-92110000D01*
G75*
G02*
X85300000Y-92185000I-75000J0D01*
G01*
X85150000Y-92185000D01*
G75*
G02*
X85075000Y-92110000I0J75000D01*
G01*
G37*
G36*
G01*
X84575000Y-92110000D02*
X84575000Y-90660000D01*
G75*
G02*
X84650000Y-90585000I75000J0D01*
G01*
X84800000Y-90585000D01*
G75*
G02*
X84875000Y-90660000I0J-75000D01*
G01*
X84875000Y-92110000D01*
G75*
G02*
X84800000Y-92185000I-75000J0D01*
G01*
X84650000Y-92185000D01*
G75*
G02*
X84575000Y-92110000I0J75000D01*
G01*
G37*
G36*
G01*
X84075000Y-92110000D02*
X84075000Y-90660000D01*
G75*
G02*
X84150000Y-90585000I75000J0D01*
G01*
X84300000Y-90585000D01*
G75*
G02*
X84375000Y-90660000I0J-75000D01*
G01*
X84375000Y-92110000D01*
G75*
G02*
X84300000Y-92185000I-75000J0D01*
G01*
X84150000Y-92185000D01*
G75*
G02*
X84075000Y-92110000I0J75000D01*
G01*
G37*
G36*
G01*
X83575000Y-92110000D02*
X83575000Y-90660000D01*
G75*
G02*
X83650000Y-90585000I75000J0D01*
G01*
X83800000Y-90585000D01*
G75*
G02*
X83875000Y-90660000I0J-75000D01*
G01*
X83875000Y-92110000D01*
G75*
G02*
X83800000Y-92185000I-75000J0D01*
G01*
X83650000Y-92185000D01*
G75*
G02*
X83575000Y-92110000I0J75000D01*
G01*
G37*
G36*
G01*
X83075000Y-92110000D02*
X83075000Y-90660000D01*
G75*
G02*
X83150000Y-90585000I75000J0D01*
G01*
X83300000Y-90585000D01*
G75*
G02*
X83375000Y-90660000I0J-75000D01*
G01*
X83375000Y-92110000D01*
G75*
G02*
X83300000Y-92185000I-75000J0D01*
G01*
X83150000Y-92185000D01*
G75*
G02*
X83075000Y-92110000I0J75000D01*
G01*
G37*
G36*
G01*
X82575000Y-92110000D02*
X82575000Y-90660000D01*
G75*
G02*
X82650000Y-90585000I75000J0D01*
G01*
X82800000Y-90585000D01*
G75*
G02*
X82875000Y-90660000I0J-75000D01*
G01*
X82875000Y-92110000D01*
G75*
G02*
X82800000Y-92185000I-75000J0D01*
G01*
X82650000Y-92185000D01*
G75*
G02*
X82575000Y-92110000I0J75000D01*
G01*
G37*
G36*
G01*
X82075000Y-92110000D02*
X82075000Y-90660000D01*
G75*
G02*
X82150000Y-90585000I75000J0D01*
G01*
X82300000Y-90585000D01*
G75*
G02*
X82375000Y-90660000I0J-75000D01*
G01*
X82375000Y-92110000D01*
G75*
G02*
X82300000Y-92185000I-75000J0D01*
G01*
X82150000Y-92185000D01*
G75*
G02*
X82075000Y-92110000I0J75000D01*
G01*
G37*
G36*
G01*
X81575000Y-92110000D02*
X81575000Y-90660000D01*
G75*
G02*
X81650000Y-90585000I75000J0D01*
G01*
X81800000Y-90585000D01*
G75*
G02*
X81875000Y-90660000I0J-75000D01*
G01*
X81875000Y-92110000D01*
G75*
G02*
X81800000Y-92185000I-75000J0D01*
G01*
X81650000Y-92185000D01*
G75*
G02*
X81575000Y-92110000I0J75000D01*
G01*
G37*
G36*
G01*
X81075000Y-92110000D02*
X81075000Y-90660000D01*
G75*
G02*
X81150000Y-90585000I75000J0D01*
G01*
X81300000Y-90585000D01*
G75*
G02*
X81375000Y-90660000I0J-75000D01*
G01*
X81375000Y-92110000D01*
G75*
G02*
X81300000Y-92185000I-75000J0D01*
G01*
X81150000Y-92185000D01*
G75*
G02*
X81075000Y-92110000I0J75000D01*
G01*
G37*
G36*
G01*
X80575000Y-92110000D02*
X80575000Y-90660000D01*
G75*
G02*
X80650000Y-90585000I75000J0D01*
G01*
X80800000Y-90585000D01*
G75*
G02*
X80875000Y-90660000I0J-75000D01*
G01*
X80875000Y-92110000D01*
G75*
G02*
X80800000Y-92185000I-75000J0D01*
G01*
X80650000Y-92185000D01*
G75*
G02*
X80575000Y-92110000I0J75000D01*
G01*
G37*
G36*
G01*
X80075000Y-92110000D02*
X80075000Y-90660000D01*
G75*
G02*
X80150000Y-90585000I75000J0D01*
G01*
X80300000Y-90585000D01*
G75*
G02*
X80375000Y-90660000I0J-75000D01*
G01*
X80375000Y-92110000D01*
G75*
G02*
X80300000Y-92185000I-75000J0D01*
G01*
X80150000Y-92185000D01*
G75*
G02*
X80075000Y-92110000I0J75000D01*
G01*
G37*
G36*
G01*
X79575000Y-92110000D02*
X79575000Y-90660000D01*
G75*
G02*
X79650000Y-90585000I75000J0D01*
G01*
X79800000Y-90585000D01*
G75*
G02*
X79875000Y-90660000I0J-75000D01*
G01*
X79875000Y-92110000D01*
G75*
G02*
X79800000Y-92185000I-75000J0D01*
G01*
X79650000Y-92185000D01*
G75*
G02*
X79575000Y-92110000I0J75000D01*
G01*
G37*
%TD*%
D12*
%TO.C,K1*%
X63200000Y-64090000D03*
D13*
X63200000Y-51890000D03*
D12*
X51200000Y-64090000D03*
D13*
X57150000Y-66040000D03*
%TD*%
%TO.C,C1*%
G36*
G01*
X78785000Y-88515000D02*
X78785000Y-88015000D01*
G75*
G02*
X79010000Y-87790000I225000J0D01*
G01*
X79460000Y-87790000D01*
G75*
G02*
X79685000Y-88015000I0J-225000D01*
G01*
X79685000Y-88515000D01*
G75*
G02*
X79460000Y-88740000I-225000J0D01*
G01*
X79010000Y-88740000D01*
G75*
G02*
X78785000Y-88515000I0J225000D01*
G01*
G37*
G36*
G01*
X80335000Y-88515000D02*
X80335000Y-88015000D01*
G75*
G02*
X80560000Y-87790000I225000J0D01*
G01*
X81010000Y-87790000D01*
G75*
G02*
X81235000Y-88015000I0J-225000D01*
G01*
X81235000Y-88515000D01*
G75*
G02*
X81010000Y-88740000I-225000J0D01*
G01*
X80560000Y-88740000D01*
G75*
G02*
X80335000Y-88515000I0J225000D01*
G01*
G37*
%TD*%
%TO.C,C2*%
G36*
G01*
X75774000Y-103335000D02*
X75774000Y-103675000D01*
G75*
G02*
X75634000Y-103815000I-140000J0D01*
G01*
X75354000Y-103815000D01*
G75*
G02*
X75214000Y-103675000I0J140000D01*
G01*
X75214000Y-103335000D01*
G75*
G02*
X75354000Y-103195000I140000J0D01*
G01*
X75634000Y-103195000D01*
G75*
G02*
X75774000Y-103335000I0J-140000D01*
G01*
G37*
G36*
G01*
X76734000Y-103335000D02*
X76734000Y-103675000D01*
G75*
G02*
X76594000Y-103815000I-140000J0D01*
G01*
X76314000Y-103815000D01*
G75*
G02*
X76174000Y-103675000I0J140000D01*
G01*
X76174000Y-103335000D01*
G75*
G02*
X76314000Y-103195000I140000J0D01*
G01*
X76594000Y-103195000D01*
G75*
G02*
X76734000Y-103335000I0J-140000D01*
G01*
G37*
%TD*%
%TO.C,C3*%
G36*
G01*
X94826000Y-93037000D02*
X95166000Y-93037000D01*
G75*
G02*
X95306000Y-93177000I0J-140000D01*
G01*
X95306000Y-93457000D01*
G75*
G02*
X95166000Y-93597000I-140000J0D01*
G01*
X94826000Y-93597000D01*
G75*
G02*
X94686000Y-93457000I0J140000D01*
G01*
X94686000Y-93177000D01*
G75*
G02*
X94826000Y-93037000I140000J0D01*
G01*
G37*
G36*
G01*
X94826000Y-92077000D02*
X95166000Y-92077000D01*
G75*
G02*
X95306000Y-92217000I0J-140000D01*
G01*
X95306000Y-92497000D01*
G75*
G02*
X95166000Y-92637000I-140000J0D01*
G01*
X94826000Y-92637000D01*
G75*
G02*
X94686000Y-92497000I0J140000D01*
G01*
X94686000Y-92217000D01*
G75*
G02*
X94826000Y-92077000I140000J0D01*
G01*
G37*
%TD*%
%TO.C,C4*%
G36*
G01*
X91231000Y-109851000D02*
X91231000Y-109351000D01*
G75*
G02*
X91456000Y-109126000I225000J0D01*
G01*
X91906000Y-109126000D01*
G75*
G02*
X92131000Y-109351000I0J-225000D01*
G01*
X92131000Y-109851000D01*
G75*
G02*
X91906000Y-110076000I-225000J0D01*
G01*
X91456000Y-110076000D01*
G75*
G02*
X91231000Y-109851000I0J225000D01*
G01*
G37*
G36*
G01*
X92781000Y-109851000D02*
X92781000Y-109351000D01*
G75*
G02*
X93006000Y-109126000I225000J0D01*
G01*
X93456000Y-109126000D01*
G75*
G02*
X93681000Y-109351000I0J-225000D01*
G01*
X93681000Y-109851000D01*
G75*
G02*
X93456000Y-110076000I-225000J0D01*
G01*
X93006000Y-110076000D01*
G75*
G02*
X92781000Y-109851000I0J225000D01*
G01*
G37*
%TD*%
%TO.C,C5*%
G36*
G01*
X76284000Y-101249000D02*
X76624000Y-101249000D01*
G75*
G02*
X76764000Y-101389000I0J-140000D01*
G01*
X76764000Y-101669000D01*
G75*
G02*
X76624000Y-101809000I-140000J0D01*
G01*
X76284000Y-101809000D01*
G75*
G02*
X76144000Y-101669000I0J140000D01*
G01*
X76144000Y-101389000D01*
G75*
G02*
X76284000Y-101249000I140000J0D01*
G01*
G37*
G36*
G01*
X76284000Y-102209000D02*
X76624000Y-102209000D01*
G75*
G02*
X76764000Y-102349000I0J-140000D01*
G01*
X76764000Y-102629000D01*
G75*
G02*
X76624000Y-102769000I-140000J0D01*
G01*
X76284000Y-102769000D01*
G75*
G02*
X76144000Y-102629000I0J140000D01*
G01*
X76144000Y-102349000D01*
G75*
G02*
X76284000Y-102209000I140000J0D01*
G01*
G37*
%TD*%
%TO.C,C6*%
G36*
G01*
X67734000Y-99439000D02*
X67394000Y-99439000D01*
G75*
G02*
X67254000Y-99299000I0J140000D01*
G01*
X67254000Y-99019000D01*
G75*
G02*
X67394000Y-98879000I140000J0D01*
G01*
X67734000Y-98879000D01*
G75*
G02*
X67874000Y-99019000I0J-140000D01*
G01*
X67874000Y-99299000D01*
G75*
G02*
X67734000Y-99439000I-140000J0D01*
G01*
G37*
G36*
G01*
X67734000Y-98479000D02*
X67394000Y-98479000D01*
G75*
G02*
X67254000Y-98339000I0J140000D01*
G01*
X67254000Y-98059000D01*
G75*
G02*
X67394000Y-97919000I140000J0D01*
G01*
X67734000Y-97919000D01*
G75*
G02*
X67874000Y-98059000I0J-140000D01*
G01*
X67874000Y-98339000D01*
G75*
G02*
X67734000Y-98479000I-140000J0D01*
G01*
G37*
%TD*%
%TO.C,C7*%
G36*
G01*
X92656000Y-108501000D02*
X92656000Y-108161000D01*
G75*
G02*
X92796000Y-108021000I140000J0D01*
G01*
X93076000Y-108021000D01*
G75*
G02*
X93216000Y-108161000I0J-140000D01*
G01*
X93216000Y-108501000D01*
G75*
G02*
X93076000Y-108641000I-140000J0D01*
G01*
X92796000Y-108641000D01*
G75*
G02*
X92656000Y-108501000I0J140000D01*
G01*
G37*
G36*
G01*
X91696000Y-108501000D02*
X91696000Y-108161000D01*
G75*
G02*
X91836000Y-108021000I140000J0D01*
G01*
X92116000Y-108021000D01*
G75*
G02*
X92256000Y-108161000I0J-140000D01*
G01*
X92256000Y-108501000D01*
G75*
G02*
X92116000Y-108641000I-140000J0D01*
G01*
X91836000Y-108641000D01*
G75*
G02*
X91696000Y-108501000I0J140000D01*
G01*
G37*
%TD*%
%TO.C,C8*%
G36*
G01*
X96516000Y-92512000D02*
X96016000Y-92512000D01*
G75*
G02*
X95791000Y-92287000I0J225000D01*
G01*
X95791000Y-91837000D01*
G75*
G02*
X96016000Y-91612000I225000J0D01*
G01*
X96516000Y-91612000D01*
G75*
G02*
X96741000Y-91837000I0J-225000D01*
G01*
X96741000Y-92287000D01*
G75*
G02*
X96516000Y-92512000I-225000J0D01*
G01*
G37*
G36*
G01*
X96516000Y-94062000D02*
X96016000Y-94062000D01*
G75*
G02*
X95791000Y-93837000I0J225000D01*
G01*
X95791000Y-93387000D01*
G75*
G02*
X96016000Y-93162000I225000J0D01*
G01*
X96516000Y-93162000D01*
G75*
G02*
X96741000Y-93387000I0J-225000D01*
G01*
X96741000Y-93837000D01*
G75*
G02*
X96516000Y-94062000I-225000J0D01*
G01*
G37*
%TD*%
%TO.C,C9*%
G36*
G01*
X76734000Y-104351000D02*
X76734000Y-104691000D01*
G75*
G02*
X76594000Y-104831000I-140000J0D01*
G01*
X76314000Y-104831000D01*
G75*
G02*
X76174000Y-104691000I0J140000D01*
G01*
X76174000Y-104351000D01*
G75*
G02*
X76314000Y-104211000I140000J0D01*
G01*
X76594000Y-104211000D01*
G75*
G02*
X76734000Y-104351000I0J-140000D01*
G01*
G37*
G36*
G01*
X75774000Y-104351000D02*
X75774000Y-104691000D01*
G75*
G02*
X75634000Y-104831000I-140000J0D01*
G01*
X75354000Y-104831000D01*
G75*
G02*
X75214000Y-104691000I0J140000D01*
G01*
X75214000Y-104351000D01*
G75*
G02*
X75354000Y-104211000I140000J0D01*
G01*
X75634000Y-104211000D01*
G75*
G02*
X75774000Y-104351000I0J-140000D01*
G01*
G37*
%TD*%
%TO.C,C10*%
G36*
G01*
X76284000Y-95605000D02*
X76624000Y-95605000D01*
G75*
G02*
X76764000Y-95745000I0J-140000D01*
G01*
X76764000Y-96025000D01*
G75*
G02*
X76624000Y-96165000I-140000J0D01*
G01*
X76284000Y-96165000D01*
G75*
G02*
X76144000Y-96025000I0J140000D01*
G01*
X76144000Y-95745000D01*
G75*
G02*
X76284000Y-95605000I140000J0D01*
G01*
G37*
G36*
G01*
X76284000Y-94645000D02*
X76624000Y-94645000D01*
G75*
G02*
X76764000Y-94785000I0J-140000D01*
G01*
X76764000Y-95065000D01*
G75*
G02*
X76624000Y-95205000I-140000J0D01*
G01*
X76284000Y-95205000D01*
G75*
G02*
X76144000Y-95065000I0J140000D01*
G01*
X76144000Y-94785000D01*
G75*
G02*
X76284000Y-94645000I140000J0D01*
G01*
G37*
%TD*%
%TO.C,C11*%
G36*
G01*
X72982000Y-98879000D02*
X73322000Y-98879000D01*
G75*
G02*
X73462000Y-99019000I0J-140000D01*
G01*
X73462000Y-99299000D01*
G75*
G02*
X73322000Y-99439000I-140000J0D01*
G01*
X72982000Y-99439000D01*
G75*
G02*
X72842000Y-99299000I0J140000D01*
G01*
X72842000Y-99019000D01*
G75*
G02*
X72982000Y-98879000I140000J0D01*
G01*
G37*
G36*
G01*
X72982000Y-97919000D02*
X73322000Y-97919000D01*
G75*
G02*
X73462000Y-98059000I0J-140000D01*
G01*
X73462000Y-98339000D01*
G75*
G02*
X73322000Y-98479000I-140000J0D01*
G01*
X72982000Y-98479000D01*
G75*
G02*
X72842000Y-98339000I0J140000D01*
G01*
X72842000Y-98059000D01*
G75*
G02*
X72982000Y-97919000I140000J0D01*
G01*
G37*
%TD*%
%TO.C,C12*%
G36*
G01*
X76624000Y-98169000D02*
X76284000Y-98169000D01*
G75*
G02*
X76144000Y-98029000I0J140000D01*
G01*
X76144000Y-97749000D01*
G75*
G02*
X76284000Y-97609000I140000J0D01*
G01*
X76624000Y-97609000D01*
G75*
G02*
X76764000Y-97749000I0J-140000D01*
G01*
X76764000Y-98029000D01*
G75*
G02*
X76624000Y-98169000I-140000J0D01*
G01*
G37*
G36*
G01*
X76624000Y-97209000D02*
X76284000Y-97209000D01*
G75*
G02*
X76144000Y-97069000I0J140000D01*
G01*
X76144000Y-96789000D01*
G75*
G02*
X76284000Y-96649000I140000J0D01*
G01*
X76624000Y-96649000D01*
G75*
G02*
X76764000Y-96789000I0J-140000D01*
G01*
X76764000Y-97069000D01*
G75*
G02*
X76624000Y-97209000I-140000J0D01*
G01*
G37*
%TD*%
%TO.C,C13*%
G36*
G01*
X80210000Y-89705000D02*
X80210000Y-89365000D01*
G75*
G02*
X80350000Y-89225000I140000J0D01*
G01*
X80630000Y-89225000D01*
G75*
G02*
X80770000Y-89365000I0J-140000D01*
G01*
X80770000Y-89705000D01*
G75*
G02*
X80630000Y-89845000I-140000J0D01*
G01*
X80350000Y-89845000D01*
G75*
G02*
X80210000Y-89705000I0J140000D01*
G01*
G37*
G36*
G01*
X79250000Y-89705000D02*
X79250000Y-89365000D01*
G75*
G02*
X79390000Y-89225000I140000J0D01*
G01*
X79670000Y-89225000D01*
G75*
G02*
X79810000Y-89365000I0J-140000D01*
G01*
X79810000Y-89705000D01*
G75*
G02*
X79670000Y-89845000I-140000J0D01*
G01*
X79390000Y-89845000D01*
G75*
G02*
X79250000Y-89705000I0J140000D01*
G01*
G37*
%TD*%
%TO.C,C14*%
G36*
G01*
X80770000Y-108161000D02*
X80770000Y-108501000D01*
G75*
G02*
X80630000Y-108641000I-140000J0D01*
G01*
X80350000Y-108641000D01*
G75*
G02*
X80210000Y-108501000I0J140000D01*
G01*
X80210000Y-108161000D01*
G75*
G02*
X80350000Y-108021000I140000J0D01*
G01*
X80630000Y-108021000D01*
G75*
G02*
X80770000Y-108161000I0J-140000D01*
G01*
G37*
G36*
G01*
X79810000Y-108161000D02*
X79810000Y-108501000D01*
G75*
G02*
X79670000Y-108641000I-140000J0D01*
G01*
X79390000Y-108641000D01*
G75*
G02*
X79250000Y-108501000I0J140000D01*
G01*
X79250000Y-108161000D01*
G75*
G02*
X79390000Y-108021000I140000J0D01*
G01*
X79670000Y-108021000D01*
G75*
G02*
X79810000Y-108161000I0J-140000D01*
G01*
G37*
%TD*%
%TO.C,C15*%
G36*
G01*
X127338000Y-88140000D02*
X127678000Y-88140000D01*
G75*
G02*
X127818000Y-88280000I0J-140000D01*
G01*
X127818000Y-88560000D01*
G75*
G02*
X127678000Y-88700000I-140000J0D01*
G01*
X127338000Y-88700000D01*
G75*
G02*
X127198000Y-88560000I0J140000D01*
G01*
X127198000Y-88280000D01*
G75*
G02*
X127338000Y-88140000I140000J0D01*
G01*
G37*
G36*
G01*
X127338000Y-89100000D02*
X127678000Y-89100000D01*
G75*
G02*
X127818000Y-89240000I0J-140000D01*
G01*
X127818000Y-89520000D01*
G75*
G02*
X127678000Y-89660000I-140000J0D01*
G01*
X127338000Y-89660000D01*
G75*
G02*
X127198000Y-89520000I0J140000D01*
G01*
X127198000Y-89240000D01*
G75*
G02*
X127338000Y-89100000I140000J0D01*
G01*
G37*
%TD*%
%TO.C,C16*%
G36*
G01*
X130294000Y-85377000D02*
X130294000Y-86327000D01*
G75*
G02*
X130044000Y-86577000I-250000J0D01*
G01*
X129544000Y-86577000D01*
G75*
G02*
X129294000Y-86327000I0J250000D01*
G01*
X129294000Y-85377000D01*
G75*
G02*
X129544000Y-85127000I250000J0D01*
G01*
X130044000Y-85127000D01*
G75*
G02*
X130294000Y-85377000I0J-250000D01*
G01*
G37*
G36*
G01*
X132194000Y-85377000D02*
X132194000Y-86327000D01*
G75*
G02*
X131944000Y-86577000I-250000J0D01*
G01*
X131444000Y-86577000D01*
G75*
G02*
X131194000Y-86327000I0J250000D01*
G01*
X131194000Y-85377000D01*
G75*
G02*
X131444000Y-85127000I250000J0D01*
G01*
X131944000Y-85127000D01*
G75*
G02*
X132194000Y-85377000I0J-250000D01*
G01*
G37*
%TD*%
%TO.C,C17*%
G36*
G01*
X115898000Y-87597000D02*
X115898000Y-86647000D01*
G75*
G02*
X116148000Y-86397000I250000J0D01*
G01*
X116648000Y-86397000D01*
G75*
G02*
X116898000Y-86647000I0J-250000D01*
G01*
X116898000Y-87597000D01*
G75*
G02*
X116648000Y-87847000I-250000J0D01*
G01*
X116148000Y-87847000D01*
G75*
G02*
X115898000Y-87597000I0J250000D01*
G01*
G37*
G36*
G01*
X117798000Y-87597000D02*
X117798000Y-86647000D01*
G75*
G02*
X118048000Y-86397000I250000J0D01*
G01*
X118548000Y-86397000D01*
G75*
G02*
X118798000Y-86647000I0J-250000D01*
G01*
X118798000Y-87597000D01*
G75*
G02*
X118548000Y-87847000I-250000J0D01*
G01*
X118048000Y-87847000D01*
G75*
G02*
X117798000Y-87597000I0J250000D01*
G01*
G37*
%TD*%
%TO.C,C18*%
G36*
G01*
X125726000Y-92893000D02*
X125226000Y-92893000D01*
G75*
G02*
X125001000Y-92668000I0J225000D01*
G01*
X125001000Y-92218000D01*
G75*
G02*
X125226000Y-91993000I225000J0D01*
G01*
X125726000Y-91993000D01*
G75*
G02*
X125951000Y-92218000I0J-225000D01*
G01*
X125951000Y-92668000D01*
G75*
G02*
X125726000Y-92893000I-225000J0D01*
G01*
G37*
G36*
G01*
X125726000Y-94443000D02*
X125226000Y-94443000D01*
G75*
G02*
X125001000Y-94218000I0J225000D01*
G01*
X125001000Y-93768000D01*
G75*
G02*
X125226000Y-93543000I225000J0D01*
G01*
X125726000Y-93543000D01*
G75*
G02*
X125951000Y-93768000I0J-225000D01*
G01*
X125951000Y-94218000D01*
G75*
G02*
X125726000Y-94443000I-225000J0D01*
G01*
G37*
%TD*%
%TO.C,C19*%
G36*
G01*
X59266000Y-110238000D02*
X59606000Y-110238000D01*
G75*
G02*
X59746000Y-110378000I0J-140000D01*
G01*
X59746000Y-110658000D01*
G75*
G02*
X59606000Y-110798000I-140000J0D01*
G01*
X59266000Y-110798000D01*
G75*
G02*
X59126000Y-110658000I0J140000D01*
G01*
X59126000Y-110378000D01*
G75*
G02*
X59266000Y-110238000I140000J0D01*
G01*
G37*
G36*
G01*
X59266000Y-111198000D02*
X59606000Y-111198000D01*
G75*
G02*
X59746000Y-111338000I0J-140000D01*
G01*
X59746000Y-111618000D01*
G75*
G02*
X59606000Y-111758000I-140000J0D01*
G01*
X59266000Y-111758000D01*
G75*
G02*
X59126000Y-111618000I0J140000D01*
G01*
X59126000Y-111338000D01*
G75*
G02*
X59266000Y-111198000I140000J0D01*
G01*
G37*
%TD*%
%TO.C,C20*%
G36*
G01*
X59606000Y-106734000D02*
X59266000Y-106734000D01*
G75*
G02*
X59126000Y-106594000I0J140000D01*
G01*
X59126000Y-106314000D01*
G75*
G02*
X59266000Y-106174000I140000J0D01*
G01*
X59606000Y-106174000D01*
G75*
G02*
X59746000Y-106314000I0J-140000D01*
G01*
X59746000Y-106594000D01*
G75*
G02*
X59606000Y-106734000I-140000J0D01*
G01*
G37*
G36*
G01*
X59606000Y-107694000D02*
X59266000Y-107694000D01*
G75*
G02*
X59126000Y-107554000I0J140000D01*
G01*
X59126000Y-107274000D01*
G75*
G02*
X59266000Y-107134000I140000J0D01*
G01*
X59606000Y-107134000D01*
G75*
G02*
X59746000Y-107274000I0J-140000D01*
G01*
X59746000Y-107554000D01*
G75*
G02*
X59606000Y-107694000I-140000J0D01*
G01*
G37*
%TD*%
%TO.C,C21*%
G36*
G01*
X59606000Y-109726000D02*
X59266000Y-109726000D01*
G75*
G02*
X59126000Y-109586000I0J140000D01*
G01*
X59126000Y-109306000D01*
G75*
G02*
X59266000Y-109166000I140000J0D01*
G01*
X59606000Y-109166000D01*
G75*
G02*
X59746000Y-109306000I0J-140000D01*
G01*
X59746000Y-109586000D01*
G75*
G02*
X59606000Y-109726000I-140000J0D01*
G01*
G37*
G36*
G01*
X59606000Y-108766000D02*
X59266000Y-108766000D01*
G75*
G02*
X59126000Y-108626000I0J140000D01*
G01*
X59126000Y-108346000D01*
G75*
G02*
X59266000Y-108206000I140000J0D01*
G01*
X59606000Y-108206000D01*
G75*
G02*
X59746000Y-108346000I0J-140000D01*
G01*
X59746000Y-108626000D01*
G75*
G02*
X59606000Y-108766000I-140000J0D01*
G01*
G37*
%TD*%
%TO.C,C22*%
G36*
G01*
X62312000Y-112098000D02*
X62312000Y-112438000D01*
G75*
G02*
X62172000Y-112578000I-140000J0D01*
G01*
X61892000Y-112578000D01*
G75*
G02*
X61752000Y-112438000I0J140000D01*
G01*
X61752000Y-112098000D01*
G75*
G02*
X61892000Y-111958000I140000J0D01*
G01*
X62172000Y-111958000D01*
G75*
G02*
X62312000Y-112098000I0J-140000D01*
G01*
G37*
G36*
G01*
X63272000Y-112098000D02*
X63272000Y-112438000D01*
G75*
G02*
X63132000Y-112578000I-140000J0D01*
G01*
X62852000Y-112578000D01*
G75*
G02*
X62712000Y-112438000I0J140000D01*
G01*
X62712000Y-112098000D01*
G75*
G02*
X62852000Y-111958000I140000J0D01*
G01*
X63132000Y-111958000D01*
G75*
G02*
X63272000Y-112098000I0J-140000D01*
G01*
G37*
%TD*%
D14*
%TO.C,CONN1*%
X122682000Y-104942000D03*
D15*
X122682000Y-107442000D03*
X124682000Y-107442000D03*
X124682000Y-104942000D03*
D16*
X127392000Y-100172000D03*
X127392000Y-112212000D03*
%TD*%
D17*
%TO.C,CONN2*%
X108376000Y-90170000D03*
X104476000Y-90170000D03*
X108376000Y-88900000D03*
X104476000Y-88900000D03*
X108376000Y-87630000D03*
X104476000Y-87630000D03*
X108376000Y-86360000D03*
X104476000Y-86360000D03*
X108376000Y-85090000D03*
X104476000Y-85090000D03*
%TD*%
D18*
%TO.C,CONN_AC1*%
X130175000Y-40640000D03*
D19*
X122555000Y-40640000D03*
%TD*%
D18*
%TO.C,CONN_HEATER1*%
X96520000Y-40640000D03*
D19*
X88900000Y-40640000D03*
%TD*%
%TO.C,CONN_LIGHT1*%
X71120000Y-40640000D03*
D18*
X78740000Y-40640000D03*
%TD*%
%TO.C,CONN_FAN1*%
X60960000Y-40640000D03*
D19*
X53340000Y-40640000D03*
%TD*%
D20*
%TO.C,D1*%
X132842000Y-90554000D03*
X132842000Y-87754000D03*
%TD*%
D21*
%TO.C,D2*%
X126873000Y-86614000D03*
X126873000Y-83314000D03*
%TD*%
D22*
%TO.C,D3*%
X90170000Y-62865000D03*
D23*
X92710000Y-62865000D03*
X95250000Y-62865000D03*
%TD*%
D24*
%TO.C,D4*%
X72390000Y-61855000D03*
X77470000Y-61855000D03*
D25*
X74930000Y-52705000D03*
%TD*%
D20*
%TO.C,D5*%
X55750000Y-73025000D03*
X58550000Y-73025000D03*
%TD*%
D26*
%TO.C,ESD1*%
X118171000Y-102024000D03*
X117221000Y-102024000D03*
X116271000Y-102024000D03*
X116271000Y-104224000D03*
X118171000Y-104224000D03*
X117221000Y-104224000D03*
%TD*%
D27*
%TO.C,H1*%
X55000000Y-91000000D03*
D28*
X58975000Y-91000000D03*
X57810749Y-93810749D03*
X55000000Y-94975000D03*
X52189251Y-93810749D03*
X51025000Y-91000000D03*
X52189251Y-88189251D03*
X55000000Y-87025000D03*
X57810749Y-88189251D03*
%TD*%
%TO.C,H2*%
X110810749Y-47189251D03*
X108000000Y-46025000D03*
X105189251Y-47189251D03*
X104025000Y-50000000D03*
X105189251Y-52810749D03*
X108000000Y-53975000D03*
X110810749Y-52810749D03*
X111975000Y-50000000D03*
D27*
X108000000Y-50000000D03*
%TD*%
%TO.C,H3*%
X108000000Y-100000000D03*
D28*
X111975000Y-100000000D03*
X110810749Y-102810749D03*
X108000000Y-103975000D03*
X105189251Y-102810749D03*
X104025000Y-100000000D03*
X105189251Y-97189251D03*
X108000000Y-96025000D03*
X110810749Y-97189251D03*
%TD*%
D29*
%TO.C,L1*%
X124460000Y-87122000D03*
X120360000Y-87122000D03*
%TD*%
D30*
%TO.C,PS1*%
X133985000Y-78800000D03*
D31*
X133985000Y-50800000D03*
D30*
X118785000Y-50800000D03*
X126385000Y-78800000D03*
%TD*%
D32*
%TO.C,Q1*%
X56200000Y-77200000D03*
X58100000Y-77200000D03*
X57150000Y-75200000D03*
%TD*%
%TO.C,R1*%
G36*
G01*
X71136000Y-100780000D02*
X71136000Y-101150000D01*
G75*
G02*
X71001000Y-101285000I-135000J0D01*
G01*
X70731000Y-101285000D01*
G75*
G02*
X70596000Y-101150000I0J135000D01*
G01*
X70596000Y-100780000D01*
G75*
G02*
X70731000Y-100645000I135000J0D01*
G01*
X71001000Y-100645000D01*
G75*
G02*
X71136000Y-100780000I0J-135000D01*
G01*
G37*
G36*
G01*
X70116000Y-100780000D02*
X70116000Y-101150000D01*
G75*
G02*
X69981000Y-101285000I-135000J0D01*
G01*
X69711000Y-101285000D01*
G75*
G02*
X69576000Y-101150000I0J135000D01*
G01*
X69576000Y-100780000D01*
G75*
G02*
X69711000Y-100645000I135000J0D01*
G01*
X69981000Y-100645000D01*
G75*
G02*
X70116000Y-100780000I0J-135000D01*
G01*
G37*
%TD*%
%TO.C,R2*%
G36*
G01*
X82354000Y-89553000D02*
X81984000Y-89553000D01*
G75*
G02*
X81849000Y-89418000I0J135000D01*
G01*
X81849000Y-89148000D01*
G75*
G02*
X81984000Y-89013000I135000J0D01*
G01*
X82354000Y-89013000D01*
G75*
G02*
X82489000Y-89148000I0J-135000D01*
G01*
X82489000Y-89418000D01*
G75*
G02*
X82354000Y-89553000I-135000J0D01*
G01*
G37*
G36*
G01*
X82354000Y-88533000D02*
X81984000Y-88533000D01*
G75*
G02*
X81849000Y-88398000I0J135000D01*
G01*
X81849000Y-88128000D01*
G75*
G02*
X81984000Y-87993000I135000J0D01*
G01*
X82354000Y-87993000D01*
G75*
G02*
X82489000Y-88128000I0J-135000D01*
G01*
X82489000Y-88398000D01*
G75*
G02*
X82354000Y-88533000I-135000J0D01*
G01*
G37*
%TD*%
%TO.C,R3*%
G36*
G01*
X126803999Y-93618000D02*
X127704001Y-93618000D01*
G75*
G02*
X127954000Y-93867999I0J-249999D01*
G01*
X127954000Y-94393001D01*
G75*
G02*
X127704001Y-94643000I-249999J0D01*
G01*
X126803999Y-94643000D01*
G75*
G02*
X126554000Y-94393001I0J249999D01*
G01*
X126554000Y-93867999D01*
G75*
G02*
X126803999Y-93618000I249999J0D01*
G01*
G37*
G36*
G01*
X126803999Y-91793000D02*
X127704001Y-91793000D01*
G75*
G02*
X127954000Y-92042999I0J-249999D01*
G01*
X127954000Y-92568001D01*
G75*
G02*
X127704001Y-92818000I-249999J0D01*
G01*
X126803999Y-92818000D01*
G75*
G02*
X126554000Y-92568001I0J249999D01*
G01*
X126554000Y-92042999D01*
G75*
G02*
X126803999Y-91793000I249999J0D01*
G01*
G37*
%TD*%
%TO.C,R4*%
G36*
G01*
X129736001Y-94643000D02*
X128835999Y-94643000D01*
G75*
G02*
X128586000Y-94393001I0J249999D01*
G01*
X128586000Y-93867999D01*
G75*
G02*
X128835999Y-93618000I249999J0D01*
G01*
X129736001Y-93618000D01*
G75*
G02*
X129986000Y-93867999I0J-249999D01*
G01*
X129986000Y-94393001D01*
G75*
G02*
X129736001Y-94643000I-249999J0D01*
G01*
G37*
G36*
G01*
X129736001Y-92818000D02*
X128835999Y-92818000D01*
G75*
G02*
X128586000Y-92568001I0J249999D01*
G01*
X128586000Y-92042999D01*
G75*
G02*
X128835999Y-91793000I249999J0D01*
G01*
X129736001Y-91793000D01*
G75*
G02*
X129986000Y-92042999I0J-249999D01*
G01*
X129986000Y-92568001D01*
G75*
G02*
X129736001Y-92818000I-249999J0D01*
G01*
G37*
%TD*%
%TO.C,R5*%
G36*
G01*
X92197500Y-66490001D02*
X92197500Y-65589999D01*
G75*
G02*
X92447499Y-65340000I249999J0D01*
G01*
X92972501Y-65340000D01*
G75*
G02*
X93222500Y-65589999I0J-249999D01*
G01*
X93222500Y-66490001D01*
G75*
G02*
X92972501Y-66740000I-249999J0D01*
G01*
X92447499Y-66740000D01*
G75*
G02*
X92197500Y-66490001I0J249999D01*
G01*
G37*
G36*
G01*
X90372500Y-66490001D02*
X90372500Y-65589999D01*
G75*
G02*
X90622499Y-65340000I249999J0D01*
G01*
X91147501Y-65340000D01*
G75*
G02*
X91397500Y-65589999I0J-249999D01*
G01*
X91397500Y-66490001D01*
G75*
G02*
X91147501Y-66740000I-249999J0D01*
G01*
X90622499Y-66740000D01*
G75*
G02*
X90372500Y-66490001I0J249999D01*
G01*
G37*
%TD*%
%TO.C,R6*%
G36*
G01*
X72592500Y-66490001D02*
X72592500Y-65589999D01*
G75*
G02*
X72842499Y-65340000I249999J0D01*
G01*
X73367501Y-65340000D01*
G75*
G02*
X73617500Y-65589999I0J-249999D01*
G01*
X73617500Y-66490001D01*
G75*
G02*
X73367501Y-66740000I-249999J0D01*
G01*
X72842499Y-66740000D01*
G75*
G02*
X72592500Y-66490001I0J249999D01*
G01*
G37*
G36*
G01*
X74417500Y-66490001D02*
X74417500Y-65589999D01*
G75*
G02*
X74667499Y-65340000I249999J0D01*
G01*
X75192501Y-65340000D01*
G75*
G02*
X75442500Y-65589999I0J-249999D01*
G01*
X75442500Y-66490001D01*
G75*
G02*
X75192501Y-66740000I-249999J0D01*
G01*
X74667499Y-66740000D01*
G75*
G02*
X74417500Y-66490001I0J249999D01*
G01*
G37*
%TD*%
%TO.C,R7*%
G36*
G01*
X56725000Y-79100000D02*
X56725000Y-79650000D01*
G75*
G02*
X56525000Y-79850000I-200000J0D01*
G01*
X56125000Y-79850000D01*
G75*
G02*
X55925000Y-79650000I0J200000D01*
G01*
X55925000Y-79100000D01*
G75*
G02*
X56125000Y-78900000I200000J0D01*
G01*
X56525000Y-78900000D01*
G75*
G02*
X56725000Y-79100000I0J-200000D01*
G01*
G37*
G36*
G01*
X58375000Y-79100000D02*
X58375000Y-79650000D01*
G75*
G02*
X58175000Y-79850000I-200000J0D01*
G01*
X57775000Y-79850000D01*
G75*
G02*
X57575000Y-79650000I0J200000D01*
G01*
X57575000Y-79100000D01*
G75*
G02*
X57775000Y-78900000I200000J0D01*
G01*
X58175000Y-78900000D01*
G75*
G02*
X58375000Y-79100000I0J-200000D01*
G01*
G37*
%TD*%
%TO.C,R8*%
G36*
G01*
X58375000Y-81005000D02*
X58375000Y-81555000D01*
G75*
G02*
X58175000Y-81755000I-200000J0D01*
G01*
X57775000Y-81755000D01*
G75*
G02*
X57575000Y-81555000I0J200000D01*
G01*
X57575000Y-81005000D01*
G75*
G02*
X57775000Y-80805000I200000J0D01*
G01*
X58175000Y-80805000D01*
G75*
G02*
X58375000Y-81005000I0J-200000D01*
G01*
G37*
G36*
G01*
X56725000Y-81005000D02*
X56725000Y-81555000D01*
G75*
G02*
X56525000Y-81755000I-200000J0D01*
G01*
X56125000Y-81755000D01*
G75*
G02*
X55925000Y-81555000I0J200000D01*
G01*
X55925000Y-81005000D01*
G75*
G02*
X56125000Y-80805000I200000J0D01*
G01*
X56525000Y-80805000D01*
G75*
G02*
X56725000Y-81005000I0J-200000D01*
G01*
G37*
%TD*%
%TO.C,R9*%
G36*
G01*
X90445000Y-82251000D02*
X89895000Y-82251000D01*
G75*
G02*
X89695000Y-82051000I0J200000D01*
G01*
X89695000Y-81651000D01*
G75*
G02*
X89895000Y-81451000I200000J0D01*
G01*
X90445000Y-81451000D01*
G75*
G02*
X90645000Y-81651000I0J-200000D01*
G01*
X90645000Y-82051000D01*
G75*
G02*
X90445000Y-82251000I-200000J0D01*
G01*
G37*
G36*
G01*
X90445000Y-80601000D02*
X89895000Y-80601000D01*
G75*
G02*
X89695000Y-80401000I0J200000D01*
G01*
X89695000Y-80001000D01*
G75*
G02*
X89895000Y-79801000I200000J0D01*
G01*
X90445000Y-79801000D01*
G75*
G02*
X90645000Y-80001000I0J-200000D01*
G01*
X90645000Y-80401000D01*
G75*
G02*
X90445000Y-80601000I-200000J0D01*
G01*
G37*
%TD*%
%TO.C,R10*%
G36*
G01*
X72790000Y-79989000D02*
X72790000Y-80539000D01*
G75*
G02*
X72590000Y-80739000I-200000J0D01*
G01*
X72190000Y-80739000D01*
G75*
G02*
X71990000Y-80539000I0J200000D01*
G01*
X71990000Y-79989000D01*
G75*
G02*
X72190000Y-79789000I200000J0D01*
G01*
X72590000Y-79789000D01*
G75*
G02*
X72790000Y-79989000I0J-200000D01*
G01*
G37*
G36*
G01*
X74440000Y-79989000D02*
X74440000Y-80539000D01*
G75*
G02*
X74240000Y-80739000I-200000J0D01*
G01*
X73840000Y-80739000D01*
G75*
G02*
X73640000Y-80539000I0J200000D01*
G01*
X73640000Y-79989000D01*
G75*
G02*
X73840000Y-79789000I200000J0D01*
G01*
X74240000Y-79789000D01*
G75*
G02*
X74440000Y-79989000I0J-200000D01*
G01*
G37*
%TD*%
%TO.C,R11*%
G36*
G01*
X112210001Y-66552500D02*
X111309999Y-66552500D01*
G75*
G02*
X111060000Y-66302501I0J249999D01*
G01*
X111060000Y-65777499D01*
G75*
G02*
X111309999Y-65527500I249999J0D01*
G01*
X112210001Y-65527500D01*
G75*
G02*
X112460000Y-65777499I0J-249999D01*
G01*
X112460000Y-66302501D01*
G75*
G02*
X112210001Y-66552500I-249999J0D01*
G01*
G37*
G36*
G01*
X112210001Y-64727500D02*
X111309999Y-64727500D01*
G75*
G02*
X111060000Y-64477501I0J249999D01*
G01*
X111060000Y-63952499D01*
G75*
G02*
X111309999Y-63702500I249999J0D01*
G01*
X112210001Y-63702500D01*
G75*
G02*
X112460000Y-63952499I0J-249999D01*
G01*
X112460000Y-64477501D01*
G75*
G02*
X112210001Y-64727500I-249999J0D01*
G01*
G37*
%TD*%
%TO.C,R12*%
G36*
G01*
X108769999Y-65527500D02*
X109670001Y-65527500D01*
G75*
G02*
X109920000Y-65777499I0J-249999D01*
G01*
X109920000Y-66302501D01*
G75*
G02*
X109670001Y-66552500I-249999J0D01*
G01*
X108769999Y-66552500D01*
G75*
G02*
X108520000Y-66302501I0J249999D01*
G01*
X108520000Y-65777499D01*
G75*
G02*
X108769999Y-65527500I249999J0D01*
G01*
G37*
G36*
G01*
X108769999Y-63702500D02*
X109670001Y-63702500D01*
G75*
G02*
X109920000Y-63952499I0J-249999D01*
G01*
X109920000Y-64477501D01*
G75*
G02*
X109670001Y-64727500I-249999J0D01*
G01*
X108769999Y-64727500D01*
G75*
G02*
X108520000Y-64477501I0J249999D01*
G01*
X108520000Y-63952499D01*
G75*
G02*
X108769999Y-63702500I249999J0D01*
G01*
G37*
%TD*%
%TO.C,R13*%
G36*
G01*
X106725000Y-80920000D02*
X106725000Y-80370000D01*
G75*
G02*
X106925000Y-80170000I200000J0D01*
G01*
X107325000Y-80170000D01*
G75*
G02*
X107525000Y-80370000I0J-200000D01*
G01*
X107525000Y-80920000D01*
G75*
G02*
X107325000Y-81120000I-200000J0D01*
G01*
X106925000Y-81120000D01*
G75*
G02*
X106725000Y-80920000I0J200000D01*
G01*
G37*
G36*
G01*
X108375000Y-80920000D02*
X108375000Y-80370000D01*
G75*
G02*
X108575000Y-80170000I200000J0D01*
G01*
X108975000Y-80170000D01*
G75*
G02*
X109175000Y-80370000I0J-200000D01*
G01*
X109175000Y-80920000D01*
G75*
G02*
X108975000Y-81120000I-200000J0D01*
G01*
X108575000Y-81120000D01*
G75*
G02*
X108375000Y-80920000I0J200000D01*
G01*
G37*
%TD*%
%TO.C,R14*%
G36*
G01*
X101203000Y-90355000D02*
X101203000Y-89985000D01*
G75*
G02*
X101338000Y-89850000I135000J0D01*
G01*
X101608000Y-89850000D01*
G75*
G02*
X101743000Y-89985000I0J-135000D01*
G01*
X101743000Y-90355000D01*
G75*
G02*
X101608000Y-90490000I-135000J0D01*
G01*
X101338000Y-90490000D01*
G75*
G02*
X101203000Y-90355000I0J135000D01*
G01*
G37*
G36*
G01*
X100183000Y-90355000D02*
X100183000Y-89985000D01*
G75*
G02*
X100318000Y-89850000I135000J0D01*
G01*
X100588000Y-89850000D01*
G75*
G02*
X100723000Y-89985000I0J-135000D01*
G01*
X100723000Y-90355000D01*
G75*
G02*
X100588000Y-90490000I-135000J0D01*
G01*
X100318000Y-90490000D01*
G75*
G02*
X100183000Y-90355000I0J135000D01*
G01*
G37*
%TD*%
%TO.C,R15*%
G36*
G01*
X101203000Y-89085000D02*
X101203000Y-88715000D01*
G75*
G02*
X101338000Y-88580000I135000J0D01*
G01*
X101608000Y-88580000D01*
G75*
G02*
X101743000Y-88715000I0J-135000D01*
G01*
X101743000Y-89085000D01*
G75*
G02*
X101608000Y-89220000I-135000J0D01*
G01*
X101338000Y-89220000D01*
G75*
G02*
X101203000Y-89085000I0J135000D01*
G01*
G37*
G36*
G01*
X100183000Y-89085000D02*
X100183000Y-88715000D01*
G75*
G02*
X100318000Y-88580000I135000J0D01*
G01*
X100588000Y-88580000D01*
G75*
G02*
X100723000Y-88715000I0J-135000D01*
G01*
X100723000Y-89085000D01*
G75*
G02*
X100588000Y-89220000I-135000J0D01*
G01*
X100318000Y-89220000D01*
G75*
G02*
X100183000Y-89085000I0J135000D01*
G01*
G37*
%TD*%
%TO.C,R16*%
G36*
G01*
X100183000Y-87815000D02*
X100183000Y-87445000D01*
G75*
G02*
X100318000Y-87310000I135000J0D01*
G01*
X100588000Y-87310000D01*
G75*
G02*
X100723000Y-87445000I0J-135000D01*
G01*
X100723000Y-87815000D01*
G75*
G02*
X100588000Y-87950000I-135000J0D01*
G01*
X100318000Y-87950000D01*
G75*
G02*
X100183000Y-87815000I0J135000D01*
G01*
G37*
G36*
G01*
X101203000Y-87815000D02*
X101203000Y-87445000D01*
G75*
G02*
X101338000Y-87310000I135000J0D01*
G01*
X101608000Y-87310000D01*
G75*
G02*
X101743000Y-87445000I0J-135000D01*
G01*
X101743000Y-87815000D01*
G75*
G02*
X101608000Y-87950000I-135000J0D01*
G01*
X101338000Y-87950000D01*
G75*
G02*
X101203000Y-87815000I0J135000D01*
G01*
G37*
%TD*%
%TO.C,R17*%
G36*
G01*
X101203000Y-85275000D02*
X101203000Y-84905000D01*
G75*
G02*
X101338000Y-84770000I135000J0D01*
G01*
X101608000Y-84770000D01*
G75*
G02*
X101743000Y-84905000I0J-135000D01*
G01*
X101743000Y-85275000D01*
G75*
G02*
X101608000Y-85410000I-135000J0D01*
G01*
X101338000Y-85410000D01*
G75*
G02*
X101203000Y-85275000I0J135000D01*
G01*
G37*
G36*
G01*
X100183000Y-85275000D02*
X100183000Y-84905000D01*
G75*
G02*
X100318000Y-84770000I135000J0D01*
G01*
X100588000Y-84770000D01*
G75*
G02*
X100723000Y-84905000I0J-135000D01*
G01*
X100723000Y-85275000D01*
G75*
G02*
X100588000Y-85410000I-135000J0D01*
G01*
X100318000Y-85410000D01*
G75*
G02*
X100183000Y-85275000I0J135000D01*
G01*
G37*
%TD*%
D33*
%TO.C,THERMOCOUPLE1*%
X51816000Y-106680000D03*
D13*
X51816000Y-111760000D03*
%TD*%
D34*
%TO.C,U1*%
X128905000Y-90504000D03*
X129855000Y-90504000D03*
X130805000Y-90504000D03*
X130805000Y-87884000D03*
X129855000Y-87884000D03*
X128905000Y-87884000D03*
%TD*%
D35*
%TO.C,U2*%
X90170000Y-78110000D03*
X95250000Y-68580000D03*
X92710000Y-78110000D03*
X92710000Y-68580000D03*
X95250000Y-78110000D03*
X90170000Y-68580000D03*
%TD*%
%TO.C,U3*%
X72390000Y-78110000D03*
X77470000Y-68580000D03*
X74930000Y-78110000D03*
X74930000Y-68580000D03*
X77470000Y-78110000D03*
X72390000Y-68580000D03*
%TD*%
%TO.C,U4*%
X111760000Y-78110000D03*
X106680000Y-68580000D03*
X109220000Y-78110000D03*
X109220000Y-68580000D03*
X106680000Y-78110000D03*
X111760000Y-68580000D03*
%TD*%
%TO.C,U5*%
G36*
G01*
X60558000Y-107211000D02*
X60558000Y-106911000D01*
G75*
G02*
X60708000Y-106761000I150000J0D01*
G01*
X62358000Y-106761000D01*
G75*
G02*
X62508000Y-106911000I0J-150000D01*
G01*
X62508000Y-107211000D01*
G75*
G02*
X62358000Y-107361000I-150000J0D01*
G01*
X60708000Y-107361000D01*
G75*
G02*
X60558000Y-107211000I0J150000D01*
G01*
G37*
G36*
G01*
X60558000Y-108481000D02*
X60558000Y-108181000D01*
G75*
G02*
X60708000Y-108031000I150000J0D01*
G01*
X62358000Y-108031000D01*
G75*
G02*
X62508000Y-108181000I0J-150000D01*
G01*
X62508000Y-108481000D01*
G75*
G02*
X62358000Y-108631000I-150000J0D01*
G01*
X60708000Y-108631000D01*
G75*
G02*
X60558000Y-108481000I0J150000D01*
G01*
G37*
G36*
G01*
X60558000Y-109751000D02*
X60558000Y-109451000D01*
G75*
G02*
X60708000Y-109301000I150000J0D01*
G01*
X62358000Y-109301000D01*
G75*
G02*
X62508000Y-109451000I0J-150000D01*
G01*
X62508000Y-109751000D01*
G75*
G02*
X62358000Y-109901000I-150000J0D01*
G01*
X60708000Y-109901000D01*
G75*
G02*
X60558000Y-109751000I0J150000D01*
G01*
G37*
G36*
G01*
X60558000Y-111021000D02*
X60558000Y-110721000D01*
G75*
G02*
X60708000Y-110571000I150000J0D01*
G01*
X62358000Y-110571000D01*
G75*
G02*
X62508000Y-110721000I0J-150000D01*
G01*
X62508000Y-111021000D01*
G75*
G02*
X62358000Y-111171000I-150000J0D01*
G01*
X60708000Y-111171000D01*
G75*
G02*
X60558000Y-111021000I0J150000D01*
G01*
G37*
G36*
G01*
X65508000Y-111021000D02*
X65508000Y-110721000D01*
G75*
G02*
X65658000Y-110571000I150000J0D01*
G01*
X67308000Y-110571000D01*
G75*
G02*
X67458000Y-110721000I0J-150000D01*
G01*
X67458000Y-111021000D01*
G75*
G02*
X67308000Y-111171000I-150000J0D01*
G01*
X65658000Y-111171000D01*
G75*
G02*
X65508000Y-111021000I0J150000D01*
G01*
G37*
G36*
G01*
X65508000Y-109751000D02*
X65508000Y-109451000D01*
G75*
G02*
X65658000Y-109301000I150000J0D01*
G01*
X67308000Y-109301000D01*
G75*
G02*
X67458000Y-109451000I0J-150000D01*
G01*
X67458000Y-109751000D01*
G75*
G02*
X67308000Y-109901000I-150000J0D01*
G01*
X65658000Y-109901000D01*
G75*
G02*
X65508000Y-109751000I0J150000D01*
G01*
G37*
G36*
G01*
X65508000Y-108481000D02*
X65508000Y-108181000D01*
G75*
G02*
X65658000Y-108031000I150000J0D01*
G01*
X67308000Y-108031000D01*
G75*
G02*
X67458000Y-108181000I0J-150000D01*
G01*
X67458000Y-108481000D01*
G75*
G02*
X67308000Y-108631000I-150000J0D01*
G01*
X65658000Y-108631000D01*
G75*
G02*
X65508000Y-108481000I0J150000D01*
G01*
G37*
G36*
G01*
X65508000Y-107211000D02*
X65508000Y-106911000D01*
G75*
G02*
X65658000Y-106761000I150000J0D01*
G01*
X67308000Y-106761000D01*
G75*
G02*
X67458000Y-106911000I0J-150000D01*
G01*
X67458000Y-107211000D01*
G75*
G02*
X67308000Y-107361000I-150000J0D01*
G01*
X65658000Y-107361000D01*
G75*
G02*
X65508000Y-107211000I0J150000D01*
G01*
G37*
%TD*%
D36*
%TO.C,Y1*%
X71458000Y-97829000D03*
X69258000Y-97829000D03*
X69258000Y-99529000D03*
X71458000Y-99529000D03*
%TD*%
M02*
