%TF.GenerationSoftware,KiCad,Pcbnew,(5.1.7)-1*%
%TF.CreationDate,2021-04-04T08:26:08+02:00*%
%TF.ProjectId,Reflow_Ofen_V2,5265666c-6f77-45f4-9f66-656e5f56322e,rev?*%
%TF.SameCoordinates,Original*%
%TF.FileFunction,Soldermask,Bot*%
%TF.FilePolarity,Negative*%
%FSLAX46Y46*%
G04 Gerber Fmt 4.6, Leading zero omitted, Abs format (unit mm)*
G04 Created by KiCad (PCBNEW (5.1.7)-1) date 2021-04-04 08:26:08*
%MOMM*%
%LPD*%
G01*
G04 APERTURE LIST*
%ADD10O,1.000000X1.000000*%
%ADD11R,1.000000X1.000000*%
%ADD12C,2.500000*%
%ADD13C,3.000000*%
%ADD14R,1.700000X1.700000*%
%ADD15C,1.700000*%
%ADD16C,3.500000*%
%ADD17R,2.540000X2.540000*%
%ADD18C,2.540000*%
%ADD19R,1.905000X2.000000*%
%ADD20O,1.905000X2.000000*%
%ADD21C,10.600000*%
%ADD22C,0.900000*%
%ADD23C,2.300000*%
%ADD24R,2.000000X2.300000*%
%ADD25R,3.000000X3.000000*%
G04 APERTURE END LIST*
D10*
%TO.C,J1*%
X80010000Y-114808000D03*
X80010000Y-113538000D03*
X81280000Y-114808000D03*
X81280000Y-113538000D03*
X82550000Y-114808000D03*
X82550000Y-113538000D03*
X83820000Y-114808000D03*
X83820000Y-113538000D03*
X85090000Y-114808000D03*
X85090000Y-113538000D03*
X86360000Y-114808000D03*
X86360000Y-113538000D03*
X87630000Y-114808000D03*
X87630000Y-113538000D03*
X88900000Y-114808000D03*
X88900000Y-113538000D03*
X90170000Y-114808000D03*
X90170000Y-113538000D03*
X91440000Y-114808000D03*
X91440000Y-113538000D03*
X92710000Y-114808000D03*
X92710000Y-113538000D03*
X93980000Y-114808000D03*
X93980000Y-113538000D03*
X95250000Y-114808000D03*
X95250000Y-113538000D03*
X96520000Y-114808000D03*
X96520000Y-113538000D03*
X97790000Y-114808000D03*
X97790000Y-113538000D03*
X99060000Y-114808000D03*
X99060000Y-113538000D03*
X100330000Y-114808000D03*
D11*
X100330000Y-113538000D03*
%TD*%
D12*
%TO.C,K1*%
X63200000Y-64090000D03*
D13*
X63200000Y-51890000D03*
D12*
X51200000Y-64090000D03*
D13*
X57150000Y-66040000D03*
%TD*%
D14*
%TO.C,CONN1*%
X122682000Y-104942000D03*
D15*
X122682000Y-107442000D03*
X124682000Y-107442000D03*
X124682000Y-104942000D03*
D16*
X127392000Y-100172000D03*
X127392000Y-112212000D03*
%TD*%
D17*
%TO.C,CONN_AC1*%
X130175000Y-40640000D03*
D18*
X122555000Y-40640000D03*
%TD*%
D17*
%TO.C,CONN_HEATER1*%
X96520000Y-40640000D03*
D18*
X88900000Y-40640000D03*
%TD*%
%TO.C,CONN_LIGHT1*%
X71120000Y-40640000D03*
D17*
X78740000Y-40640000D03*
%TD*%
%TO.C,CONN_FAN1*%
X60960000Y-40640000D03*
D18*
X53340000Y-40640000D03*
%TD*%
D19*
%TO.C,D3*%
X90170000Y-62865000D03*
D20*
X92710000Y-62865000D03*
X95250000Y-62865000D03*
%TD*%
D21*
%TO.C,H1*%
X55000000Y-91000000D03*
D22*
X58975000Y-91000000D03*
X57810749Y-93810749D03*
X55000000Y-94975000D03*
X52189251Y-93810749D03*
X51025000Y-91000000D03*
X52189251Y-88189251D03*
X55000000Y-87025000D03*
X57810749Y-88189251D03*
%TD*%
%TO.C,H2*%
X110810749Y-47189251D03*
X108000000Y-46025000D03*
X105189251Y-47189251D03*
X104025000Y-50000000D03*
X105189251Y-52810749D03*
X108000000Y-53975000D03*
X110810749Y-52810749D03*
X111975000Y-50000000D03*
D21*
X108000000Y-50000000D03*
%TD*%
%TO.C,H3*%
X108000000Y-100000000D03*
D22*
X111975000Y-100000000D03*
X110810749Y-102810749D03*
X108000000Y-103975000D03*
X105189251Y-102810749D03*
X104025000Y-100000000D03*
X105189251Y-97189251D03*
X108000000Y-96025000D03*
X110810749Y-97189251D03*
%TD*%
D23*
%TO.C,PS1*%
X133985000Y-78800000D03*
D24*
X133985000Y-50800000D03*
D23*
X118785000Y-50800000D03*
X126385000Y-78800000D03*
%TD*%
D25*
%TO.C,THERMOCOUPLE1*%
X51816000Y-106680000D03*
D13*
X51816000Y-111760000D03*
%TD*%
M02*
