%TF.GenerationSoftware,KiCad,Pcbnew,(5.1.7)-1*%
%TF.CreationDate,2021-04-04T08:26:08+02:00*%
%TF.ProjectId,Reflow_Ofen_V2,5265666c-6f77-45f4-9f66-656e5f56322e,rev?*%
%TF.SameCoordinates,Original*%
%TF.FileFunction,Copper,L2,Inr*%
%TF.FilePolarity,Positive*%
%FSLAX46Y46*%
G04 Gerber Fmt 4.6, Leading zero omitted, Abs format (unit mm)*
G04 Created by KiCad (PCBNEW (5.1.7)-1) date 2021-04-04 08:26:08*
%MOMM*%
%LPD*%
G01*
G04 APERTURE LIST*
%TA.AperFunction,ComponentPad*%
%ADD10O,1.000000X1.000000*%
%TD*%
%TA.AperFunction,ComponentPad*%
%ADD11R,1.000000X1.000000*%
%TD*%
%TA.AperFunction,ComponentPad*%
%ADD12C,2.500000*%
%TD*%
%TA.AperFunction,ComponentPad*%
%ADD13C,3.000000*%
%TD*%
%TA.AperFunction,ComponentPad*%
%ADD14R,1.700000X1.700000*%
%TD*%
%TA.AperFunction,ComponentPad*%
%ADD15C,1.700000*%
%TD*%
%TA.AperFunction,ComponentPad*%
%ADD16C,3.500000*%
%TD*%
%TA.AperFunction,ComponentPad*%
%ADD17R,2.540000X2.540000*%
%TD*%
%TA.AperFunction,ComponentPad*%
%ADD18C,2.540000*%
%TD*%
%TA.AperFunction,ComponentPad*%
%ADD19R,1.905000X2.000000*%
%TD*%
%TA.AperFunction,ComponentPad*%
%ADD20O,1.905000X2.000000*%
%TD*%
%TA.AperFunction,ComponentPad*%
%ADD21C,10.600000*%
%TD*%
%TA.AperFunction,ComponentPad*%
%ADD22C,0.900000*%
%TD*%
%TA.AperFunction,ComponentPad*%
%ADD23C,2.300000*%
%TD*%
%TA.AperFunction,ComponentPad*%
%ADD24R,2.000000X2.300000*%
%TD*%
%TA.AperFunction,ComponentPad*%
%ADD25R,3.000000X3.000000*%
%TD*%
%TA.AperFunction,ViaPad*%
%ADD26C,0.800000*%
%TD*%
%TA.AperFunction,Conductor*%
%ADD27C,0.254000*%
%TD*%
%TA.AperFunction,Conductor*%
%ADD28C,0.100000*%
%TD*%
G04 APERTURE END LIST*
D10*
%TO.N,/STMF415VGT6/MCU_D2*%
%TO.C,J1*%
X80010000Y-114808000D03*
%TO.N,/STMF415VGT6/MCU_D4*%
X80010000Y-113538000D03*
%TO.N,/STMF415VGT6/MCU_D3*%
X81280000Y-114808000D03*
%TO.N,/STMF415VGT6/MCU_D5*%
X81280000Y-113538000D03*
%TO.N,/STMF415VGT6/MCU_NOE*%
X82550000Y-114808000D03*
%TO.N,/STMF415VGT6/MCU_D6*%
X82550000Y-113538000D03*
%TO.N,/STMF415VGT6/MCU_NWE*%
X83820000Y-114808000D03*
%TO.N,/STMF415VGT6/MCU_D7*%
X83820000Y-113538000D03*
%TO.N,/STMF415VGT6/MCU_NE1*%
X85090000Y-114808000D03*
%TO.N,/STMF415VGT6/MCU_D8*%
X85090000Y-113538000D03*
%TO.N,GND*%
X86360000Y-114808000D03*
%TO.N,/STMF415VGT6/MCU_D9*%
X86360000Y-113538000D03*
%TO.N,+3V3*%
X87630000Y-114808000D03*
%TO.N,/STMF415VGT6/MCU_D10*%
X87630000Y-113538000D03*
%TO.N,+5V*%
X88900000Y-114808000D03*
%TO.N,/STMF415VGT6/MCU_D11*%
X88900000Y-113538000D03*
%TO.N,/SPI3_SCLK*%
X90170000Y-114808000D03*
%TO.N,/STMF415VGT6/MCU_D12*%
X90170000Y-113538000D03*
%TO.N,/SPI3_SCLK*%
X91440000Y-114808000D03*
%TO.N,/TOUCH_CS*%
X91440000Y-113538000D03*
%TO.N,/SPI3_MISO*%
X92710000Y-114808000D03*
%TO.N,/TOUCH_IRQ*%
X92710000Y-113538000D03*
%TO.N,/SPI3_MISO*%
X93980000Y-114808000D03*
%TO.N,/SD_CS*%
X93980000Y-113538000D03*
%TO.N,/SPI3_MOSI*%
X95250000Y-114808000D03*
%TO.N,/FLASH_CS*%
X95250000Y-113538000D03*
%TO.N,/SPI3_MOSI*%
X96520000Y-114808000D03*
%TO.N,/STMF415VGT6/MCU_TFT_RST*%
X96520000Y-113538000D03*
%TO.N,/STMF415VGT6/MCU_D1*%
X97790000Y-114808000D03*
%TO.N,/STMF415VGT6/MCU_D13*%
X97790000Y-113538000D03*
%TO.N,/STMF415VGT6/MCU_D0*%
X99060000Y-114808000D03*
%TO.N,/STMF415VGT6/MCU_D14*%
X99060000Y-113538000D03*
%TO.N,/STMF415VGT6/MCU_A16*%
X100330000Y-114808000D03*
D11*
%TO.N,/STMF415VGT6/MCU_D15*%
X100330000Y-113538000D03*
%TD*%
D12*
%TO.N,+5V*%
%TO.C,K1*%
X63200000Y-64090000D03*
D13*
%TO.N,AC_N*%
X63200000Y-51890000D03*
D12*
%TO.N,Net-(D5-Pad2)*%
X51200000Y-64090000D03*
D13*
%TO.N,Net-(CONN_FAN1-Pad2)*%
X57150000Y-66040000D03*
%TD*%
D14*
%TO.N,N/C*%
%TO.C,CONN1*%
X122682000Y-104942000D03*
D15*
%TO.N,/Connectors/USB_D-*%
X122682000Y-107442000D03*
%TO.N,/Connectors/USB_D+*%
X124682000Y-107442000D03*
%TO.N,GND*%
X124682000Y-104942000D03*
D16*
%TO.N,Net-(CONN1-Pad5)*%
X127392000Y-100172000D03*
X127392000Y-112212000D03*
%TD*%
D17*
%TO.N,AC_N*%
%TO.C,CONN_AC1*%
X130175000Y-40640000D03*
D18*
%TO.N,AC_L*%
X122555000Y-40640000D03*
%TD*%
D17*
%TO.N,AC_L*%
%TO.C,CONN_HEATER1*%
X96520000Y-40640000D03*
D18*
%TO.N,Net-(CONN_HEATER1-Pad2)*%
X88900000Y-40640000D03*
%TD*%
%TO.N,Net-(CONN_LIGHT1-Pad2)*%
%TO.C,CONN_LIGHT1*%
X71120000Y-40640000D03*
D17*
%TO.N,AC_L*%
X78740000Y-40640000D03*
%TD*%
%TO.N,AC_L*%
%TO.C,CONN_FAN1*%
X60960000Y-40640000D03*
D18*
%TO.N,Net-(CONN_FAN1-Pad2)*%
X53340000Y-40640000D03*
%TD*%
D19*
%TO.N,AC_N*%
%TO.C,D3*%
X90170000Y-62865000D03*
D20*
%TO.N,Net-(CONN_HEATER1-Pad2)*%
X92710000Y-62865000D03*
%TO.N,Net-(D3-Pad3)*%
X95250000Y-62865000D03*
%TD*%
D21*
%TO.N,Net-(H1-Pad1)*%
%TO.C,H1*%
X55000000Y-91000000D03*
D22*
X58975000Y-91000000D03*
X57810749Y-93810749D03*
X55000000Y-94975000D03*
X52189251Y-93810749D03*
X51025000Y-91000000D03*
X52189251Y-88189251D03*
X55000000Y-87025000D03*
X57810749Y-88189251D03*
%TD*%
%TO.N,Net-(H2-Pad1)*%
%TO.C,H2*%
X110810749Y-47189251D03*
X108000000Y-46025000D03*
X105189251Y-47189251D03*
X104025000Y-50000000D03*
X105189251Y-52810749D03*
X108000000Y-53975000D03*
X110810749Y-52810749D03*
X111975000Y-50000000D03*
D21*
X108000000Y-50000000D03*
%TD*%
%TO.N,Net-(H3-Pad1)*%
%TO.C,H3*%
X108000000Y-100000000D03*
D22*
X111975000Y-100000000D03*
X110810749Y-102810749D03*
X108000000Y-103975000D03*
X105189251Y-102810749D03*
X104025000Y-100000000D03*
X105189251Y-97189251D03*
X108000000Y-96025000D03*
X110810749Y-97189251D03*
%TD*%
D23*
%TO.N,GND*%
%TO.C,PS1*%
X133985000Y-78800000D03*
D24*
%TO.N,AC_N*%
X133985000Y-50800000D03*
D23*
%TO.N,AC_L*%
X118785000Y-50800000D03*
%TO.N,+5V*%
X126385000Y-78800000D03*
%TD*%
D25*
%TO.N,Net-(C20-Pad1)*%
%TO.C,THERMOCOUPLE1*%
X51816000Y-106680000D03*
D13*
%TO.N,Net-(C19-Pad1)*%
X51816000Y-111760000D03*
%TD*%
D26*
%TO.N,+3V3*%
X94996000Y-91440000D03*
X110363000Y-90170000D03*
X106045000Y-80645000D03*
X121793000Y-85217000D03*
X121793000Y-86487000D03*
X121793000Y-89027000D03*
X120396000Y-85217000D03*
X120396000Y-89027000D03*
X119126000Y-85217000D03*
X119126000Y-89027000D03*
X117856000Y-89027000D03*
X117856000Y-85217000D03*
X121793000Y-87757000D03*
X63754000Y-112268000D03*
X79471330Y-109524869D03*
X74763603Y-105533637D03*
X76454000Y-100711000D03*
X75438000Y-97835000D03*
X75438000Y-94996000D03*
X79248000Y-87376000D03*
X92710000Y-107188000D03*
%TO.N,GND*%
X117221000Y-100711000D03*
X92075000Y-86487000D03*
X100965000Y-86360000D03*
X90551000Y-89154000D03*
X93853000Y-90551000D03*
X127254000Y-90932000D03*
X78544847Y-108389847D03*
X80899000Y-94234000D03*
X84582000Y-93345000D03*
X83439000Y-96520000D03*
X80899000Y-98933000D03*
X91186000Y-97536000D03*
X88900000Y-100203000D03*
X86614000Y-102489000D03*
X84328000Y-104775000D03*
%TO.N,/Connectors/CONN_NRST*%
X87733847Y-88532847D03*
X83312000Y-92964000D03*
%TO.N,/SPI3_SCLK*%
X91821000Y-93853000D03*
X95262651Y-97031346D03*
%TO.N,/SPI3_MISO*%
X95250000Y-98044000D03*
X91825653Y-94991347D03*
%TO.N,/SPI3_MOSI*%
X91821000Y-96012000D03*
X95250000Y-99060000D03*
%TO.N,/STMF415VGT6/MCU_D2*%
X89154000Y-94615000D03*
%TO.N,/STMF415VGT6/MCU_D3*%
X88141346Y-94602349D03*
%TO.N,/STMF415VGT6/MCU_NOE*%
X87141444Y-94616524D03*
%TO.N,/STMF415VGT6/MCU_NWE*%
X86141444Y-94614847D03*
%TO.N,/STMF415VGT6/MCU_NE1*%
X85141443Y-94615012D03*
%TO.N,Net-(CONN_LIGHT1-Pad2)*%
X70500000Y-49000000D03*
X73500000Y-49000000D03*
X76500000Y-49000000D03*
X79500000Y-49000000D03*
X70500000Y-51500000D03*
X73500000Y-51500000D03*
X76500000Y-51500000D03*
X79500000Y-51500000D03*
X79500000Y-54000000D03*
X79500000Y-56500000D03*
X76500000Y-56500000D03*
X73500000Y-56500000D03*
X70500000Y-56500000D03*
X70500000Y-54000000D03*
X73500000Y-54000000D03*
X76500000Y-54000000D03*
%TD*%
D27*
%TO.N,+3V3*%
X137548001Y-118548000D02*
X47452000Y-118548000D01*
X47452000Y-111570207D01*
X49889000Y-111570207D01*
X49889000Y-111949793D01*
X49963053Y-112322085D01*
X50108315Y-112672777D01*
X50319201Y-112988391D01*
X50587609Y-113256799D01*
X50903223Y-113467685D01*
X51253915Y-113612947D01*
X51626207Y-113687000D01*
X52005793Y-113687000D01*
X52378085Y-113612947D01*
X52728777Y-113467685D01*
X52760184Y-113446699D01*
X79083000Y-113446699D01*
X79083000Y-113629301D01*
X79118624Y-113808396D01*
X79188504Y-113977099D01*
X79289952Y-114128928D01*
X79334024Y-114173000D01*
X79289952Y-114217072D01*
X79188504Y-114368901D01*
X79118624Y-114537604D01*
X79083000Y-114716699D01*
X79083000Y-114899301D01*
X79118624Y-115078396D01*
X79188504Y-115247099D01*
X79289952Y-115398928D01*
X79419072Y-115528048D01*
X79570901Y-115629496D01*
X79739604Y-115699376D01*
X79918699Y-115735000D01*
X80101301Y-115735000D01*
X80280396Y-115699376D01*
X80449099Y-115629496D01*
X80600928Y-115528048D01*
X80645000Y-115483976D01*
X80689072Y-115528048D01*
X80840901Y-115629496D01*
X81009604Y-115699376D01*
X81188699Y-115735000D01*
X81371301Y-115735000D01*
X81550396Y-115699376D01*
X81719099Y-115629496D01*
X81870928Y-115528048D01*
X81915000Y-115483976D01*
X81959072Y-115528048D01*
X82110901Y-115629496D01*
X82279604Y-115699376D01*
X82458699Y-115735000D01*
X82641301Y-115735000D01*
X82820396Y-115699376D01*
X82989099Y-115629496D01*
X83140928Y-115528048D01*
X83185000Y-115483976D01*
X83229072Y-115528048D01*
X83380901Y-115629496D01*
X83549604Y-115699376D01*
X83728699Y-115735000D01*
X83911301Y-115735000D01*
X84090396Y-115699376D01*
X84259099Y-115629496D01*
X84410928Y-115528048D01*
X84455000Y-115483976D01*
X84499072Y-115528048D01*
X84650901Y-115629496D01*
X84819604Y-115699376D01*
X84998699Y-115735000D01*
X85181301Y-115735000D01*
X85360396Y-115699376D01*
X85529099Y-115629496D01*
X85680928Y-115528048D01*
X85725000Y-115483976D01*
X85769072Y-115528048D01*
X85920901Y-115629496D01*
X86089604Y-115699376D01*
X86268699Y-115735000D01*
X86451301Y-115735000D01*
X86630396Y-115699376D01*
X86799099Y-115629496D01*
X86831730Y-115607693D01*
X86887980Y-115666865D01*
X87069794Y-115795123D01*
X87273136Y-115885446D01*
X87328126Y-115902119D01*
X87503000Y-115775954D01*
X87503000Y-114935000D01*
X87483000Y-114935000D01*
X87483000Y-114681000D01*
X87503000Y-114681000D01*
X87503000Y-114661000D01*
X87757000Y-114661000D01*
X87757000Y-114681000D01*
X87777000Y-114681000D01*
X87777000Y-114935000D01*
X87757000Y-114935000D01*
X87757000Y-115775954D01*
X87931874Y-115902119D01*
X87986864Y-115885446D01*
X88190206Y-115795123D01*
X88372020Y-115666865D01*
X88428270Y-115607693D01*
X88460901Y-115629496D01*
X88629604Y-115699376D01*
X88808699Y-115735000D01*
X88991301Y-115735000D01*
X89170396Y-115699376D01*
X89339099Y-115629496D01*
X89490928Y-115528048D01*
X89535000Y-115483976D01*
X89579072Y-115528048D01*
X89730901Y-115629496D01*
X89899604Y-115699376D01*
X90078699Y-115735000D01*
X90261301Y-115735000D01*
X90440396Y-115699376D01*
X90609099Y-115629496D01*
X90760928Y-115528048D01*
X90805000Y-115483976D01*
X90849072Y-115528048D01*
X91000901Y-115629496D01*
X91169604Y-115699376D01*
X91348699Y-115735000D01*
X91531301Y-115735000D01*
X91710396Y-115699376D01*
X91879099Y-115629496D01*
X92030928Y-115528048D01*
X92075000Y-115483976D01*
X92119072Y-115528048D01*
X92270901Y-115629496D01*
X92439604Y-115699376D01*
X92618699Y-115735000D01*
X92801301Y-115735000D01*
X92980396Y-115699376D01*
X93149099Y-115629496D01*
X93300928Y-115528048D01*
X93345000Y-115483976D01*
X93389072Y-115528048D01*
X93540901Y-115629496D01*
X93709604Y-115699376D01*
X93888699Y-115735000D01*
X94071301Y-115735000D01*
X94250396Y-115699376D01*
X94419099Y-115629496D01*
X94570928Y-115528048D01*
X94615000Y-115483976D01*
X94659072Y-115528048D01*
X94810901Y-115629496D01*
X94979604Y-115699376D01*
X95158699Y-115735000D01*
X95341301Y-115735000D01*
X95520396Y-115699376D01*
X95689099Y-115629496D01*
X95840928Y-115528048D01*
X95885000Y-115483976D01*
X95929072Y-115528048D01*
X96080901Y-115629496D01*
X96249604Y-115699376D01*
X96428699Y-115735000D01*
X96611301Y-115735000D01*
X96790396Y-115699376D01*
X96959099Y-115629496D01*
X97110928Y-115528048D01*
X97155000Y-115483976D01*
X97199072Y-115528048D01*
X97350901Y-115629496D01*
X97519604Y-115699376D01*
X97698699Y-115735000D01*
X97881301Y-115735000D01*
X98060396Y-115699376D01*
X98229099Y-115629496D01*
X98380928Y-115528048D01*
X98425000Y-115483976D01*
X98469072Y-115528048D01*
X98620901Y-115629496D01*
X98789604Y-115699376D01*
X98968699Y-115735000D01*
X99151301Y-115735000D01*
X99330396Y-115699376D01*
X99499099Y-115629496D01*
X99650928Y-115528048D01*
X99695000Y-115483976D01*
X99739072Y-115528048D01*
X99890901Y-115629496D01*
X100059604Y-115699376D01*
X100238699Y-115735000D01*
X100421301Y-115735000D01*
X100600396Y-115699376D01*
X100769099Y-115629496D01*
X100920928Y-115528048D01*
X101050048Y-115398928D01*
X101151496Y-115247099D01*
X101221376Y-115078396D01*
X101257000Y-114899301D01*
X101257000Y-114716699D01*
X101221376Y-114537604D01*
X101151496Y-114368901D01*
X101133216Y-114341542D01*
X101133395Y-114341395D01*
X101186755Y-114276376D01*
X101226405Y-114202196D01*
X101250822Y-114121707D01*
X101259066Y-114038000D01*
X101259066Y-113038000D01*
X101250822Y-112954293D01*
X101226405Y-112873804D01*
X101186755Y-112799624D01*
X101133395Y-112734605D01*
X101068376Y-112681245D01*
X100994196Y-112641595D01*
X100913707Y-112617178D01*
X100830000Y-112608934D01*
X99830000Y-112608934D01*
X99746293Y-112617178D01*
X99665804Y-112641595D01*
X99591624Y-112681245D01*
X99526605Y-112734605D01*
X99526458Y-112734784D01*
X99499099Y-112716504D01*
X99330396Y-112646624D01*
X99151301Y-112611000D01*
X98968699Y-112611000D01*
X98789604Y-112646624D01*
X98620901Y-112716504D01*
X98469072Y-112817952D01*
X98425000Y-112862024D01*
X98380928Y-112817952D01*
X98229099Y-112716504D01*
X98060396Y-112646624D01*
X97881301Y-112611000D01*
X97698699Y-112611000D01*
X97519604Y-112646624D01*
X97350901Y-112716504D01*
X97199072Y-112817952D01*
X97155000Y-112862024D01*
X97110928Y-112817952D01*
X96959099Y-112716504D01*
X96790396Y-112646624D01*
X96611301Y-112611000D01*
X96428699Y-112611000D01*
X96249604Y-112646624D01*
X96080901Y-112716504D01*
X95929072Y-112817952D01*
X95885000Y-112862024D01*
X95840928Y-112817952D01*
X95689099Y-112716504D01*
X95520396Y-112646624D01*
X95341301Y-112611000D01*
X95158699Y-112611000D01*
X94979604Y-112646624D01*
X94810901Y-112716504D01*
X94659072Y-112817952D01*
X94615000Y-112862024D01*
X94570928Y-112817952D01*
X94419099Y-112716504D01*
X94250396Y-112646624D01*
X94071301Y-112611000D01*
X93888699Y-112611000D01*
X93709604Y-112646624D01*
X93540901Y-112716504D01*
X93389072Y-112817952D01*
X93345000Y-112862024D01*
X93300928Y-112817952D01*
X93149099Y-112716504D01*
X92980396Y-112646624D01*
X92801301Y-112611000D01*
X92618699Y-112611000D01*
X92439604Y-112646624D01*
X92270901Y-112716504D01*
X92119072Y-112817952D01*
X92075000Y-112862024D01*
X92030928Y-112817952D01*
X91879099Y-112716504D01*
X91710396Y-112646624D01*
X91531301Y-112611000D01*
X91348699Y-112611000D01*
X91169604Y-112646624D01*
X91000901Y-112716504D01*
X90849072Y-112817952D01*
X90805000Y-112862024D01*
X90760928Y-112817952D01*
X90609099Y-112716504D01*
X90440396Y-112646624D01*
X90261301Y-112611000D01*
X90078699Y-112611000D01*
X89899604Y-112646624D01*
X89730901Y-112716504D01*
X89579072Y-112817952D01*
X89535000Y-112862024D01*
X89490928Y-112817952D01*
X89339099Y-112716504D01*
X89170396Y-112646624D01*
X88991301Y-112611000D01*
X88808699Y-112611000D01*
X88629604Y-112646624D01*
X88460901Y-112716504D01*
X88309072Y-112817952D01*
X88265000Y-112862024D01*
X88220928Y-112817952D01*
X88069099Y-112716504D01*
X87900396Y-112646624D01*
X87721301Y-112611000D01*
X87538699Y-112611000D01*
X87359604Y-112646624D01*
X87190901Y-112716504D01*
X87039072Y-112817952D01*
X86995000Y-112862024D01*
X86950928Y-112817952D01*
X86799099Y-112716504D01*
X86630396Y-112646624D01*
X86451301Y-112611000D01*
X86268699Y-112611000D01*
X86089604Y-112646624D01*
X85920901Y-112716504D01*
X85769072Y-112817952D01*
X85725000Y-112862024D01*
X85680928Y-112817952D01*
X85529099Y-112716504D01*
X85360396Y-112646624D01*
X85181301Y-112611000D01*
X84998699Y-112611000D01*
X84819604Y-112646624D01*
X84650901Y-112716504D01*
X84499072Y-112817952D01*
X84455000Y-112862024D01*
X84410928Y-112817952D01*
X84259099Y-112716504D01*
X84090396Y-112646624D01*
X83911301Y-112611000D01*
X83728699Y-112611000D01*
X83549604Y-112646624D01*
X83380901Y-112716504D01*
X83229072Y-112817952D01*
X83185000Y-112862024D01*
X83140928Y-112817952D01*
X82989099Y-112716504D01*
X82820396Y-112646624D01*
X82641301Y-112611000D01*
X82458699Y-112611000D01*
X82279604Y-112646624D01*
X82110901Y-112716504D01*
X81959072Y-112817952D01*
X81915000Y-112862024D01*
X81870928Y-112817952D01*
X81719099Y-112716504D01*
X81550396Y-112646624D01*
X81371301Y-112611000D01*
X81188699Y-112611000D01*
X81009604Y-112646624D01*
X80840901Y-112716504D01*
X80689072Y-112817952D01*
X80645000Y-112862024D01*
X80600928Y-112817952D01*
X80449099Y-112716504D01*
X80280396Y-112646624D01*
X80101301Y-112611000D01*
X79918699Y-112611000D01*
X79739604Y-112646624D01*
X79570901Y-112716504D01*
X79419072Y-112817952D01*
X79289952Y-112947072D01*
X79188504Y-113098901D01*
X79118624Y-113267604D01*
X79083000Y-113446699D01*
X52760184Y-113446699D01*
X53044391Y-113256799D01*
X53312799Y-112988391D01*
X53523685Y-112672777D01*
X53668947Y-112322085D01*
X53733493Y-111997584D01*
X125215000Y-111997584D01*
X125215000Y-112426416D01*
X125298660Y-112847008D01*
X125462767Y-113243196D01*
X125701013Y-113599757D01*
X126004243Y-113902987D01*
X126360804Y-114141233D01*
X126756992Y-114305340D01*
X127177584Y-114389000D01*
X127606416Y-114389000D01*
X128027008Y-114305340D01*
X128423196Y-114141233D01*
X128779757Y-113902987D01*
X129082987Y-113599757D01*
X129321233Y-113243196D01*
X129485340Y-112847008D01*
X129569000Y-112426416D01*
X129569000Y-111997584D01*
X129485340Y-111576992D01*
X129321233Y-111180804D01*
X129082987Y-110824243D01*
X128779757Y-110521013D01*
X128423196Y-110282767D01*
X128027008Y-110118660D01*
X127606416Y-110035000D01*
X127177584Y-110035000D01*
X126756992Y-110118660D01*
X126360804Y-110282767D01*
X126004243Y-110521013D01*
X125701013Y-110824243D01*
X125462767Y-111180804D01*
X125298660Y-111576992D01*
X125215000Y-111997584D01*
X53733493Y-111997584D01*
X53743000Y-111949793D01*
X53743000Y-111570207D01*
X53668947Y-111197915D01*
X53523685Y-110847223D01*
X53312799Y-110531609D01*
X53044391Y-110263201D01*
X52728777Y-110052315D01*
X52378085Y-109907053D01*
X52005793Y-109833000D01*
X51626207Y-109833000D01*
X51253915Y-109907053D01*
X50903223Y-110052315D01*
X50587609Y-110263201D01*
X50319201Y-110531609D01*
X50108315Y-110847223D01*
X49963053Y-111197915D01*
X49889000Y-111570207D01*
X47452000Y-111570207D01*
X47452000Y-105180000D01*
X49886934Y-105180000D01*
X49886934Y-108180000D01*
X49895178Y-108263707D01*
X49919595Y-108344196D01*
X49959245Y-108418376D01*
X50012605Y-108483395D01*
X50077624Y-108536755D01*
X50151804Y-108576405D01*
X50232293Y-108600822D01*
X50316000Y-108609066D01*
X53316000Y-108609066D01*
X53399707Y-108600822D01*
X53480196Y-108576405D01*
X53554376Y-108536755D01*
X53619395Y-108483395D01*
X53672755Y-108418376D01*
X53712405Y-108344196D01*
X53723265Y-108308395D01*
X77717847Y-108308395D01*
X77717847Y-108471299D01*
X77749629Y-108631074D01*
X77811970Y-108781578D01*
X77902475Y-108917028D01*
X78017666Y-109032219D01*
X78153116Y-109122724D01*
X78303620Y-109185065D01*
X78463395Y-109216847D01*
X78626299Y-109216847D01*
X78786074Y-109185065D01*
X78936578Y-109122724D01*
X79072028Y-109032219D01*
X79187219Y-108917028D01*
X79277724Y-108781578D01*
X79340065Y-108631074D01*
X79371847Y-108471299D01*
X79371847Y-108308395D01*
X79340065Y-108148620D01*
X79277724Y-107998116D01*
X79187219Y-107862666D01*
X79072028Y-107747475D01*
X78936578Y-107656970D01*
X78786074Y-107594629D01*
X78626299Y-107562847D01*
X78463395Y-107562847D01*
X78303620Y-107594629D01*
X78153116Y-107656970D01*
X78017666Y-107747475D01*
X77902475Y-107862666D01*
X77811970Y-107998116D01*
X77749629Y-108148620D01*
X77717847Y-108308395D01*
X53723265Y-108308395D01*
X53736822Y-108263707D01*
X53745066Y-108180000D01*
X53745066Y-105180000D01*
X53736822Y-105096293D01*
X53712405Y-105015804D01*
X53672755Y-104941624D01*
X53619395Y-104876605D01*
X53554376Y-104823245D01*
X53480196Y-104783595D01*
X53399707Y-104759178D01*
X53316000Y-104750934D01*
X50316000Y-104750934D01*
X50232293Y-104759178D01*
X50151804Y-104783595D01*
X50077624Y-104823245D01*
X50012605Y-104876605D01*
X49959245Y-104941624D01*
X49919595Y-105015804D01*
X49895178Y-105096293D01*
X49886934Y-105180000D01*
X47452000Y-105180000D01*
X47452000Y-104693548D01*
X83501000Y-104693548D01*
X83501000Y-104856452D01*
X83532782Y-105016227D01*
X83595123Y-105166731D01*
X83685628Y-105302181D01*
X83800819Y-105417372D01*
X83936269Y-105507877D01*
X84086773Y-105570218D01*
X84246548Y-105602000D01*
X84409452Y-105602000D01*
X84569227Y-105570218D01*
X84719731Y-105507877D01*
X84855181Y-105417372D01*
X84970372Y-105302181D01*
X85060877Y-105166731D01*
X85123218Y-105016227D01*
X85155000Y-104856452D01*
X85155000Y-104693548D01*
X85123218Y-104533773D01*
X85060877Y-104383269D01*
X84970372Y-104247819D01*
X84855181Y-104132628D01*
X84719731Y-104042123D01*
X84569227Y-103979782D01*
X84409452Y-103948000D01*
X84246548Y-103948000D01*
X84086773Y-103979782D01*
X83936269Y-104042123D01*
X83800819Y-104132628D01*
X83685628Y-104247819D01*
X83595123Y-104383269D01*
X83532782Y-104533773D01*
X83501000Y-104693548D01*
X47452000Y-104693548D01*
X47452000Y-102407548D01*
X85787000Y-102407548D01*
X85787000Y-102570452D01*
X85818782Y-102730227D01*
X85881123Y-102880731D01*
X85971628Y-103016181D01*
X86086819Y-103131372D01*
X86222269Y-103221877D01*
X86372773Y-103284218D01*
X86532548Y-103316000D01*
X86695452Y-103316000D01*
X86855227Y-103284218D01*
X87005731Y-103221877D01*
X87141181Y-103131372D01*
X87256372Y-103016181D01*
X87346877Y-102880731D01*
X87409218Y-102730227D01*
X87441000Y-102570452D01*
X87441000Y-102407548D01*
X87409218Y-102247773D01*
X87346877Y-102097269D01*
X87256372Y-101961819D01*
X87141181Y-101846628D01*
X87005731Y-101756123D01*
X86855227Y-101693782D01*
X86695452Y-101662000D01*
X86532548Y-101662000D01*
X86372773Y-101693782D01*
X86222269Y-101756123D01*
X86086819Y-101846628D01*
X85971628Y-101961819D01*
X85881123Y-102097269D01*
X85818782Y-102247773D01*
X85787000Y-102407548D01*
X47452000Y-102407548D01*
X47452000Y-100121548D01*
X88073000Y-100121548D01*
X88073000Y-100284452D01*
X88104782Y-100444227D01*
X88167123Y-100594731D01*
X88257628Y-100730181D01*
X88372819Y-100845372D01*
X88508269Y-100935877D01*
X88658773Y-100998218D01*
X88818548Y-101030000D01*
X88981452Y-101030000D01*
X89141227Y-100998218D01*
X89291731Y-100935877D01*
X89427181Y-100845372D01*
X89542372Y-100730181D01*
X89632877Y-100594731D01*
X89695218Y-100444227D01*
X89727000Y-100284452D01*
X89727000Y-100121548D01*
X89695218Y-99961773D01*
X89632877Y-99811269D01*
X89542372Y-99675819D01*
X89427181Y-99560628D01*
X89291731Y-99470123D01*
X89141227Y-99407782D01*
X88981452Y-99376000D01*
X88818548Y-99376000D01*
X88658773Y-99407782D01*
X88508269Y-99470123D01*
X88372819Y-99560628D01*
X88257628Y-99675819D01*
X88167123Y-99811269D01*
X88104782Y-99961773D01*
X88073000Y-100121548D01*
X47452000Y-100121548D01*
X47452000Y-98851548D01*
X80072000Y-98851548D01*
X80072000Y-99014452D01*
X80103782Y-99174227D01*
X80166123Y-99324731D01*
X80256628Y-99460181D01*
X80371819Y-99575372D01*
X80507269Y-99665877D01*
X80657773Y-99728218D01*
X80817548Y-99760000D01*
X80980452Y-99760000D01*
X81140227Y-99728218D01*
X81290731Y-99665877D01*
X81426181Y-99575372D01*
X81541372Y-99460181D01*
X81631877Y-99324731D01*
X81694218Y-99174227D01*
X81726000Y-99014452D01*
X81726000Y-98851548D01*
X81694218Y-98691773D01*
X81631877Y-98541269D01*
X81541372Y-98405819D01*
X81426181Y-98290628D01*
X81290731Y-98200123D01*
X81140227Y-98137782D01*
X80980452Y-98106000D01*
X80817548Y-98106000D01*
X80657773Y-98137782D01*
X80507269Y-98200123D01*
X80371819Y-98290628D01*
X80256628Y-98405819D01*
X80166123Y-98541269D01*
X80103782Y-98691773D01*
X80072000Y-98851548D01*
X47452000Y-98851548D01*
X47452000Y-97454548D01*
X90359000Y-97454548D01*
X90359000Y-97617452D01*
X90390782Y-97777227D01*
X90453123Y-97927731D01*
X90543628Y-98063181D01*
X90658819Y-98178372D01*
X90794269Y-98268877D01*
X90944773Y-98331218D01*
X91104548Y-98363000D01*
X91267452Y-98363000D01*
X91427227Y-98331218D01*
X91577731Y-98268877D01*
X91713181Y-98178372D01*
X91828372Y-98063181D01*
X91895612Y-97962548D01*
X94423000Y-97962548D01*
X94423000Y-98125452D01*
X94454782Y-98285227D01*
X94517123Y-98435731D01*
X94594812Y-98552000D01*
X94517123Y-98668269D01*
X94454782Y-98818773D01*
X94423000Y-98978548D01*
X94423000Y-99141452D01*
X94454782Y-99301227D01*
X94517123Y-99451731D01*
X94607628Y-99587181D01*
X94722819Y-99702372D01*
X94858269Y-99792877D01*
X95008773Y-99855218D01*
X95168548Y-99887000D01*
X95331452Y-99887000D01*
X95491227Y-99855218D01*
X95641731Y-99792877D01*
X95777181Y-99702372D01*
X95892372Y-99587181D01*
X95982877Y-99451731D01*
X95989417Y-99435940D01*
X102273000Y-99435940D01*
X102273000Y-100564060D01*
X102493085Y-101670504D01*
X102924798Y-102712752D01*
X103551548Y-103650750D01*
X104349250Y-104448452D01*
X105287248Y-105075202D01*
X106329496Y-105506915D01*
X107435940Y-105727000D01*
X108564060Y-105727000D01*
X109670504Y-105506915D01*
X110712752Y-105075202D01*
X111650750Y-104448452D01*
X112007202Y-104092000D01*
X121402934Y-104092000D01*
X121402934Y-105792000D01*
X121411178Y-105875707D01*
X121435595Y-105956196D01*
X121475245Y-106030376D01*
X121528605Y-106095395D01*
X121593624Y-106148755D01*
X121667804Y-106188405D01*
X121748293Y-106212822D01*
X121832000Y-106221066D01*
X122292633Y-106221066D01*
X122077114Y-106310337D01*
X121867960Y-106450089D01*
X121690089Y-106627960D01*
X121550337Y-106837114D01*
X121454074Y-107069513D01*
X121405000Y-107316226D01*
X121405000Y-107567774D01*
X121454074Y-107814487D01*
X121550337Y-108046886D01*
X121690089Y-108256040D01*
X121867960Y-108433911D01*
X122077114Y-108573663D01*
X122309513Y-108669926D01*
X122556226Y-108719000D01*
X122807774Y-108719000D01*
X123054487Y-108669926D01*
X123286886Y-108573663D01*
X123496040Y-108433911D01*
X123673911Y-108256040D01*
X123682000Y-108243934D01*
X123690089Y-108256040D01*
X123867960Y-108433911D01*
X124077114Y-108573663D01*
X124309513Y-108669926D01*
X124556226Y-108719000D01*
X124807774Y-108719000D01*
X125054487Y-108669926D01*
X125286886Y-108573663D01*
X125496040Y-108433911D01*
X125673911Y-108256040D01*
X125813663Y-108046886D01*
X125909926Y-107814487D01*
X125959000Y-107567774D01*
X125959000Y-107316226D01*
X125909926Y-107069513D01*
X125813663Y-106837114D01*
X125673911Y-106627960D01*
X125496040Y-106450089D01*
X125286886Y-106310337D01*
X125054487Y-106214074D01*
X124943513Y-106192000D01*
X125054487Y-106169926D01*
X125286886Y-106073663D01*
X125496040Y-105933911D01*
X125673911Y-105756040D01*
X125813663Y-105546886D01*
X125909926Y-105314487D01*
X125959000Y-105067774D01*
X125959000Y-104816226D01*
X125909926Y-104569513D01*
X125813663Y-104337114D01*
X125673911Y-104127960D01*
X125496040Y-103950089D01*
X125286886Y-103810337D01*
X125054487Y-103714074D01*
X124807774Y-103665000D01*
X124556226Y-103665000D01*
X124309513Y-103714074D01*
X124077114Y-103810337D01*
X123921275Y-103914465D01*
X123888755Y-103853624D01*
X123835395Y-103788605D01*
X123770376Y-103735245D01*
X123696196Y-103695595D01*
X123615707Y-103671178D01*
X123532000Y-103662934D01*
X121832000Y-103662934D01*
X121748293Y-103671178D01*
X121667804Y-103695595D01*
X121593624Y-103735245D01*
X121528605Y-103788605D01*
X121475245Y-103853624D01*
X121435595Y-103927804D01*
X121411178Y-104008293D01*
X121402934Y-104092000D01*
X112007202Y-104092000D01*
X112448452Y-103650750D01*
X113075202Y-102712752D01*
X113506915Y-101670504D01*
X113713973Y-100629548D01*
X116394000Y-100629548D01*
X116394000Y-100792452D01*
X116425782Y-100952227D01*
X116488123Y-101102731D01*
X116578628Y-101238181D01*
X116693819Y-101353372D01*
X116829269Y-101443877D01*
X116979773Y-101506218D01*
X117139548Y-101538000D01*
X117302452Y-101538000D01*
X117462227Y-101506218D01*
X117612731Y-101443877D01*
X117748181Y-101353372D01*
X117863372Y-101238181D01*
X117953877Y-101102731D01*
X118016218Y-100952227D01*
X118048000Y-100792452D01*
X118048000Y-100629548D01*
X118016218Y-100469773D01*
X117953877Y-100319269D01*
X117863372Y-100183819D01*
X117748181Y-100068628D01*
X117612731Y-99978123D01*
X117563146Y-99957584D01*
X125215000Y-99957584D01*
X125215000Y-100386416D01*
X125298660Y-100807008D01*
X125462767Y-101203196D01*
X125701013Y-101559757D01*
X126004243Y-101862987D01*
X126360804Y-102101233D01*
X126756992Y-102265340D01*
X127177584Y-102349000D01*
X127606416Y-102349000D01*
X128027008Y-102265340D01*
X128423196Y-102101233D01*
X128779757Y-101862987D01*
X129082987Y-101559757D01*
X129321233Y-101203196D01*
X129485340Y-100807008D01*
X129569000Y-100386416D01*
X129569000Y-99957584D01*
X129485340Y-99536992D01*
X129321233Y-99140804D01*
X129082987Y-98784243D01*
X128779757Y-98481013D01*
X128423196Y-98242767D01*
X128027008Y-98078660D01*
X127606416Y-97995000D01*
X127177584Y-97995000D01*
X126756992Y-98078660D01*
X126360804Y-98242767D01*
X126004243Y-98481013D01*
X125701013Y-98784243D01*
X125462767Y-99140804D01*
X125298660Y-99536992D01*
X125215000Y-99957584D01*
X117563146Y-99957584D01*
X117462227Y-99915782D01*
X117302452Y-99884000D01*
X117139548Y-99884000D01*
X116979773Y-99915782D01*
X116829269Y-99978123D01*
X116693819Y-100068628D01*
X116578628Y-100183819D01*
X116488123Y-100319269D01*
X116425782Y-100469773D01*
X116394000Y-100629548D01*
X113713973Y-100629548D01*
X113727000Y-100564060D01*
X113727000Y-99435940D01*
X113506915Y-98329496D01*
X113075202Y-97287248D01*
X112448452Y-96349250D01*
X111650750Y-95551548D01*
X110712752Y-94924798D01*
X109670504Y-94493085D01*
X108564060Y-94273000D01*
X107435940Y-94273000D01*
X106329496Y-94493085D01*
X105287248Y-94924798D01*
X104349250Y-95551548D01*
X103551548Y-96349250D01*
X102924798Y-97287248D01*
X102493085Y-98329496D01*
X102273000Y-99435940D01*
X95989417Y-99435940D01*
X96045218Y-99301227D01*
X96077000Y-99141452D01*
X96077000Y-98978548D01*
X96045218Y-98818773D01*
X95982877Y-98668269D01*
X95905188Y-98552000D01*
X95982877Y-98435731D01*
X96045218Y-98285227D01*
X96077000Y-98125452D01*
X96077000Y-97962548D01*
X96045218Y-97802773D01*
X95982877Y-97652269D01*
X95912632Y-97547140D01*
X95995528Y-97423077D01*
X96057869Y-97272573D01*
X96089651Y-97112798D01*
X96089651Y-96949894D01*
X96057869Y-96790119D01*
X95995528Y-96639615D01*
X95905023Y-96504165D01*
X95789832Y-96388974D01*
X95654382Y-96298469D01*
X95503878Y-96236128D01*
X95344103Y-96204346D01*
X95181199Y-96204346D01*
X95021424Y-96236128D01*
X94870920Y-96298469D01*
X94735470Y-96388974D01*
X94620279Y-96504165D01*
X94529774Y-96639615D01*
X94467433Y-96790119D01*
X94435651Y-96949894D01*
X94435651Y-97112798D01*
X94467433Y-97272573D01*
X94529774Y-97423077D01*
X94600019Y-97528206D01*
X94517123Y-97652269D01*
X94454782Y-97802773D01*
X94423000Y-97962548D01*
X91895612Y-97962548D01*
X91918877Y-97927731D01*
X91981218Y-97777227D01*
X92013000Y-97617452D01*
X92013000Y-97454548D01*
X91981218Y-97294773D01*
X91918877Y-97144269D01*
X91828372Y-97008819D01*
X91713181Y-96893628D01*
X91585592Y-96808375D01*
X91739548Y-96839000D01*
X91902452Y-96839000D01*
X92062227Y-96807218D01*
X92212731Y-96744877D01*
X92348181Y-96654372D01*
X92463372Y-96539181D01*
X92553877Y-96403731D01*
X92616218Y-96253227D01*
X92648000Y-96093452D01*
X92648000Y-95930548D01*
X92616218Y-95770773D01*
X92553877Y-95620269D01*
X92476960Y-95505155D01*
X92558530Y-95383078D01*
X92620871Y-95232574D01*
X92652653Y-95072799D01*
X92652653Y-94909895D01*
X92620871Y-94750120D01*
X92558530Y-94599616D01*
X92468025Y-94464166D01*
X92423706Y-94419847D01*
X92463372Y-94380181D01*
X92553877Y-94244731D01*
X92616218Y-94094227D01*
X92648000Y-93934452D01*
X92648000Y-93771548D01*
X92616218Y-93611773D01*
X92553877Y-93461269D01*
X92463372Y-93325819D01*
X92348181Y-93210628D01*
X92212731Y-93120123D01*
X92062227Y-93057782D01*
X91902452Y-93026000D01*
X91739548Y-93026000D01*
X91579773Y-93057782D01*
X91429269Y-93120123D01*
X91293819Y-93210628D01*
X91178628Y-93325819D01*
X91088123Y-93461269D01*
X91025782Y-93611773D01*
X90994000Y-93771548D01*
X90994000Y-93934452D01*
X91025782Y-94094227D01*
X91088123Y-94244731D01*
X91178628Y-94380181D01*
X91222947Y-94424500D01*
X91183281Y-94464166D01*
X91092776Y-94599616D01*
X91030435Y-94750120D01*
X90998653Y-94909895D01*
X90998653Y-95072799D01*
X91030435Y-95232574D01*
X91092776Y-95383078D01*
X91169693Y-95498192D01*
X91088123Y-95620269D01*
X91025782Y-95770773D01*
X90994000Y-95930548D01*
X90994000Y-96093452D01*
X91025782Y-96253227D01*
X91088123Y-96403731D01*
X91178628Y-96539181D01*
X91293819Y-96654372D01*
X91421408Y-96739625D01*
X91267452Y-96709000D01*
X91104548Y-96709000D01*
X90944773Y-96740782D01*
X90794269Y-96803123D01*
X90658819Y-96893628D01*
X90543628Y-97008819D01*
X90453123Y-97144269D01*
X90390782Y-97294773D01*
X90359000Y-97454548D01*
X47452000Y-97454548D01*
X47452000Y-90435940D01*
X49273000Y-90435940D01*
X49273000Y-91564060D01*
X49493085Y-92670504D01*
X49924798Y-93712752D01*
X50551548Y-94650750D01*
X51349250Y-95448452D01*
X52287248Y-96075202D01*
X53329496Y-96506915D01*
X54435940Y-96727000D01*
X55564060Y-96727000D01*
X56670504Y-96506915D01*
X56835556Y-96438548D01*
X82612000Y-96438548D01*
X82612000Y-96601452D01*
X82643782Y-96761227D01*
X82706123Y-96911731D01*
X82796628Y-97047181D01*
X82911819Y-97162372D01*
X83047269Y-97252877D01*
X83197773Y-97315218D01*
X83357548Y-97347000D01*
X83520452Y-97347000D01*
X83680227Y-97315218D01*
X83830731Y-97252877D01*
X83966181Y-97162372D01*
X84081372Y-97047181D01*
X84171877Y-96911731D01*
X84234218Y-96761227D01*
X84266000Y-96601452D01*
X84266000Y-96438548D01*
X84234218Y-96278773D01*
X84171877Y-96128269D01*
X84081372Y-95992819D01*
X83966181Y-95877628D01*
X83830731Y-95787123D01*
X83680227Y-95724782D01*
X83520452Y-95693000D01*
X83357548Y-95693000D01*
X83197773Y-95724782D01*
X83047269Y-95787123D01*
X82911819Y-95877628D01*
X82796628Y-95992819D01*
X82706123Y-96128269D01*
X82643782Y-96278773D01*
X82612000Y-96438548D01*
X56835556Y-96438548D01*
X57712752Y-96075202D01*
X58650750Y-95448452D01*
X59448452Y-94650750D01*
X59781339Y-94152548D01*
X80072000Y-94152548D01*
X80072000Y-94315452D01*
X80103782Y-94475227D01*
X80166123Y-94625731D01*
X80256628Y-94761181D01*
X80371819Y-94876372D01*
X80507269Y-94966877D01*
X80657773Y-95029218D01*
X80817548Y-95061000D01*
X80980452Y-95061000D01*
X81140227Y-95029218D01*
X81290731Y-94966877D01*
X81426181Y-94876372D01*
X81541372Y-94761181D01*
X81631877Y-94625731D01*
X81694218Y-94475227D01*
X81726000Y-94315452D01*
X81726000Y-94152548D01*
X81694218Y-93992773D01*
X81631877Y-93842269D01*
X81541372Y-93706819D01*
X81426181Y-93591628D01*
X81290731Y-93501123D01*
X81140227Y-93438782D01*
X80980452Y-93407000D01*
X80817548Y-93407000D01*
X80657773Y-93438782D01*
X80507269Y-93501123D01*
X80371819Y-93591628D01*
X80256628Y-93706819D01*
X80166123Y-93842269D01*
X80103782Y-93992773D01*
X80072000Y-94152548D01*
X59781339Y-94152548D01*
X60075202Y-93712752D01*
X60419083Y-92882548D01*
X82485000Y-92882548D01*
X82485000Y-93045452D01*
X82516782Y-93205227D01*
X82579123Y-93355731D01*
X82669628Y-93491181D01*
X82784819Y-93606372D01*
X82920269Y-93696877D01*
X83070773Y-93759218D01*
X83230548Y-93791000D01*
X83393452Y-93791000D01*
X83553227Y-93759218D01*
X83703731Y-93696877D01*
X83804676Y-93629427D01*
X83849123Y-93736731D01*
X83939628Y-93872181D01*
X84054819Y-93987372D01*
X84190269Y-94077877D01*
X84340773Y-94140218D01*
X84449602Y-94161866D01*
X84408566Y-94223281D01*
X84346225Y-94373785D01*
X84314443Y-94533560D01*
X84314443Y-94696464D01*
X84346225Y-94856239D01*
X84408566Y-95006743D01*
X84499071Y-95142193D01*
X84614262Y-95257384D01*
X84749712Y-95347889D01*
X84900216Y-95410230D01*
X85059991Y-95442012D01*
X85222895Y-95442012D01*
X85382670Y-95410230D01*
X85533174Y-95347889D01*
X85641567Y-95275463D01*
X85749713Y-95347724D01*
X85900217Y-95410065D01*
X86059992Y-95441847D01*
X86222896Y-95441847D01*
X86382671Y-95410065D01*
X86533175Y-95347724D01*
X86640189Y-95276219D01*
X86749713Y-95349401D01*
X86900217Y-95411742D01*
X87059992Y-95443524D01*
X87222896Y-95443524D01*
X87382671Y-95411742D01*
X87533175Y-95349401D01*
X87652002Y-95270003D01*
X87749615Y-95335226D01*
X87900119Y-95397567D01*
X88059894Y-95429349D01*
X88222798Y-95429349D01*
X88382573Y-95397567D01*
X88533077Y-95335226D01*
X88638206Y-95264981D01*
X88762269Y-95347877D01*
X88912773Y-95410218D01*
X89072548Y-95442000D01*
X89235452Y-95442000D01*
X89395227Y-95410218D01*
X89545731Y-95347877D01*
X89681181Y-95257372D01*
X89796372Y-95142181D01*
X89886877Y-95006731D01*
X89949218Y-94856227D01*
X89981000Y-94696452D01*
X89981000Y-94533548D01*
X89949218Y-94373773D01*
X89886877Y-94223269D01*
X89796372Y-94087819D01*
X89681181Y-93972628D01*
X89545731Y-93882123D01*
X89395227Y-93819782D01*
X89235452Y-93788000D01*
X89072548Y-93788000D01*
X88912773Y-93819782D01*
X88762269Y-93882123D01*
X88657140Y-93952368D01*
X88533077Y-93869472D01*
X88382573Y-93807131D01*
X88222798Y-93775349D01*
X88059894Y-93775349D01*
X87900119Y-93807131D01*
X87749615Y-93869472D01*
X87630788Y-93948870D01*
X87533175Y-93883647D01*
X87382671Y-93821306D01*
X87222896Y-93789524D01*
X87059992Y-93789524D01*
X86900217Y-93821306D01*
X86749713Y-93883647D01*
X86642699Y-93955152D01*
X86533175Y-93881970D01*
X86382671Y-93819629D01*
X86222896Y-93787847D01*
X86059992Y-93787847D01*
X85900217Y-93819629D01*
X85749713Y-93881970D01*
X85641320Y-93954396D01*
X85533174Y-93882135D01*
X85382670Y-93819794D01*
X85273841Y-93798146D01*
X85314877Y-93736731D01*
X85377218Y-93586227D01*
X85409000Y-93426452D01*
X85409000Y-93263548D01*
X85377218Y-93103773D01*
X85314877Y-92953269D01*
X85224372Y-92817819D01*
X85109181Y-92702628D01*
X84973731Y-92612123D01*
X84823227Y-92549782D01*
X84663452Y-92518000D01*
X84500548Y-92518000D01*
X84340773Y-92549782D01*
X84190269Y-92612123D01*
X84089324Y-92679573D01*
X84044877Y-92572269D01*
X83954372Y-92436819D01*
X83839181Y-92321628D01*
X83703731Y-92231123D01*
X83553227Y-92168782D01*
X83393452Y-92137000D01*
X83230548Y-92137000D01*
X83070773Y-92168782D01*
X82920269Y-92231123D01*
X82784819Y-92321628D01*
X82669628Y-92436819D01*
X82579123Y-92572269D01*
X82516782Y-92722773D01*
X82485000Y-92882548D01*
X60419083Y-92882548D01*
X60506915Y-92670504D01*
X60727000Y-91564060D01*
X60727000Y-90469548D01*
X93026000Y-90469548D01*
X93026000Y-90632452D01*
X93057782Y-90792227D01*
X93120123Y-90942731D01*
X93210628Y-91078181D01*
X93325819Y-91193372D01*
X93461269Y-91283877D01*
X93611773Y-91346218D01*
X93771548Y-91378000D01*
X93934452Y-91378000D01*
X94094227Y-91346218D01*
X94244731Y-91283877D01*
X94380181Y-91193372D01*
X94495372Y-91078181D01*
X94585877Y-90942731D01*
X94624060Y-90850548D01*
X126427000Y-90850548D01*
X126427000Y-91013452D01*
X126458782Y-91173227D01*
X126521123Y-91323731D01*
X126611628Y-91459181D01*
X126726819Y-91574372D01*
X126862269Y-91664877D01*
X127012773Y-91727218D01*
X127172548Y-91759000D01*
X127335452Y-91759000D01*
X127495227Y-91727218D01*
X127645731Y-91664877D01*
X127781181Y-91574372D01*
X127896372Y-91459181D01*
X127986877Y-91323731D01*
X128049218Y-91173227D01*
X128081000Y-91013452D01*
X128081000Y-90850548D01*
X128049218Y-90690773D01*
X127986877Y-90540269D01*
X127896372Y-90404819D01*
X127781181Y-90289628D01*
X127645731Y-90199123D01*
X127495227Y-90136782D01*
X127335452Y-90105000D01*
X127172548Y-90105000D01*
X127012773Y-90136782D01*
X126862269Y-90199123D01*
X126726819Y-90289628D01*
X126611628Y-90404819D01*
X126521123Y-90540269D01*
X126458782Y-90690773D01*
X126427000Y-90850548D01*
X94624060Y-90850548D01*
X94648218Y-90792227D01*
X94680000Y-90632452D01*
X94680000Y-90469548D01*
X94648218Y-90309773D01*
X94585877Y-90159269D01*
X94495372Y-90023819D01*
X94380181Y-89908628D01*
X94244731Y-89818123D01*
X94094227Y-89755782D01*
X93934452Y-89724000D01*
X93771548Y-89724000D01*
X93611773Y-89755782D01*
X93461269Y-89818123D01*
X93325819Y-89908628D01*
X93210628Y-90023819D01*
X93120123Y-90159269D01*
X93057782Y-90309773D01*
X93026000Y-90469548D01*
X60727000Y-90469548D01*
X60727000Y-90435940D01*
X60506915Y-89329496D01*
X60143194Y-88451395D01*
X86906847Y-88451395D01*
X86906847Y-88614299D01*
X86938629Y-88774074D01*
X87000970Y-88924578D01*
X87091475Y-89060028D01*
X87206666Y-89175219D01*
X87342116Y-89265724D01*
X87492620Y-89328065D01*
X87652395Y-89359847D01*
X87815299Y-89359847D01*
X87975074Y-89328065D01*
X88125578Y-89265724D01*
X88261028Y-89175219D01*
X88363699Y-89072548D01*
X89724000Y-89072548D01*
X89724000Y-89235452D01*
X89755782Y-89395227D01*
X89818123Y-89545731D01*
X89908628Y-89681181D01*
X90023819Y-89796372D01*
X90159269Y-89886877D01*
X90309773Y-89949218D01*
X90469548Y-89981000D01*
X90632452Y-89981000D01*
X90792227Y-89949218D01*
X90942731Y-89886877D01*
X91078181Y-89796372D01*
X91193372Y-89681181D01*
X91283877Y-89545731D01*
X91346218Y-89395227D01*
X91378000Y-89235452D01*
X91378000Y-89072548D01*
X91346218Y-88912773D01*
X91283877Y-88762269D01*
X91193372Y-88626819D01*
X91078181Y-88511628D01*
X90942731Y-88421123D01*
X90792227Y-88358782D01*
X90632452Y-88327000D01*
X90469548Y-88327000D01*
X90309773Y-88358782D01*
X90159269Y-88421123D01*
X90023819Y-88511628D01*
X89908628Y-88626819D01*
X89818123Y-88762269D01*
X89755782Y-88912773D01*
X89724000Y-89072548D01*
X88363699Y-89072548D01*
X88376219Y-89060028D01*
X88466724Y-88924578D01*
X88529065Y-88774074D01*
X88560847Y-88614299D01*
X88560847Y-88451395D01*
X88529065Y-88291620D01*
X88466724Y-88141116D01*
X88376219Y-88005666D01*
X88261028Y-87890475D01*
X88125578Y-87799970D01*
X87975074Y-87737629D01*
X87815299Y-87705847D01*
X87652395Y-87705847D01*
X87492620Y-87737629D01*
X87342116Y-87799970D01*
X87206666Y-87890475D01*
X87091475Y-88005666D01*
X87000970Y-88141116D01*
X86938629Y-88291620D01*
X86906847Y-88451395D01*
X60143194Y-88451395D01*
X60075202Y-88287248D01*
X59448452Y-87349250D01*
X58650750Y-86551548D01*
X58432246Y-86405548D01*
X91248000Y-86405548D01*
X91248000Y-86568452D01*
X91279782Y-86728227D01*
X91342123Y-86878731D01*
X91432628Y-87014181D01*
X91547819Y-87129372D01*
X91683269Y-87219877D01*
X91833773Y-87282218D01*
X91993548Y-87314000D01*
X92156452Y-87314000D01*
X92316227Y-87282218D01*
X92466731Y-87219877D01*
X92602181Y-87129372D01*
X92717372Y-87014181D01*
X92807877Y-86878731D01*
X92870218Y-86728227D01*
X92902000Y-86568452D01*
X92902000Y-86405548D01*
X92876738Y-86278548D01*
X100138000Y-86278548D01*
X100138000Y-86441452D01*
X100169782Y-86601227D01*
X100232123Y-86751731D01*
X100322628Y-86887181D01*
X100437819Y-87002372D01*
X100573269Y-87092877D01*
X100723773Y-87155218D01*
X100883548Y-87187000D01*
X101046452Y-87187000D01*
X101206227Y-87155218D01*
X101356731Y-87092877D01*
X101492181Y-87002372D01*
X101607372Y-86887181D01*
X101697877Y-86751731D01*
X101760218Y-86601227D01*
X101792000Y-86441452D01*
X101792000Y-86278548D01*
X101760218Y-86118773D01*
X101697877Y-85968269D01*
X101607372Y-85832819D01*
X101492181Y-85717628D01*
X101356731Y-85627123D01*
X101206227Y-85564782D01*
X101046452Y-85533000D01*
X100883548Y-85533000D01*
X100723773Y-85564782D01*
X100573269Y-85627123D01*
X100437819Y-85717628D01*
X100322628Y-85832819D01*
X100232123Y-85968269D01*
X100169782Y-86118773D01*
X100138000Y-86278548D01*
X92876738Y-86278548D01*
X92870218Y-86245773D01*
X92807877Y-86095269D01*
X92717372Y-85959819D01*
X92602181Y-85844628D01*
X92466731Y-85754123D01*
X92316227Y-85691782D01*
X92156452Y-85660000D01*
X91993548Y-85660000D01*
X91833773Y-85691782D01*
X91683269Y-85754123D01*
X91547819Y-85844628D01*
X91432628Y-85959819D01*
X91342123Y-86095269D01*
X91279782Y-86245773D01*
X91248000Y-86405548D01*
X58432246Y-86405548D01*
X57712752Y-85924798D01*
X56670504Y-85493085D01*
X55564060Y-85273000D01*
X54435940Y-85273000D01*
X53329496Y-85493085D01*
X52287248Y-85924798D01*
X51349250Y-86551548D01*
X50551548Y-87349250D01*
X49924798Y-88287248D01*
X49493085Y-89329496D01*
X49273000Y-90435940D01*
X47452000Y-90435940D01*
X47452000Y-78644679D01*
X124808000Y-78644679D01*
X124808000Y-78955321D01*
X124868604Y-79259994D01*
X124987481Y-79546989D01*
X125160064Y-79805279D01*
X125379721Y-80024936D01*
X125638011Y-80197519D01*
X125925006Y-80316396D01*
X126229679Y-80377000D01*
X126540321Y-80377000D01*
X126844994Y-80316396D01*
X127131989Y-80197519D01*
X127390279Y-80024936D01*
X127609936Y-79805279D01*
X127782519Y-79546989D01*
X127901396Y-79259994D01*
X127962000Y-78955321D01*
X127962000Y-78644679D01*
X132408000Y-78644679D01*
X132408000Y-78955321D01*
X132468604Y-79259994D01*
X132587481Y-79546989D01*
X132760064Y-79805279D01*
X132979721Y-80024936D01*
X133238011Y-80197519D01*
X133525006Y-80316396D01*
X133829679Y-80377000D01*
X134140321Y-80377000D01*
X134444994Y-80316396D01*
X134731989Y-80197519D01*
X134990279Y-80024936D01*
X135209936Y-79805279D01*
X135382519Y-79546989D01*
X135501396Y-79259994D01*
X135562000Y-78955321D01*
X135562000Y-78644679D01*
X135501396Y-78340006D01*
X135382519Y-78053011D01*
X135209936Y-77794721D01*
X134990279Y-77575064D01*
X134731989Y-77402481D01*
X134444994Y-77283604D01*
X134140321Y-77223000D01*
X133829679Y-77223000D01*
X133525006Y-77283604D01*
X133238011Y-77402481D01*
X132979721Y-77575064D01*
X132760064Y-77794721D01*
X132587481Y-78053011D01*
X132468604Y-78340006D01*
X132408000Y-78644679D01*
X127962000Y-78644679D01*
X127901396Y-78340006D01*
X127782519Y-78053011D01*
X127609936Y-77794721D01*
X127390279Y-77575064D01*
X127131989Y-77402481D01*
X126844994Y-77283604D01*
X126540321Y-77223000D01*
X126229679Y-77223000D01*
X125925006Y-77283604D01*
X125638011Y-77402481D01*
X125379721Y-77575064D01*
X125160064Y-77794721D01*
X124987481Y-78053011D01*
X124868604Y-78340006D01*
X124808000Y-78644679D01*
X47452000Y-78644679D01*
X47452000Y-76127000D01*
X137548000Y-76127000D01*
X137548001Y-118548000D01*
%TA.AperFunction,Conductor*%
D28*
G36*
X137548001Y-118548000D02*
G01*
X47452000Y-118548000D01*
X47452000Y-111570207D01*
X49889000Y-111570207D01*
X49889000Y-111949793D01*
X49963053Y-112322085D01*
X50108315Y-112672777D01*
X50319201Y-112988391D01*
X50587609Y-113256799D01*
X50903223Y-113467685D01*
X51253915Y-113612947D01*
X51626207Y-113687000D01*
X52005793Y-113687000D01*
X52378085Y-113612947D01*
X52728777Y-113467685D01*
X52760184Y-113446699D01*
X79083000Y-113446699D01*
X79083000Y-113629301D01*
X79118624Y-113808396D01*
X79188504Y-113977099D01*
X79289952Y-114128928D01*
X79334024Y-114173000D01*
X79289952Y-114217072D01*
X79188504Y-114368901D01*
X79118624Y-114537604D01*
X79083000Y-114716699D01*
X79083000Y-114899301D01*
X79118624Y-115078396D01*
X79188504Y-115247099D01*
X79289952Y-115398928D01*
X79419072Y-115528048D01*
X79570901Y-115629496D01*
X79739604Y-115699376D01*
X79918699Y-115735000D01*
X80101301Y-115735000D01*
X80280396Y-115699376D01*
X80449099Y-115629496D01*
X80600928Y-115528048D01*
X80645000Y-115483976D01*
X80689072Y-115528048D01*
X80840901Y-115629496D01*
X81009604Y-115699376D01*
X81188699Y-115735000D01*
X81371301Y-115735000D01*
X81550396Y-115699376D01*
X81719099Y-115629496D01*
X81870928Y-115528048D01*
X81915000Y-115483976D01*
X81959072Y-115528048D01*
X82110901Y-115629496D01*
X82279604Y-115699376D01*
X82458699Y-115735000D01*
X82641301Y-115735000D01*
X82820396Y-115699376D01*
X82989099Y-115629496D01*
X83140928Y-115528048D01*
X83185000Y-115483976D01*
X83229072Y-115528048D01*
X83380901Y-115629496D01*
X83549604Y-115699376D01*
X83728699Y-115735000D01*
X83911301Y-115735000D01*
X84090396Y-115699376D01*
X84259099Y-115629496D01*
X84410928Y-115528048D01*
X84455000Y-115483976D01*
X84499072Y-115528048D01*
X84650901Y-115629496D01*
X84819604Y-115699376D01*
X84998699Y-115735000D01*
X85181301Y-115735000D01*
X85360396Y-115699376D01*
X85529099Y-115629496D01*
X85680928Y-115528048D01*
X85725000Y-115483976D01*
X85769072Y-115528048D01*
X85920901Y-115629496D01*
X86089604Y-115699376D01*
X86268699Y-115735000D01*
X86451301Y-115735000D01*
X86630396Y-115699376D01*
X86799099Y-115629496D01*
X86831730Y-115607693D01*
X86887980Y-115666865D01*
X87069794Y-115795123D01*
X87273136Y-115885446D01*
X87328126Y-115902119D01*
X87503000Y-115775954D01*
X87503000Y-114935000D01*
X87483000Y-114935000D01*
X87483000Y-114681000D01*
X87503000Y-114681000D01*
X87503000Y-114661000D01*
X87757000Y-114661000D01*
X87757000Y-114681000D01*
X87777000Y-114681000D01*
X87777000Y-114935000D01*
X87757000Y-114935000D01*
X87757000Y-115775954D01*
X87931874Y-115902119D01*
X87986864Y-115885446D01*
X88190206Y-115795123D01*
X88372020Y-115666865D01*
X88428270Y-115607693D01*
X88460901Y-115629496D01*
X88629604Y-115699376D01*
X88808699Y-115735000D01*
X88991301Y-115735000D01*
X89170396Y-115699376D01*
X89339099Y-115629496D01*
X89490928Y-115528048D01*
X89535000Y-115483976D01*
X89579072Y-115528048D01*
X89730901Y-115629496D01*
X89899604Y-115699376D01*
X90078699Y-115735000D01*
X90261301Y-115735000D01*
X90440396Y-115699376D01*
X90609099Y-115629496D01*
X90760928Y-115528048D01*
X90805000Y-115483976D01*
X90849072Y-115528048D01*
X91000901Y-115629496D01*
X91169604Y-115699376D01*
X91348699Y-115735000D01*
X91531301Y-115735000D01*
X91710396Y-115699376D01*
X91879099Y-115629496D01*
X92030928Y-115528048D01*
X92075000Y-115483976D01*
X92119072Y-115528048D01*
X92270901Y-115629496D01*
X92439604Y-115699376D01*
X92618699Y-115735000D01*
X92801301Y-115735000D01*
X92980396Y-115699376D01*
X93149099Y-115629496D01*
X93300928Y-115528048D01*
X93345000Y-115483976D01*
X93389072Y-115528048D01*
X93540901Y-115629496D01*
X93709604Y-115699376D01*
X93888699Y-115735000D01*
X94071301Y-115735000D01*
X94250396Y-115699376D01*
X94419099Y-115629496D01*
X94570928Y-115528048D01*
X94615000Y-115483976D01*
X94659072Y-115528048D01*
X94810901Y-115629496D01*
X94979604Y-115699376D01*
X95158699Y-115735000D01*
X95341301Y-115735000D01*
X95520396Y-115699376D01*
X95689099Y-115629496D01*
X95840928Y-115528048D01*
X95885000Y-115483976D01*
X95929072Y-115528048D01*
X96080901Y-115629496D01*
X96249604Y-115699376D01*
X96428699Y-115735000D01*
X96611301Y-115735000D01*
X96790396Y-115699376D01*
X96959099Y-115629496D01*
X97110928Y-115528048D01*
X97155000Y-115483976D01*
X97199072Y-115528048D01*
X97350901Y-115629496D01*
X97519604Y-115699376D01*
X97698699Y-115735000D01*
X97881301Y-115735000D01*
X98060396Y-115699376D01*
X98229099Y-115629496D01*
X98380928Y-115528048D01*
X98425000Y-115483976D01*
X98469072Y-115528048D01*
X98620901Y-115629496D01*
X98789604Y-115699376D01*
X98968699Y-115735000D01*
X99151301Y-115735000D01*
X99330396Y-115699376D01*
X99499099Y-115629496D01*
X99650928Y-115528048D01*
X99695000Y-115483976D01*
X99739072Y-115528048D01*
X99890901Y-115629496D01*
X100059604Y-115699376D01*
X100238699Y-115735000D01*
X100421301Y-115735000D01*
X100600396Y-115699376D01*
X100769099Y-115629496D01*
X100920928Y-115528048D01*
X101050048Y-115398928D01*
X101151496Y-115247099D01*
X101221376Y-115078396D01*
X101257000Y-114899301D01*
X101257000Y-114716699D01*
X101221376Y-114537604D01*
X101151496Y-114368901D01*
X101133216Y-114341542D01*
X101133395Y-114341395D01*
X101186755Y-114276376D01*
X101226405Y-114202196D01*
X101250822Y-114121707D01*
X101259066Y-114038000D01*
X101259066Y-113038000D01*
X101250822Y-112954293D01*
X101226405Y-112873804D01*
X101186755Y-112799624D01*
X101133395Y-112734605D01*
X101068376Y-112681245D01*
X100994196Y-112641595D01*
X100913707Y-112617178D01*
X100830000Y-112608934D01*
X99830000Y-112608934D01*
X99746293Y-112617178D01*
X99665804Y-112641595D01*
X99591624Y-112681245D01*
X99526605Y-112734605D01*
X99526458Y-112734784D01*
X99499099Y-112716504D01*
X99330396Y-112646624D01*
X99151301Y-112611000D01*
X98968699Y-112611000D01*
X98789604Y-112646624D01*
X98620901Y-112716504D01*
X98469072Y-112817952D01*
X98425000Y-112862024D01*
X98380928Y-112817952D01*
X98229099Y-112716504D01*
X98060396Y-112646624D01*
X97881301Y-112611000D01*
X97698699Y-112611000D01*
X97519604Y-112646624D01*
X97350901Y-112716504D01*
X97199072Y-112817952D01*
X97155000Y-112862024D01*
X97110928Y-112817952D01*
X96959099Y-112716504D01*
X96790396Y-112646624D01*
X96611301Y-112611000D01*
X96428699Y-112611000D01*
X96249604Y-112646624D01*
X96080901Y-112716504D01*
X95929072Y-112817952D01*
X95885000Y-112862024D01*
X95840928Y-112817952D01*
X95689099Y-112716504D01*
X95520396Y-112646624D01*
X95341301Y-112611000D01*
X95158699Y-112611000D01*
X94979604Y-112646624D01*
X94810901Y-112716504D01*
X94659072Y-112817952D01*
X94615000Y-112862024D01*
X94570928Y-112817952D01*
X94419099Y-112716504D01*
X94250396Y-112646624D01*
X94071301Y-112611000D01*
X93888699Y-112611000D01*
X93709604Y-112646624D01*
X93540901Y-112716504D01*
X93389072Y-112817952D01*
X93345000Y-112862024D01*
X93300928Y-112817952D01*
X93149099Y-112716504D01*
X92980396Y-112646624D01*
X92801301Y-112611000D01*
X92618699Y-112611000D01*
X92439604Y-112646624D01*
X92270901Y-112716504D01*
X92119072Y-112817952D01*
X92075000Y-112862024D01*
X92030928Y-112817952D01*
X91879099Y-112716504D01*
X91710396Y-112646624D01*
X91531301Y-112611000D01*
X91348699Y-112611000D01*
X91169604Y-112646624D01*
X91000901Y-112716504D01*
X90849072Y-112817952D01*
X90805000Y-112862024D01*
X90760928Y-112817952D01*
X90609099Y-112716504D01*
X90440396Y-112646624D01*
X90261301Y-112611000D01*
X90078699Y-112611000D01*
X89899604Y-112646624D01*
X89730901Y-112716504D01*
X89579072Y-112817952D01*
X89535000Y-112862024D01*
X89490928Y-112817952D01*
X89339099Y-112716504D01*
X89170396Y-112646624D01*
X88991301Y-112611000D01*
X88808699Y-112611000D01*
X88629604Y-112646624D01*
X88460901Y-112716504D01*
X88309072Y-112817952D01*
X88265000Y-112862024D01*
X88220928Y-112817952D01*
X88069099Y-112716504D01*
X87900396Y-112646624D01*
X87721301Y-112611000D01*
X87538699Y-112611000D01*
X87359604Y-112646624D01*
X87190901Y-112716504D01*
X87039072Y-112817952D01*
X86995000Y-112862024D01*
X86950928Y-112817952D01*
X86799099Y-112716504D01*
X86630396Y-112646624D01*
X86451301Y-112611000D01*
X86268699Y-112611000D01*
X86089604Y-112646624D01*
X85920901Y-112716504D01*
X85769072Y-112817952D01*
X85725000Y-112862024D01*
X85680928Y-112817952D01*
X85529099Y-112716504D01*
X85360396Y-112646624D01*
X85181301Y-112611000D01*
X84998699Y-112611000D01*
X84819604Y-112646624D01*
X84650901Y-112716504D01*
X84499072Y-112817952D01*
X84455000Y-112862024D01*
X84410928Y-112817952D01*
X84259099Y-112716504D01*
X84090396Y-112646624D01*
X83911301Y-112611000D01*
X83728699Y-112611000D01*
X83549604Y-112646624D01*
X83380901Y-112716504D01*
X83229072Y-112817952D01*
X83185000Y-112862024D01*
X83140928Y-112817952D01*
X82989099Y-112716504D01*
X82820396Y-112646624D01*
X82641301Y-112611000D01*
X82458699Y-112611000D01*
X82279604Y-112646624D01*
X82110901Y-112716504D01*
X81959072Y-112817952D01*
X81915000Y-112862024D01*
X81870928Y-112817952D01*
X81719099Y-112716504D01*
X81550396Y-112646624D01*
X81371301Y-112611000D01*
X81188699Y-112611000D01*
X81009604Y-112646624D01*
X80840901Y-112716504D01*
X80689072Y-112817952D01*
X80645000Y-112862024D01*
X80600928Y-112817952D01*
X80449099Y-112716504D01*
X80280396Y-112646624D01*
X80101301Y-112611000D01*
X79918699Y-112611000D01*
X79739604Y-112646624D01*
X79570901Y-112716504D01*
X79419072Y-112817952D01*
X79289952Y-112947072D01*
X79188504Y-113098901D01*
X79118624Y-113267604D01*
X79083000Y-113446699D01*
X52760184Y-113446699D01*
X53044391Y-113256799D01*
X53312799Y-112988391D01*
X53523685Y-112672777D01*
X53668947Y-112322085D01*
X53733493Y-111997584D01*
X125215000Y-111997584D01*
X125215000Y-112426416D01*
X125298660Y-112847008D01*
X125462767Y-113243196D01*
X125701013Y-113599757D01*
X126004243Y-113902987D01*
X126360804Y-114141233D01*
X126756992Y-114305340D01*
X127177584Y-114389000D01*
X127606416Y-114389000D01*
X128027008Y-114305340D01*
X128423196Y-114141233D01*
X128779757Y-113902987D01*
X129082987Y-113599757D01*
X129321233Y-113243196D01*
X129485340Y-112847008D01*
X129569000Y-112426416D01*
X129569000Y-111997584D01*
X129485340Y-111576992D01*
X129321233Y-111180804D01*
X129082987Y-110824243D01*
X128779757Y-110521013D01*
X128423196Y-110282767D01*
X128027008Y-110118660D01*
X127606416Y-110035000D01*
X127177584Y-110035000D01*
X126756992Y-110118660D01*
X126360804Y-110282767D01*
X126004243Y-110521013D01*
X125701013Y-110824243D01*
X125462767Y-111180804D01*
X125298660Y-111576992D01*
X125215000Y-111997584D01*
X53733493Y-111997584D01*
X53743000Y-111949793D01*
X53743000Y-111570207D01*
X53668947Y-111197915D01*
X53523685Y-110847223D01*
X53312799Y-110531609D01*
X53044391Y-110263201D01*
X52728777Y-110052315D01*
X52378085Y-109907053D01*
X52005793Y-109833000D01*
X51626207Y-109833000D01*
X51253915Y-109907053D01*
X50903223Y-110052315D01*
X50587609Y-110263201D01*
X50319201Y-110531609D01*
X50108315Y-110847223D01*
X49963053Y-111197915D01*
X49889000Y-111570207D01*
X47452000Y-111570207D01*
X47452000Y-105180000D01*
X49886934Y-105180000D01*
X49886934Y-108180000D01*
X49895178Y-108263707D01*
X49919595Y-108344196D01*
X49959245Y-108418376D01*
X50012605Y-108483395D01*
X50077624Y-108536755D01*
X50151804Y-108576405D01*
X50232293Y-108600822D01*
X50316000Y-108609066D01*
X53316000Y-108609066D01*
X53399707Y-108600822D01*
X53480196Y-108576405D01*
X53554376Y-108536755D01*
X53619395Y-108483395D01*
X53672755Y-108418376D01*
X53712405Y-108344196D01*
X53723265Y-108308395D01*
X77717847Y-108308395D01*
X77717847Y-108471299D01*
X77749629Y-108631074D01*
X77811970Y-108781578D01*
X77902475Y-108917028D01*
X78017666Y-109032219D01*
X78153116Y-109122724D01*
X78303620Y-109185065D01*
X78463395Y-109216847D01*
X78626299Y-109216847D01*
X78786074Y-109185065D01*
X78936578Y-109122724D01*
X79072028Y-109032219D01*
X79187219Y-108917028D01*
X79277724Y-108781578D01*
X79340065Y-108631074D01*
X79371847Y-108471299D01*
X79371847Y-108308395D01*
X79340065Y-108148620D01*
X79277724Y-107998116D01*
X79187219Y-107862666D01*
X79072028Y-107747475D01*
X78936578Y-107656970D01*
X78786074Y-107594629D01*
X78626299Y-107562847D01*
X78463395Y-107562847D01*
X78303620Y-107594629D01*
X78153116Y-107656970D01*
X78017666Y-107747475D01*
X77902475Y-107862666D01*
X77811970Y-107998116D01*
X77749629Y-108148620D01*
X77717847Y-108308395D01*
X53723265Y-108308395D01*
X53736822Y-108263707D01*
X53745066Y-108180000D01*
X53745066Y-105180000D01*
X53736822Y-105096293D01*
X53712405Y-105015804D01*
X53672755Y-104941624D01*
X53619395Y-104876605D01*
X53554376Y-104823245D01*
X53480196Y-104783595D01*
X53399707Y-104759178D01*
X53316000Y-104750934D01*
X50316000Y-104750934D01*
X50232293Y-104759178D01*
X50151804Y-104783595D01*
X50077624Y-104823245D01*
X50012605Y-104876605D01*
X49959245Y-104941624D01*
X49919595Y-105015804D01*
X49895178Y-105096293D01*
X49886934Y-105180000D01*
X47452000Y-105180000D01*
X47452000Y-104693548D01*
X83501000Y-104693548D01*
X83501000Y-104856452D01*
X83532782Y-105016227D01*
X83595123Y-105166731D01*
X83685628Y-105302181D01*
X83800819Y-105417372D01*
X83936269Y-105507877D01*
X84086773Y-105570218D01*
X84246548Y-105602000D01*
X84409452Y-105602000D01*
X84569227Y-105570218D01*
X84719731Y-105507877D01*
X84855181Y-105417372D01*
X84970372Y-105302181D01*
X85060877Y-105166731D01*
X85123218Y-105016227D01*
X85155000Y-104856452D01*
X85155000Y-104693548D01*
X85123218Y-104533773D01*
X85060877Y-104383269D01*
X84970372Y-104247819D01*
X84855181Y-104132628D01*
X84719731Y-104042123D01*
X84569227Y-103979782D01*
X84409452Y-103948000D01*
X84246548Y-103948000D01*
X84086773Y-103979782D01*
X83936269Y-104042123D01*
X83800819Y-104132628D01*
X83685628Y-104247819D01*
X83595123Y-104383269D01*
X83532782Y-104533773D01*
X83501000Y-104693548D01*
X47452000Y-104693548D01*
X47452000Y-102407548D01*
X85787000Y-102407548D01*
X85787000Y-102570452D01*
X85818782Y-102730227D01*
X85881123Y-102880731D01*
X85971628Y-103016181D01*
X86086819Y-103131372D01*
X86222269Y-103221877D01*
X86372773Y-103284218D01*
X86532548Y-103316000D01*
X86695452Y-103316000D01*
X86855227Y-103284218D01*
X87005731Y-103221877D01*
X87141181Y-103131372D01*
X87256372Y-103016181D01*
X87346877Y-102880731D01*
X87409218Y-102730227D01*
X87441000Y-102570452D01*
X87441000Y-102407548D01*
X87409218Y-102247773D01*
X87346877Y-102097269D01*
X87256372Y-101961819D01*
X87141181Y-101846628D01*
X87005731Y-101756123D01*
X86855227Y-101693782D01*
X86695452Y-101662000D01*
X86532548Y-101662000D01*
X86372773Y-101693782D01*
X86222269Y-101756123D01*
X86086819Y-101846628D01*
X85971628Y-101961819D01*
X85881123Y-102097269D01*
X85818782Y-102247773D01*
X85787000Y-102407548D01*
X47452000Y-102407548D01*
X47452000Y-100121548D01*
X88073000Y-100121548D01*
X88073000Y-100284452D01*
X88104782Y-100444227D01*
X88167123Y-100594731D01*
X88257628Y-100730181D01*
X88372819Y-100845372D01*
X88508269Y-100935877D01*
X88658773Y-100998218D01*
X88818548Y-101030000D01*
X88981452Y-101030000D01*
X89141227Y-100998218D01*
X89291731Y-100935877D01*
X89427181Y-100845372D01*
X89542372Y-100730181D01*
X89632877Y-100594731D01*
X89695218Y-100444227D01*
X89727000Y-100284452D01*
X89727000Y-100121548D01*
X89695218Y-99961773D01*
X89632877Y-99811269D01*
X89542372Y-99675819D01*
X89427181Y-99560628D01*
X89291731Y-99470123D01*
X89141227Y-99407782D01*
X88981452Y-99376000D01*
X88818548Y-99376000D01*
X88658773Y-99407782D01*
X88508269Y-99470123D01*
X88372819Y-99560628D01*
X88257628Y-99675819D01*
X88167123Y-99811269D01*
X88104782Y-99961773D01*
X88073000Y-100121548D01*
X47452000Y-100121548D01*
X47452000Y-98851548D01*
X80072000Y-98851548D01*
X80072000Y-99014452D01*
X80103782Y-99174227D01*
X80166123Y-99324731D01*
X80256628Y-99460181D01*
X80371819Y-99575372D01*
X80507269Y-99665877D01*
X80657773Y-99728218D01*
X80817548Y-99760000D01*
X80980452Y-99760000D01*
X81140227Y-99728218D01*
X81290731Y-99665877D01*
X81426181Y-99575372D01*
X81541372Y-99460181D01*
X81631877Y-99324731D01*
X81694218Y-99174227D01*
X81726000Y-99014452D01*
X81726000Y-98851548D01*
X81694218Y-98691773D01*
X81631877Y-98541269D01*
X81541372Y-98405819D01*
X81426181Y-98290628D01*
X81290731Y-98200123D01*
X81140227Y-98137782D01*
X80980452Y-98106000D01*
X80817548Y-98106000D01*
X80657773Y-98137782D01*
X80507269Y-98200123D01*
X80371819Y-98290628D01*
X80256628Y-98405819D01*
X80166123Y-98541269D01*
X80103782Y-98691773D01*
X80072000Y-98851548D01*
X47452000Y-98851548D01*
X47452000Y-97454548D01*
X90359000Y-97454548D01*
X90359000Y-97617452D01*
X90390782Y-97777227D01*
X90453123Y-97927731D01*
X90543628Y-98063181D01*
X90658819Y-98178372D01*
X90794269Y-98268877D01*
X90944773Y-98331218D01*
X91104548Y-98363000D01*
X91267452Y-98363000D01*
X91427227Y-98331218D01*
X91577731Y-98268877D01*
X91713181Y-98178372D01*
X91828372Y-98063181D01*
X91895612Y-97962548D01*
X94423000Y-97962548D01*
X94423000Y-98125452D01*
X94454782Y-98285227D01*
X94517123Y-98435731D01*
X94594812Y-98552000D01*
X94517123Y-98668269D01*
X94454782Y-98818773D01*
X94423000Y-98978548D01*
X94423000Y-99141452D01*
X94454782Y-99301227D01*
X94517123Y-99451731D01*
X94607628Y-99587181D01*
X94722819Y-99702372D01*
X94858269Y-99792877D01*
X95008773Y-99855218D01*
X95168548Y-99887000D01*
X95331452Y-99887000D01*
X95491227Y-99855218D01*
X95641731Y-99792877D01*
X95777181Y-99702372D01*
X95892372Y-99587181D01*
X95982877Y-99451731D01*
X95989417Y-99435940D01*
X102273000Y-99435940D01*
X102273000Y-100564060D01*
X102493085Y-101670504D01*
X102924798Y-102712752D01*
X103551548Y-103650750D01*
X104349250Y-104448452D01*
X105287248Y-105075202D01*
X106329496Y-105506915D01*
X107435940Y-105727000D01*
X108564060Y-105727000D01*
X109670504Y-105506915D01*
X110712752Y-105075202D01*
X111650750Y-104448452D01*
X112007202Y-104092000D01*
X121402934Y-104092000D01*
X121402934Y-105792000D01*
X121411178Y-105875707D01*
X121435595Y-105956196D01*
X121475245Y-106030376D01*
X121528605Y-106095395D01*
X121593624Y-106148755D01*
X121667804Y-106188405D01*
X121748293Y-106212822D01*
X121832000Y-106221066D01*
X122292633Y-106221066D01*
X122077114Y-106310337D01*
X121867960Y-106450089D01*
X121690089Y-106627960D01*
X121550337Y-106837114D01*
X121454074Y-107069513D01*
X121405000Y-107316226D01*
X121405000Y-107567774D01*
X121454074Y-107814487D01*
X121550337Y-108046886D01*
X121690089Y-108256040D01*
X121867960Y-108433911D01*
X122077114Y-108573663D01*
X122309513Y-108669926D01*
X122556226Y-108719000D01*
X122807774Y-108719000D01*
X123054487Y-108669926D01*
X123286886Y-108573663D01*
X123496040Y-108433911D01*
X123673911Y-108256040D01*
X123682000Y-108243934D01*
X123690089Y-108256040D01*
X123867960Y-108433911D01*
X124077114Y-108573663D01*
X124309513Y-108669926D01*
X124556226Y-108719000D01*
X124807774Y-108719000D01*
X125054487Y-108669926D01*
X125286886Y-108573663D01*
X125496040Y-108433911D01*
X125673911Y-108256040D01*
X125813663Y-108046886D01*
X125909926Y-107814487D01*
X125959000Y-107567774D01*
X125959000Y-107316226D01*
X125909926Y-107069513D01*
X125813663Y-106837114D01*
X125673911Y-106627960D01*
X125496040Y-106450089D01*
X125286886Y-106310337D01*
X125054487Y-106214074D01*
X124943513Y-106192000D01*
X125054487Y-106169926D01*
X125286886Y-106073663D01*
X125496040Y-105933911D01*
X125673911Y-105756040D01*
X125813663Y-105546886D01*
X125909926Y-105314487D01*
X125959000Y-105067774D01*
X125959000Y-104816226D01*
X125909926Y-104569513D01*
X125813663Y-104337114D01*
X125673911Y-104127960D01*
X125496040Y-103950089D01*
X125286886Y-103810337D01*
X125054487Y-103714074D01*
X124807774Y-103665000D01*
X124556226Y-103665000D01*
X124309513Y-103714074D01*
X124077114Y-103810337D01*
X123921275Y-103914465D01*
X123888755Y-103853624D01*
X123835395Y-103788605D01*
X123770376Y-103735245D01*
X123696196Y-103695595D01*
X123615707Y-103671178D01*
X123532000Y-103662934D01*
X121832000Y-103662934D01*
X121748293Y-103671178D01*
X121667804Y-103695595D01*
X121593624Y-103735245D01*
X121528605Y-103788605D01*
X121475245Y-103853624D01*
X121435595Y-103927804D01*
X121411178Y-104008293D01*
X121402934Y-104092000D01*
X112007202Y-104092000D01*
X112448452Y-103650750D01*
X113075202Y-102712752D01*
X113506915Y-101670504D01*
X113713973Y-100629548D01*
X116394000Y-100629548D01*
X116394000Y-100792452D01*
X116425782Y-100952227D01*
X116488123Y-101102731D01*
X116578628Y-101238181D01*
X116693819Y-101353372D01*
X116829269Y-101443877D01*
X116979773Y-101506218D01*
X117139548Y-101538000D01*
X117302452Y-101538000D01*
X117462227Y-101506218D01*
X117612731Y-101443877D01*
X117748181Y-101353372D01*
X117863372Y-101238181D01*
X117953877Y-101102731D01*
X118016218Y-100952227D01*
X118048000Y-100792452D01*
X118048000Y-100629548D01*
X118016218Y-100469773D01*
X117953877Y-100319269D01*
X117863372Y-100183819D01*
X117748181Y-100068628D01*
X117612731Y-99978123D01*
X117563146Y-99957584D01*
X125215000Y-99957584D01*
X125215000Y-100386416D01*
X125298660Y-100807008D01*
X125462767Y-101203196D01*
X125701013Y-101559757D01*
X126004243Y-101862987D01*
X126360804Y-102101233D01*
X126756992Y-102265340D01*
X127177584Y-102349000D01*
X127606416Y-102349000D01*
X128027008Y-102265340D01*
X128423196Y-102101233D01*
X128779757Y-101862987D01*
X129082987Y-101559757D01*
X129321233Y-101203196D01*
X129485340Y-100807008D01*
X129569000Y-100386416D01*
X129569000Y-99957584D01*
X129485340Y-99536992D01*
X129321233Y-99140804D01*
X129082987Y-98784243D01*
X128779757Y-98481013D01*
X128423196Y-98242767D01*
X128027008Y-98078660D01*
X127606416Y-97995000D01*
X127177584Y-97995000D01*
X126756992Y-98078660D01*
X126360804Y-98242767D01*
X126004243Y-98481013D01*
X125701013Y-98784243D01*
X125462767Y-99140804D01*
X125298660Y-99536992D01*
X125215000Y-99957584D01*
X117563146Y-99957584D01*
X117462227Y-99915782D01*
X117302452Y-99884000D01*
X117139548Y-99884000D01*
X116979773Y-99915782D01*
X116829269Y-99978123D01*
X116693819Y-100068628D01*
X116578628Y-100183819D01*
X116488123Y-100319269D01*
X116425782Y-100469773D01*
X116394000Y-100629548D01*
X113713973Y-100629548D01*
X113727000Y-100564060D01*
X113727000Y-99435940D01*
X113506915Y-98329496D01*
X113075202Y-97287248D01*
X112448452Y-96349250D01*
X111650750Y-95551548D01*
X110712752Y-94924798D01*
X109670504Y-94493085D01*
X108564060Y-94273000D01*
X107435940Y-94273000D01*
X106329496Y-94493085D01*
X105287248Y-94924798D01*
X104349250Y-95551548D01*
X103551548Y-96349250D01*
X102924798Y-97287248D01*
X102493085Y-98329496D01*
X102273000Y-99435940D01*
X95989417Y-99435940D01*
X96045218Y-99301227D01*
X96077000Y-99141452D01*
X96077000Y-98978548D01*
X96045218Y-98818773D01*
X95982877Y-98668269D01*
X95905188Y-98552000D01*
X95982877Y-98435731D01*
X96045218Y-98285227D01*
X96077000Y-98125452D01*
X96077000Y-97962548D01*
X96045218Y-97802773D01*
X95982877Y-97652269D01*
X95912632Y-97547140D01*
X95995528Y-97423077D01*
X96057869Y-97272573D01*
X96089651Y-97112798D01*
X96089651Y-96949894D01*
X96057869Y-96790119D01*
X95995528Y-96639615D01*
X95905023Y-96504165D01*
X95789832Y-96388974D01*
X95654382Y-96298469D01*
X95503878Y-96236128D01*
X95344103Y-96204346D01*
X95181199Y-96204346D01*
X95021424Y-96236128D01*
X94870920Y-96298469D01*
X94735470Y-96388974D01*
X94620279Y-96504165D01*
X94529774Y-96639615D01*
X94467433Y-96790119D01*
X94435651Y-96949894D01*
X94435651Y-97112798D01*
X94467433Y-97272573D01*
X94529774Y-97423077D01*
X94600019Y-97528206D01*
X94517123Y-97652269D01*
X94454782Y-97802773D01*
X94423000Y-97962548D01*
X91895612Y-97962548D01*
X91918877Y-97927731D01*
X91981218Y-97777227D01*
X92013000Y-97617452D01*
X92013000Y-97454548D01*
X91981218Y-97294773D01*
X91918877Y-97144269D01*
X91828372Y-97008819D01*
X91713181Y-96893628D01*
X91585592Y-96808375D01*
X91739548Y-96839000D01*
X91902452Y-96839000D01*
X92062227Y-96807218D01*
X92212731Y-96744877D01*
X92348181Y-96654372D01*
X92463372Y-96539181D01*
X92553877Y-96403731D01*
X92616218Y-96253227D01*
X92648000Y-96093452D01*
X92648000Y-95930548D01*
X92616218Y-95770773D01*
X92553877Y-95620269D01*
X92476960Y-95505155D01*
X92558530Y-95383078D01*
X92620871Y-95232574D01*
X92652653Y-95072799D01*
X92652653Y-94909895D01*
X92620871Y-94750120D01*
X92558530Y-94599616D01*
X92468025Y-94464166D01*
X92423706Y-94419847D01*
X92463372Y-94380181D01*
X92553877Y-94244731D01*
X92616218Y-94094227D01*
X92648000Y-93934452D01*
X92648000Y-93771548D01*
X92616218Y-93611773D01*
X92553877Y-93461269D01*
X92463372Y-93325819D01*
X92348181Y-93210628D01*
X92212731Y-93120123D01*
X92062227Y-93057782D01*
X91902452Y-93026000D01*
X91739548Y-93026000D01*
X91579773Y-93057782D01*
X91429269Y-93120123D01*
X91293819Y-93210628D01*
X91178628Y-93325819D01*
X91088123Y-93461269D01*
X91025782Y-93611773D01*
X90994000Y-93771548D01*
X90994000Y-93934452D01*
X91025782Y-94094227D01*
X91088123Y-94244731D01*
X91178628Y-94380181D01*
X91222947Y-94424500D01*
X91183281Y-94464166D01*
X91092776Y-94599616D01*
X91030435Y-94750120D01*
X90998653Y-94909895D01*
X90998653Y-95072799D01*
X91030435Y-95232574D01*
X91092776Y-95383078D01*
X91169693Y-95498192D01*
X91088123Y-95620269D01*
X91025782Y-95770773D01*
X90994000Y-95930548D01*
X90994000Y-96093452D01*
X91025782Y-96253227D01*
X91088123Y-96403731D01*
X91178628Y-96539181D01*
X91293819Y-96654372D01*
X91421408Y-96739625D01*
X91267452Y-96709000D01*
X91104548Y-96709000D01*
X90944773Y-96740782D01*
X90794269Y-96803123D01*
X90658819Y-96893628D01*
X90543628Y-97008819D01*
X90453123Y-97144269D01*
X90390782Y-97294773D01*
X90359000Y-97454548D01*
X47452000Y-97454548D01*
X47452000Y-90435940D01*
X49273000Y-90435940D01*
X49273000Y-91564060D01*
X49493085Y-92670504D01*
X49924798Y-93712752D01*
X50551548Y-94650750D01*
X51349250Y-95448452D01*
X52287248Y-96075202D01*
X53329496Y-96506915D01*
X54435940Y-96727000D01*
X55564060Y-96727000D01*
X56670504Y-96506915D01*
X56835556Y-96438548D01*
X82612000Y-96438548D01*
X82612000Y-96601452D01*
X82643782Y-96761227D01*
X82706123Y-96911731D01*
X82796628Y-97047181D01*
X82911819Y-97162372D01*
X83047269Y-97252877D01*
X83197773Y-97315218D01*
X83357548Y-97347000D01*
X83520452Y-97347000D01*
X83680227Y-97315218D01*
X83830731Y-97252877D01*
X83966181Y-97162372D01*
X84081372Y-97047181D01*
X84171877Y-96911731D01*
X84234218Y-96761227D01*
X84266000Y-96601452D01*
X84266000Y-96438548D01*
X84234218Y-96278773D01*
X84171877Y-96128269D01*
X84081372Y-95992819D01*
X83966181Y-95877628D01*
X83830731Y-95787123D01*
X83680227Y-95724782D01*
X83520452Y-95693000D01*
X83357548Y-95693000D01*
X83197773Y-95724782D01*
X83047269Y-95787123D01*
X82911819Y-95877628D01*
X82796628Y-95992819D01*
X82706123Y-96128269D01*
X82643782Y-96278773D01*
X82612000Y-96438548D01*
X56835556Y-96438548D01*
X57712752Y-96075202D01*
X58650750Y-95448452D01*
X59448452Y-94650750D01*
X59781339Y-94152548D01*
X80072000Y-94152548D01*
X80072000Y-94315452D01*
X80103782Y-94475227D01*
X80166123Y-94625731D01*
X80256628Y-94761181D01*
X80371819Y-94876372D01*
X80507269Y-94966877D01*
X80657773Y-95029218D01*
X80817548Y-95061000D01*
X80980452Y-95061000D01*
X81140227Y-95029218D01*
X81290731Y-94966877D01*
X81426181Y-94876372D01*
X81541372Y-94761181D01*
X81631877Y-94625731D01*
X81694218Y-94475227D01*
X81726000Y-94315452D01*
X81726000Y-94152548D01*
X81694218Y-93992773D01*
X81631877Y-93842269D01*
X81541372Y-93706819D01*
X81426181Y-93591628D01*
X81290731Y-93501123D01*
X81140227Y-93438782D01*
X80980452Y-93407000D01*
X80817548Y-93407000D01*
X80657773Y-93438782D01*
X80507269Y-93501123D01*
X80371819Y-93591628D01*
X80256628Y-93706819D01*
X80166123Y-93842269D01*
X80103782Y-93992773D01*
X80072000Y-94152548D01*
X59781339Y-94152548D01*
X60075202Y-93712752D01*
X60419083Y-92882548D01*
X82485000Y-92882548D01*
X82485000Y-93045452D01*
X82516782Y-93205227D01*
X82579123Y-93355731D01*
X82669628Y-93491181D01*
X82784819Y-93606372D01*
X82920269Y-93696877D01*
X83070773Y-93759218D01*
X83230548Y-93791000D01*
X83393452Y-93791000D01*
X83553227Y-93759218D01*
X83703731Y-93696877D01*
X83804676Y-93629427D01*
X83849123Y-93736731D01*
X83939628Y-93872181D01*
X84054819Y-93987372D01*
X84190269Y-94077877D01*
X84340773Y-94140218D01*
X84449602Y-94161866D01*
X84408566Y-94223281D01*
X84346225Y-94373785D01*
X84314443Y-94533560D01*
X84314443Y-94696464D01*
X84346225Y-94856239D01*
X84408566Y-95006743D01*
X84499071Y-95142193D01*
X84614262Y-95257384D01*
X84749712Y-95347889D01*
X84900216Y-95410230D01*
X85059991Y-95442012D01*
X85222895Y-95442012D01*
X85382670Y-95410230D01*
X85533174Y-95347889D01*
X85641567Y-95275463D01*
X85749713Y-95347724D01*
X85900217Y-95410065D01*
X86059992Y-95441847D01*
X86222896Y-95441847D01*
X86382671Y-95410065D01*
X86533175Y-95347724D01*
X86640189Y-95276219D01*
X86749713Y-95349401D01*
X86900217Y-95411742D01*
X87059992Y-95443524D01*
X87222896Y-95443524D01*
X87382671Y-95411742D01*
X87533175Y-95349401D01*
X87652002Y-95270003D01*
X87749615Y-95335226D01*
X87900119Y-95397567D01*
X88059894Y-95429349D01*
X88222798Y-95429349D01*
X88382573Y-95397567D01*
X88533077Y-95335226D01*
X88638206Y-95264981D01*
X88762269Y-95347877D01*
X88912773Y-95410218D01*
X89072548Y-95442000D01*
X89235452Y-95442000D01*
X89395227Y-95410218D01*
X89545731Y-95347877D01*
X89681181Y-95257372D01*
X89796372Y-95142181D01*
X89886877Y-95006731D01*
X89949218Y-94856227D01*
X89981000Y-94696452D01*
X89981000Y-94533548D01*
X89949218Y-94373773D01*
X89886877Y-94223269D01*
X89796372Y-94087819D01*
X89681181Y-93972628D01*
X89545731Y-93882123D01*
X89395227Y-93819782D01*
X89235452Y-93788000D01*
X89072548Y-93788000D01*
X88912773Y-93819782D01*
X88762269Y-93882123D01*
X88657140Y-93952368D01*
X88533077Y-93869472D01*
X88382573Y-93807131D01*
X88222798Y-93775349D01*
X88059894Y-93775349D01*
X87900119Y-93807131D01*
X87749615Y-93869472D01*
X87630788Y-93948870D01*
X87533175Y-93883647D01*
X87382671Y-93821306D01*
X87222896Y-93789524D01*
X87059992Y-93789524D01*
X86900217Y-93821306D01*
X86749713Y-93883647D01*
X86642699Y-93955152D01*
X86533175Y-93881970D01*
X86382671Y-93819629D01*
X86222896Y-93787847D01*
X86059992Y-93787847D01*
X85900217Y-93819629D01*
X85749713Y-93881970D01*
X85641320Y-93954396D01*
X85533174Y-93882135D01*
X85382670Y-93819794D01*
X85273841Y-93798146D01*
X85314877Y-93736731D01*
X85377218Y-93586227D01*
X85409000Y-93426452D01*
X85409000Y-93263548D01*
X85377218Y-93103773D01*
X85314877Y-92953269D01*
X85224372Y-92817819D01*
X85109181Y-92702628D01*
X84973731Y-92612123D01*
X84823227Y-92549782D01*
X84663452Y-92518000D01*
X84500548Y-92518000D01*
X84340773Y-92549782D01*
X84190269Y-92612123D01*
X84089324Y-92679573D01*
X84044877Y-92572269D01*
X83954372Y-92436819D01*
X83839181Y-92321628D01*
X83703731Y-92231123D01*
X83553227Y-92168782D01*
X83393452Y-92137000D01*
X83230548Y-92137000D01*
X83070773Y-92168782D01*
X82920269Y-92231123D01*
X82784819Y-92321628D01*
X82669628Y-92436819D01*
X82579123Y-92572269D01*
X82516782Y-92722773D01*
X82485000Y-92882548D01*
X60419083Y-92882548D01*
X60506915Y-92670504D01*
X60727000Y-91564060D01*
X60727000Y-90469548D01*
X93026000Y-90469548D01*
X93026000Y-90632452D01*
X93057782Y-90792227D01*
X93120123Y-90942731D01*
X93210628Y-91078181D01*
X93325819Y-91193372D01*
X93461269Y-91283877D01*
X93611773Y-91346218D01*
X93771548Y-91378000D01*
X93934452Y-91378000D01*
X94094227Y-91346218D01*
X94244731Y-91283877D01*
X94380181Y-91193372D01*
X94495372Y-91078181D01*
X94585877Y-90942731D01*
X94624060Y-90850548D01*
X126427000Y-90850548D01*
X126427000Y-91013452D01*
X126458782Y-91173227D01*
X126521123Y-91323731D01*
X126611628Y-91459181D01*
X126726819Y-91574372D01*
X126862269Y-91664877D01*
X127012773Y-91727218D01*
X127172548Y-91759000D01*
X127335452Y-91759000D01*
X127495227Y-91727218D01*
X127645731Y-91664877D01*
X127781181Y-91574372D01*
X127896372Y-91459181D01*
X127986877Y-91323731D01*
X128049218Y-91173227D01*
X128081000Y-91013452D01*
X128081000Y-90850548D01*
X128049218Y-90690773D01*
X127986877Y-90540269D01*
X127896372Y-90404819D01*
X127781181Y-90289628D01*
X127645731Y-90199123D01*
X127495227Y-90136782D01*
X127335452Y-90105000D01*
X127172548Y-90105000D01*
X127012773Y-90136782D01*
X126862269Y-90199123D01*
X126726819Y-90289628D01*
X126611628Y-90404819D01*
X126521123Y-90540269D01*
X126458782Y-90690773D01*
X126427000Y-90850548D01*
X94624060Y-90850548D01*
X94648218Y-90792227D01*
X94680000Y-90632452D01*
X94680000Y-90469548D01*
X94648218Y-90309773D01*
X94585877Y-90159269D01*
X94495372Y-90023819D01*
X94380181Y-89908628D01*
X94244731Y-89818123D01*
X94094227Y-89755782D01*
X93934452Y-89724000D01*
X93771548Y-89724000D01*
X93611773Y-89755782D01*
X93461269Y-89818123D01*
X93325819Y-89908628D01*
X93210628Y-90023819D01*
X93120123Y-90159269D01*
X93057782Y-90309773D01*
X93026000Y-90469548D01*
X60727000Y-90469548D01*
X60727000Y-90435940D01*
X60506915Y-89329496D01*
X60143194Y-88451395D01*
X86906847Y-88451395D01*
X86906847Y-88614299D01*
X86938629Y-88774074D01*
X87000970Y-88924578D01*
X87091475Y-89060028D01*
X87206666Y-89175219D01*
X87342116Y-89265724D01*
X87492620Y-89328065D01*
X87652395Y-89359847D01*
X87815299Y-89359847D01*
X87975074Y-89328065D01*
X88125578Y-89265724D01*
X88261028Y-89175219D01*
X88363699Y-89072548D01*
X89724000Y-89072548D01*
X89724000Y-89235452D01*
X89755782Y-89395227D01*
X89818123Y-89545731D01*
X89908628Y-89681181D01*
X90023819Y-89796372D01*
X90159269Y-89886877D01*
X90309773Y-89949218D01*
X90469548Y-89981000D01*
X90632452Y-89981000D01*
X90792227Y-89949218D01*
X90942731Y-89886877D01*
X91078181Y-89796372D01*
X91193372Y-89681181D01*
X91283877Y-89545731D01*
X91346218Y-89395227D01*
X91378000Y-89235452D01*
X91378000Y-89072548D01*
X91346218Y-88912773D01*
X91283877Y-88762269D01*
X91193372Y-88626819D01*
X91078181Y-88511628D01*
X90942731Y-88421123D01*
X90792227Y-88358782D01*
X90632452Y-88327000D01*
X90469548Y-88327000D01*
X90309773Y-88358782D01*
X90159269Y-88421123D01*
X90023819Y-88511628D01*
X89908628Y-88626819D01*
X89818123Y-88762269D01*
X89755782Y-88912773D01*
X89724000Y-89072548D01*
X88363699Y-89072548D01*
X88376219Y-89060028D01*
X88466724Y-88924578D01*
X88529065Y-88774074D01*
X88560847Y-88614299D01*
X88560847Y-88451395D01*
X88529065Y-88291620D01*
X88466724Y-88141116D01*
X88376219Y-88005666D01*
X88261028Y-87890475D01*
X88125578Y-87799970D01*
X87975074Y-87737629D01*
X87815299Y-87705847D01*
X87652395Y-87705847D01*
X87492620Y-87737629D01*
X87342116Y-87799970D01*
X87206666Y-87890475D01*
X87091475Y-88005666D01*
X87000970Y-88141116D01*
X86938629Y-88291620D01*
X86906847Y-88451395D01*
X60143194Y-88451395D01*
X60075202Y-88287248D01*
X59448452Y-87349250D01*
X58650750Y-86551548D01*
X58432246Y-86405548D01*
X91248000Y-86405548D01*
X91248000Y-86568452D01*
X91279782Y-86728227D01*
X91342123Y-86878731D01*
X91432628Y-87014181D01*
X91547819Y-87129372D01*
X91683269Y-87219877D01*
X91833773Y-87282218D01*
X91993548Y-87314000D01*
X92156452Y-87314000D01*
X92316227Y-87282218D01*
X92466731Y-87219877D01*
X92602181Y-87129372D01*
X92717372Y-87014181D01*
X92807877Y-86878731D01*
X92870218Y-86728227D01*
X92902000Y-86568452D01*
X92902000Y-86405548D01*
X92876738Y-86278548D01*
X100138000Y-86278548D01*
X100138000Y-86441452D01*
X100169782Y-86601227D01*
X100232123Y-86751731D01*
X100322628Y-86887181D01*
X100437819Y-87002372D01*
X100573269Y-87092877D01*
X100723773Y-87155218D01*
X100883548Y-87187000D01*
X101046452Y-87187000D01*
X101206227Y-87155218D01*
X101356731Y-87092877D01*
X101492181Y-87002372D01*
X101607372Y-86887181D01*
X101697877Y-86751731D01*
X101760218Y-86601227D01*
X101792000Y-86441452D01*
X101792000Y-86278548D01*
X101760218Y-86118773D01*
X101697877Y-85968269D01*
X101607372Y-85832819D01*
X101492181Y-85717628D01*
X101356731Y-85627123D01*
X101206227Y-85564782D01*
X101046452Y-85533000D01*
X100883548Y-85533000D01*
X100723773Y-85564782D01*
X100573269Y-85627123D01*
X100437819Y-85717628D01*
X100322628Y-85832819D01*
X100232123Y-85968269D01*
X100169782Y-86118773D01*
X100138000Y-86278548D01*
X92876738Y-86278548D01*
X92870218Y-86245773D01*
X92807877Y-86095269D01*
X92717372Y-85959819D01*
X92602181Y-85844628D01*
X92466731Y-85754123D01*
X92316227Y-85691782D01*
X92156452Y-85660000D01*
X91993548Y-85660000D01*
X91833773Y-85691782D01*
X91683269Y-85754123D01*
X91547819Y-85844628D01*
X91432628Y-85959819D01*
X91342123Y-86095269D01*
X91279782Y-86245773D01*
X91248000Y-86405548D01*
X58432246Y-86405548D01*
X57712752Y-85924798D01*
X56670504Y-85493085D01*
X55564060Y-85273000D01*
X54435940Y-85273000D01*
X53329496Y-85493085D01*
X52287248Y-85924798D01*
X51349250Y-86551548D01*
X50551548Y-87349250D01*
X49924798Y-88287248D01*
X49493085Y-89329496D01*
X49273000Y-90435940D01*
X47452000Y-90435940D01*
X47452000Y-78644679D01*
X124808000Y-78644679D01*
X124808000Y-78955321D01*
X124868604Y-79259994D01*
X124987481Y-79546989D01*
X125160064Y-79805279D01*
X125379721Y-80024936D01*
X125638011Y-80197519D01*
X125925006Y-80316396D01*
X126229679Y-80377000D01*
X126540321Y-80377000D01*
X126844994Y-80316396D01*
X127131989Y-80197519D01*
X127390279Y-80024936D01*
X127609936Y-79805279D01*
X127782519Y-79546989D01*
X127901396Y-79259994D01*
X127962000Y-78955321D01*
X127962000Y-78644679D01*
X132408000Y-78644679D01*
X132408000Y-78955321D01*
X132468604Y-79259994D01*
X132587481Y-79546989D01*
X132760064Y-79805279D01*
X132979721Y-80024936D01*
X133238011Y-80197519D01*
X133525006Y-80316396D01*
X133829679Y-80377000D01*
X134140321Y-80377000D01*
X134444994Y-80316396D01*
X134731989Y-80197519D01*
X134990279Y-80024936D01*
X135209936Y-79805279D01*
X135382519Y-79546989D01*
X135501396Y-79259994D01*
X135562000Y-78955321D01*
X135562000Y-78644679D01*
X135501396Y-78340006D01*
X135382519Y-78053011D01*
X135209936Y-77794721D01*
X134990279Y-77575064D01*
X134731989Y-77402481D01*
X134444994Y-77283604D01*
X134140321Y-77223000D01*
X133829679Y-77223000D01*
X133525006Y-77283604D01*
X133238011Y-77402481D01*
X132979721Y-77575064D01*
X132760064Y-77794721D01*
X132587481Y-78053011D01*
X132468604Y-78340006D01*
X132408000Y-78644679D01*
X127962000Y-78644679D01*
X127901396Y-78340006D01*
X127782519Y-78053011D01*
X127609936Y-77794721D01*
X127390279Y-77575064D01*
X127131989Y-77402481D01*
X126844994Y-77283604D01*
X126540321Y-77223000D01*
X126229679Y-77223000D01*
X125925006Y-77283604D01*
X125638011Y-77402481D01*
X125379721Y-77575064D01*
X125160064Y-77794721D01*
X124987481Y-78053011D01*
X124868604Y-78340006D01*
X124808000Y-78644679D01*
X47452000Y-78644679D01*
X47452000Y-76127000D01*
X137548000Y-76127000D01*
X137548001Y-118548000D01*
G37*
%TD.AperFunction*%
%TD*%
M02*
