M48
; DRILL file {KiCad (5.1.7)-1} date 04/04/21 08:26:05
; FORMAT={-:-/ absolute / inch / decimal}
; #@! TF.CreationDate,2021-04-04T08:26:05+02:00
; #@! TF.GenerationSoftware,Kicad,Pcbnew,(5.1.7)-1
; #@! TF.FileFunction,Plated,1,4,PTH
FMAT,2
INCH
T1C0.0157
T2C0.0236
T3C0.0256
T4C0.0299
T5C0.0315
T6C0.0362
T7C0.0394
T8C0.0433
T9C0.0512
T10C0.0598
T11C0.0630
T12C0.0917
T13C0.2087
%
G90
G05
T1
X2.51Y-4.42
X2.7756Y-1.9291
X2.7756Y-2.0276
X2.7756Y-2.126
X2.7756Y-2.2244
X2.8937Y-1.9291
X2.8937Y-2.0276
X2.8937Y-2.126
X2.8937Y-2.2244
X2.9434Y-4.1549
X2.97Y-3.74
X2.97Y-3.8518
X3.01Y-3.965
X3.0118Y-1.9291
X3.0118Y-2.0276
X3.0118Y-2.126
X3.0118Y-2.2244
X3.0923Y-4.2673
X3.12Y-3.44
X3.1288Y-4.312
X3.1299Y-1.9291
X3.1299Y-2.0276
X3.1299Y-2.126
X3.1299Y-2.2244
X3.185Y-3.71
X3.185Y-3.895
X3.28Y-3.66
X3.285Y-3.8
X3.32Y-4.125
X3.33Y-3.675
X3.352Y-3.725
X3.3914Y-3.725
X3.41Y-4.035
X3.4308Y-3.7251
X3.4541Y-3.4855
X3.4701Y-3.7245
X3.5Y-3.945
X3.51Y-3.725
X3.565Y-3.51
X3.59Y-3.84
X3.615Y-3.695
X3.615Y-3.78
X3.6152Y-3.7398
X3.625Y-3.405
X3.65Y-4.22
X3.695Y-3.565
X3.74Y-3.6
X3.75Y-3.86
X3.75Y-3.9
X3.7505Y-3.8201
X3.975Y-3.4
X4.175Y-3.175
X4.345Y-3.55
X4.615Y-3.965
X4.64Y-3.355
X4.64Y-3.505
X4.69Y-3.355
X4.69Y-3.505
X4.74Y-3.355
X4.74Y-3.505
X4.795Y-3.355
X4.795Y-3.405
X4.795Y-3.455
X4.795Y-3.505
X5.01Y-3.58
T2
X4.0955Y-3.937
X4.1413Y-3.8263
X4.1413Y-4.0477
X4.252Y-3.7805
X4.252Y-4.0935
X4.3626Y-3.8263
X4.3626Y-4.0477
X4.4085Y-3.937
X4.0955Y-1.9685
X4.1413Y-1.8578
X4.1413Y-2.0792
X4.252Y-1.812
X4.252Y-2.125
X4.3626Y-1.8578
X4.3626Y-2.0792
X4.4085Y-1.9685
X2.0089Y-3.5827
X2.0547Y-3.472
X2.0547Y-3.6933
X2.1654Y-3.4262
X2.1654Y-3.7392
X2.276Y-3.472
X2.276Y-3.6933
X2.3219Y-3.5827
T3
X3.15Y-4.47
X3.15Y-4.52
X3.2Y-4.47
X3.2Y-4.52
X3.25Y-4.47
X3.25Y-4.52
X3.3Y-4.47
X3.3Y-4.52
X3.35Y-4.47
X3.35Y-4.52
X3.4Y-4.47
X3.4Y-4.52
X3.45Y-4.47
X3.45Y-4.52
X3.5Y-4.47
X3.5Y-4.52
X3.55Y-4.47
X3.55Y-4.52
X3.6Y-4.47
X3.6Y-4.52
X3.65Y-4.47
X3.65Y-4.52
X3.7Y-4.47
X3.7Y-4.52
X3.75Y-4.47
X3.75Y-4.52
X3.8Y-4.47
X3.8Y-4.52
X3.85Y-4.47
X3.85Y-4.52
X3.9Y-4.47
X3.9Y-4.52
X3.95Y-4.47
X3.95Y-4.52
T4
X4.9758Y-3.1024
X5.275Y-3.1024
T5
X4.6766Y-2.0
X5.275Y-2.0
T6
X4.83Y-4.1316
X4.83Y-4.23
X4.9087Y-4.1316
X4.9087Y-4.23
T7
X2.0157Y-2.5232
X2.4882Y-2.5232
T8
X3.55Y-2.475
X3.65Y-2.475
X3.75Y-2.475
T9
X2.25Y-2.6
X2.4882Y-2.0429
T10
X2.04Y-4.2
X2.04Y-4.4
T11
X4.825Y-1.6
X5.125Y-1.6
X3.5Y-1.6
X3.8Y-1.6
X2.8Y-1.6
X3.1Y-1.6
X2.1Y-1.6
X2.4Y-1.6
T12
X5.0154Y-3.9438
X5.0154Y-4.4178
T13
X4.252Y-3.937
X4.252Y-1.9685
X2.1654Y-3.5827
T0
M30
